<svg width="335" height="200" viewBox="0 0 335 200" fill="none" xmlns="http://www.w3.org/2000/svg">
<path d="M0 16C0 7.16344 7.16344 0 16 0H319C327.837 0 335 7.16344 335 16V184C335 192.837 327.837 200 319 200H16C7.16345 200 0 192.837 0 184V16Z" fill="url(#paint0_linear_10246_11542)"/>
<path d="M164.486 147.027C163.772 146.705 163.051 146.397 162.337 146.096C161.714 145.83 161.084 145.578 160.461 145.319C160.419 145.298 160.363 145.305 160.321 145.277C159.173 144.535 157.857 144.465 156.611 144.101C156.051 143.94 155.498 143.73 154.931 143.618C153.678 143.38 152.411 143.212 151.151 142.981C150.115 142.792 149.079 142.547 148.043 142.33C147.994 142.323 147.945 142.309 147.903 142.302C146.622 142.12 145.341 141.959 144.06 141.749C143.325 141.63 142.604 141.427 141.792 141.238C141.596 142.134 141.4 142.946 141.232 143.772C141.134 144.255 141.134 144.78 140.959 145.228C140.644 146.033 140.672 146.936 140.259 147.727C139.979 148.259 140.056 148.98 139.909 149.596C139.664 150.625 139.37 151.64 139.104 152.662C139.083 152.725 139.09 152.802 139.083 152.893C139.454 153.201 139.867 153.054 140.259 153.075C140.539 153.089 140.819 153.082 141.099 153.089C141.218 153.089 141.337 153.11 141.456 153.11C142.289 153.11 143.122 153.103 143.955 153.103C144.102 153.103 144.256 153.089 144.389 153.138C145.033 153.418 145.663 153.229 146.3 153.25C147.14 153.278 147.98 153.32 148.813 153.341C149.17 153.348 149.527 153.299 149.884 153.32C151.123 153.404 152.369 153.558 153.608 153.593C154.42 153.621 155.218 153.712 156.023 153.831C156.737 153.936 157.458 153.894 158.179 153.922C159.348 153.971 160.524 154.034 161.693 154.076C162.603 154.111 163.513 154.132 164.416 154.16C165.179 154.188 165.949 154.223 166.712 154.251C166.915 154.258 167.118 154.251 167.314 154.251C167.321 154.195 167.328 154.146 167.335 154.09C166.747 153.908 166.159 153.712 165.571 153.537C164.444 153.208 163.317 152.893 162.197 152.571C162.057 152.529 161.924 152.48 161.784 152.452C161.077 152.298 160.363 152.158 159.656 151.997C159.208 151.892 158.767 151.752 158.326 151.612C158.06 151.528 157.752 151.409 157.787 151.094C157.815 150.87 157.983 150.583 158.172 150.499C158.48 150.359 158.851 150.31 159.201 150.324C160.062 150.359 160.923 150.45 161.791 150.52C161.91 150.527 162.036 150.562 162.148 150.611C162.953 150.94 163.807 150.926 164.626 151.108C165.592 151.318 166.558 151.577 167.524 151.822C168.021 151.948 168.511 152.081 169.001 152.242C169.225 152.319 169.456 152.431 169.645 152.578C170.044 152.879 170.079 153.061 169.904 153.516C169.827 153.712 169.743 153.901 169.617 154.188C170.345 154.244 171.024 154.265 171.696 154.356C172.354 154.454 173.012 154.622 173.663 154.762C173.81 154.146 173.929 153.628 174.062 153.117C174.335 152.074 174.615 151.038 174.888 149.995C175.175 148.882 175.455 147.762 175.728 146.642C176.043 145.34 176.358 144.038 176.652 142.729C176.904 141.63 177.121 140.517 177.366 139.418C177.464 138.984 177.597 138.557 177.716 138.13C178.052 136.933 178.374 135.729 178.717 134.539C178.934 133.769 179.179 133.013 179.389 132.243C179.571 131.564 179.697 130.864 179.893 130.185C180.39 128.477 180.915 126.776 181.419 125.11C180.278 124.389 179.165 123.682 178.045 122.975C177.877 122.87 177.681 122.772 177.569 122.625C177.009 121.918 176.19 121.589 175.511 121.05C175.084 120.714 174.706 120.315 174.328 119.923C174.209 119.804 174.132 119.629 174.083 119.475C173.978 119.139 173.908 118.782 174.202 118.544C174.475 118.327 174.818 118.439 175.091 118.614C175.777 119.041 176.442 119.517 177.121 119.965C177.345 120.112 177.583 120.238 177.814 120.357C178.094 120.504 178.451 120.567 178.661 120.777C179.249 121.358 180.082 121.519 180.656 122.17C180.999 122.562 181.615 122.716 182.175 123.017C182.336 122.597 182.546 122.177 182.651 121.736C182.861 120.84 183.554 120.322 184.205 119.853C184.576 119.587 185.199 119.608 185.717 119.587C186.452 119.559 187.201 119.622 187.943 119.636C188.181 119.636 188.412 119.58 188.65 119.566C189.357 119.51 190.071 119.454 190.778 119.412C191.653 119.363 192.535 119.335 193.41 119.272C193.557 119.265 193.725 119.16 193.816 119.055C194.187 118.614 194.53 118.145 194.887 117.69C195.223 117.277 195.566 116.871 195.902 116.465C196.077 116.248 196.259 116.038 196.42 115.814C197.512 114.26 198.555 112.678 199.451 110.991C199.899 110.151 200.396 109.339 200.809 108.478C201.257 107.561 201.642 106.609 202.048 105.671C202.657 104.264 203.252 102.843 203.875 101.443C204.54 99.952 205.233 98.475 205.898 96.991C206.115 96.501 206.29 95.99 206.5 95.5C206.738 94.94 207.004 94.394 207.249 93.841C207.669 92.903 208.096 91.979 208.488 91.027C208.789 90.299 209.048 89.55 209.335 88.78C208.152 88.241 207.004 87.744 205.87 87.205C205.009 86.799 204.148 86.4 203.385 85.784C203.07 85.532 202.657 85.406 202.3 85.203C202.09 85.084 201.88 84.951 201.684 84.811C201.278 84.531 200.872 84.244 200.48 83.95C200.186 83.733 199.906 83.502 199.626 83.271C199.57 83.222 199.535 83.138 199.479 83.11C198.177 82.473 197.281 81.367 196.294 80.359C196.28 80.345 196.252 80.338 196.189 80.303C196.119 80.401 196.028 80.499 195.972 80.618C195.342 82.046 194.705 83.467 194.103 84.902C193.466 86.407 192.731 87.863 191.849 89.221C191.233 90.173 190.477 91.027 189.756 91.902C189.231 92.546 188.678 93.169 188.104 93.771C187.39 94.513 186.48 94.968 185.563 95.437C184.611 95.92 183.589 96.137 182.525 96.242C182.315 96.263 182.091 96.256 181.881 96.214C179.886 95.829 178.255 94.814 176.932 93.218C176.316 92.476 175.63 91.797 174.993 91.076C174.664 90.705 174.391 90.299 174.076 89.921C173.852 89.655 173.593 89.424 173.369 89.158C172.816 88.521 172.284 87.863 171.731 87.226C171.556 87.023 171.339 86.855 171.143 86.673C171.052 86.589 170.933 86.526 170.863 86.428C169.505 84.629 167.58 83.6 165.718 82.48C165.361 82.263 164.997 82.046 164.668 81.843C163.653 82.592 162.694 83.348 161.686 84.034C160.699 84.706 159.663 85.315 158.697 86.085C159.355 86.183 160.006 86.274 160.664 86.372C161.644 86.519 162.624 86.631 163.604 86.827C164.262 86.96 164.885 87.254 165.158 87.947C165.487 88.773 165.375 89.543 164.794 90.138C163.905 91.048 163.065 92 162.029 92.763C161.028 93.505 160.097 94.345 159.131 95.129C158.2 95.885 157.234 96.599 156.331 97.39C155.372 98.223 154.448 99.098 153.545 99.994C152.978 100.561 152.348 101.086 152.005 101.856C151.963 101.954 151.858 102.038 151.774 102.108C151.571 102.262 151.368 102.409 151.06 102.255C150.752 102.094 150.626 101.835 150.626 101.541C150.626 101.31 150.682 101.065 150.766 100.855C151.137 99.889 151.697 99.042 152.425 98.314C152.964 97.775 153.51 97.243 154.049 96.704C154.133 96.62 154.21 96.536 154.301 96.466C155.372 95.584 156.443 94.709 157.507 93.82C158.998 92.581 160.482 91.328 161.973 90.082C162.253 89.844 162.547 89.627 162.939 89.319C162.624 89.207 162.393 89.088 162.155 89.053C160.818 88.843 159.481 88.668 158.151 88.458C157.654 88.381 157.178 88.206 156.667 88.185C156.044 88.157 155.617 87.52 155.694 86.841C155.771 86.113 156.016 85.441 156.611 85.014C157.493 84.377 158.403 83.775 159.313 83.173C160.615 82.319 161.924 81.486 163.226 80.639C163.296 80.59 163.352 80.52 163.506 80.373C163.184 80.268 162.946 80.163 162.708 80.121C161.686 79.925 160.657 79.736 159.635 79.554C159.516 79.533 159.404 79.519 159.285 79.512C158.886 79.484 158.48 79.477 158.081 79.435C157.745 79.4 157.416 79.309 157.087 79.274C156.52 79.225 156.268 78.875 156.534 78.413C156.66 78.196 156.905 77.965 157.15 77.916C157.703 77.797 158.277 77.699 158.844 77.741C160.538 77.86 162.239 78.028 163.933 78.231C164.318 78.28 164.703 78.546 165.06 78.763C165.2 78.847 165.305 79.071 165.354 79.246C165.438 79.547 165.466 79.862 165.536 80.247C166.32 80.604 167.153 80.947 167.951 81.367C168.693 81.752 169.407 82.2 170.114 82.648C170.317 82.774 170.464 82.991 170.632 83.166C170.814 83.369 170.961 83.649 171.185 83.761C172.221 84.272 172.781 85.28 173.586 86.022C174.069 86.47 174.37 87.1 174.776 87.632C174.916 87.821 175.112 87.975 175.287 88.129C175.399 88.227 175.574 88.269 175.651 88.381C176.176 89.137 176.904 89.739 177.429 90.467C177.989 91.258 178.752 91.783 179.41 92.434C179.921 92.931 180.551 93.211 181.146 93.526C181.489 93.708 181.944 93.687 182.35 93.701C183.75 93.743 185.08 93.484 186.158 92.658C187.033 91.986 187.873 91.237 188.601 90.411C189.469 89.424 190.239 88.346 190.967 87.247C191.513 86.421 191.94 85.511 192.388 84.615C192.857 83.677 193.298 82.725 193.711 81.766C194.215 80.611 194.656 79.428 195.16 78.273C195.986 76.348 196.742 74.374 197.897 72.631C199.094 70.818 200.214 68.935 201.789 67.409C202.237 66.975 202.699 66.548 203.21 66.184C203.98 65.638 204.799 65.148 205.59 64.63C206.178 64.245 206.871 64.091 207.536 63.86C207.823 63.762 208.11 63.671 208.383 63.552C208.866 63.342 209.223 63.489 209.258 64.014C209.3 64.651 209.279 65.309 209.181 65.932C209.083 66.555 208.852 67.15 208.684 67.759C208.649 67.885 208.621 68.018 208.579 68.179C208.719 68.179 208.796 68.2 208.845 68.172C209.531 67.78 210.21 67.388 210.889 66.989C210.952 66.954 211.001 66.905 211.057 66.87C212.072 66.219 213.08 65.575 214.095 64.917C214.228 64.833 214.354 64.721 214.466 64.609C215.845 63.307 217.224 62.012 218.603 60.71C218.701 60.612 218.806 60.514 218.925 60.451C219.296 60.262 219.618 60.423 219.765 60.843C219.933 61.34 219.898 61.788 219.59 62.194C218.568 63.552 217.406 64.77 216.062 65.813C215.201 66.478 214.368 67.171 213.465 67.773C212.66 68.312 211.736 68.683 210.952 69.25C210.21 69.789 209.293 69.866 208.495 70.244C208.453 70.265 208.411 70.286 208.362 70.293C207.137 70.468 206.78 70.251 206.92 69.131C207.032 68.214 207.221 67.311 207.375 66.408C207.396 66.275 207.41 66.142 207.438 65.932C205.184 67.332 203.056 68.718 201.397 70.741C199.43 73.149 198.121 75.921 196.826 78.728C197.981 79.715 199.332 80.296 200.123 81.255C200.627 81.577 200.97 81.794 201.313 82.011C201.376 82.053 201.411 82.13 201.474 82.165C202.006 82.459 202.65 82.641 203.049 83.054C203.504 83.523 204.008 83.705 204.554 83.901C204.778 83.985 204.988 84.125 205.205 84.23C205.443 84.349 205.688 84.461 205.926 84.58C206.101 84.664 206.276 84.748 206.458 84.825C207.333 85.21 208.208 85.602 209.09 85.959C209.468 86.113 209.874 86.19 210.287 86.309C210.35 86.218 210.427 86.155 210.455 86.078C211.204 83.803 211.946 81.535 212.681 79.26C212.786 78.945 212.786 78.651 212.632 78.294C212.359 77.664 212.604 77.139 213.22 76.831C213.773 76.551 214.284 76.201 214.9 75.998C215.397 75.837 215.81 75.459 216.265 75.179C217.301 74.528 218.295 73.814 219.373 73.247C220.675 72.561 221.767 71.623 222.859 70.678C222.943 70.601 223.041 70.517 223.146 70.482C223.496 70.363 223.853 70.16 224.238 70.426C224.49 70.601 224.686 71.392 224.511 71.714C224.28 72.141 224.042 72.61 223.678 72.89C222.691 73.653 221.585 74.269 220.626 75.053C219.975 75.585 219.254 75.991 218.533 76.397C217.63 76.908 216.664 77.321 215.733 77.79C215.257 78.028 214.795 78.287 214.319 78.539C214.088 79.68 213.878 80.842 213.605 81.983C213.416 82.781 213.129 83.551 212.884 84.328C212.632 85.105 212.359 85.875 212.135 86.666C212.079 86.869 212.149 87.135 212.212 87.366C212.485 88.437 212.296 88.836 211.337 89.284C211.148 89.375 210.98 89.578 210.896 89.767C210.56 90.53 210.245 91.307 209.937 92.084C209.44 93.337 208.964 94.604 208.453 95.85C208.222 96.41 207.928 96.935 207.662 97.474C207.613 97.579 207.529 97.67 207.501 97.782C207.214 98.958 206.549 99.952 206.073 101.037C205.821 101.611 205.632 102.213 205.38 102.787C204.995 103.655 204.554 104.495 204.169 105.356C203.875 106.014 203.658 106.714 203.357 107.365C202.734 108.695 202.125 110.025 201.425 111.306C200.704 112.629 199.927 113.924 199.108 115.191C198.233 116.542 197.281 117.844 196.322 119.223C196.686 119.272 197.043 119.363 197.386 119.349C198.296 119.321 199.199 119.244 200.102 119.195C200.508 119.174 200.914 119.188 201.32 119.174C202.244 119.139 203.175 119.265 204.078 119.013C204.428 118.915 204.841 118.999 205.219 118.992C205.646 118.992 206.073 118.985 206.5 118.985C206.619 118.985 206.738 118.957 206.857 118.964C208.964 119.069 211.057 118.922 213.171 119.139C213.878 119.209 214.599 119.097 215.306 119.069C215.425 119.062 215.544 119.041 215.663 119.048C216.741 119.118 217.819 119.188 218.89 119.265C219.009 119.272 219.128 119.272 219.247 119.272C220.059 119.258 220.871 119.23 221.683 119.223C222.586 119.216 223.489 119.237 224.392 119.244C224.532 119.244 224.686 119.237 224.819 119.286C225.68 119.594 226.527 119.601 227.381 119.447C227.5 119.426 227.619 119.412 227.738 119.412C228.767 119.433 229.789 119.461 230.818 119.475C231.007 119.475 231.196 119.447 231.385 119.433C231.938 119.398 232.155 119.573 232.162 120.133C232.169 120.392 232.113 120.651 232.064 120.91C231.854 122.002 231.637 123.087 231.413 124.172C231.357 124.445 231.252 124.711 231.168 124.977C231.133 125.089 231.042 125.201 231.049 125.306C231.147 126.202 230.748 126.972 230.587 127.798C230.447 128.526 230.146 129.219 229.915 129.926C229.901 129.968 229.852 130.01 229.852 130.052C229.859 131.011 229.236 131.753 229.11 132.67C229.082 132.88 229.005 133.076 228.949 133.279C228.508 134.707 228.025 136.121 227.633 137.563C227.143 139.348 226.723 141.154 226.282 142.946C225.883 144.563 225.491 146.18 225.12 147.804C224.826 149.085 224.56 150.373 224.28 151.661C224.252 151.801 224.238 151.948 224.189 152.074C223.769 153.173 223.552 154.321 223.51 155.518C223.496 155.938 223.216 156.148 222.873 156.267C222.523 156.386 222.152 156.477 221.774 156.54C221.123 156.652 220.465 156.771 219.8 156.813C218.428 156.897 217.042 156.953 215.663 156.967C214.732 156.981 213.78 156.806 212.87 156.904C212.037 156.995 211.204 156.722 210.378 156.932C209.993 157.03 209.531 156.869 209.104 156.82C209.034 156.813 208.957 156.771 208.894 156.771C208.159 156.792 207.417 156.764 206.696 156.862C205.674 156.995 204.666 157.044 203.63 156.792C203.476 156.75 203.266 156.701 203.154 156.764C202.769 156.988 202.342 156.967 201.908 156.967C200.816 156.974 199.724 156.988 198.625 157.009C198.058 157.023 197.491 157.086 196.924 157.086C196.182 157.086 195.44 157.044 194.705 157.023C194.635 157.023 194.558 156.995 194.488 156.995C193.445 157.037 192.395 157.093 191.352 157.128C190.659 157.149 189.966 157.135 189.273 157.135C188.517 157.135 187.754 157.142 186.998 157.121C186.431 157.107 185.85 157.226 185.29 156.939C185.213 156.897 185.094 156.897 185.01 156.925C184.156 157.184 183.26 157.037 182.378 157.002C181.475 156.967 180.565 156.876 179.655 156.827C178.416 156.75 177.17 156.638 175.931 156.631C174.363 156.617 172.795 156.708 171.227 156.729C170.492 156.743 169.757 156.701 169.022 156.708C168.714 156.715 168.42 156.827 168.112 156.827C166.775 156.82 165.438 156.792 164.101 156.757C162.883 156.722 161.658 156.694 160.44 156.624C159.075 156.54 157.71 156.407 156.345 156.309C155.918 156.281 155.491 156.337 155.064 156.302C153.965 156.204 152.859 156.043 151.76 155.973C150.395 155.889 149.03 155.882 147.665 155.833C147.161 155.819 146.657 155.77 146.153 155.756C145.299 155.735 144.445 155.749 143.584 155.7C142.415 155.637 141.239 155.525 140.07 155.441C139.902 155.427 139.72 155.385 139.566 155.42C138.67 155.623 137.753 155.385 136.85 155.322C135.408 155.224 133.973 155.119 132.531 154.986C131.67 154.902 130.809 154.678 129.955 154.65C128.954 154.608 127.995 154.349 127.022 154.118C126.175 153.915 125.349 153.67 124.544 153.285C123.956 152.998 123.291 152.886 122.675 152.655C121.156 152.095 119.693 151.409 118.265 150.625C117.334 150.121 116.389 149.645 115.479 149.099C114.254 148.364 113.008 147.65 111.993 146.6C111.755 146.355 111.461 146.166 111.188 145.949C111.111 145.886 111.027 145.83 110.964 145.753C110.096 144.745 109.074 143.87 108.339 142.764C107.506 141.511 106.631 140.258 105.98 138.914C105.287 137.486 104.825 135.953 104.293 134.462C104.006 133.657 103.733 132.838 103.551 132.005C103.278 130.752 103.089 129.478 102.872 128.218C102.529 126.181 102.382 124.137 102.466 122.1C102.522 120.798 102.536 119.482 102.879 118.222C103.047 117.613 103.075 116.962 103.229 116.353C103.537 115.149 103.859 113.952 104.223 112.769C104.622 111.474 105.063 110.186 105.497 108.905C105.826 107.932 106.12 106.945 106.652 106.056C107.009 105.461 107.205 104.768 107.548 104.173C108.178 103.067 108.871 101.996 109.529 100.911C109.795 100.477 110.005 100.008 110.285 99.574C111.041 98.384 111.811 97.201 112.595 96.025C113.239 95.059 113.883 94.1 114.576 93.176C115.045 92.546 115.591 91.972 116.095 91.37C116.557 90.824 116.984 90.243 117.481 89.732C118.965 88.213 120.449 86.687 121.996 85.224C123.256 84.034 124.593 82.928 126.084 82.011C126.518 81.745 126.924 81.444 127.316 81.122C127.456 81.003 127.561 80.8 127.61 80.611C127.785 79.897 128.163 79.393 128.779 78.966C130.48 77.797 132.37 77.034 134.372 76.481C135.702 76.117 137.053 75.788 138.488 75.424C138.509 75.382 138.558 75.228 138.628 75.088C138.866 74.549 139.223 74.493 139.587 74.969C139.881 75.361 140.119 75.795 140.329 76.236C140.581 76.768 140.756 77.321 141.001 77.86C141.372 78.686 141.757 79.512 142.17 80.324C142.66 81.29 143.199 82.228 143.682 83.194C144.417 84.671 145.11 86.169 145.831 87.653C146.356 88.738 146.895 89.816 147.427 90.901C147.665 91.384 147.875 91.881 148.113 92.364C148.176 92.49 148.267 92.609 148.428 92.861C148.596 92.28 148.757 91.811 148.855 91.328C149.072 90.341 149.212 89.333 149.464 88.353C149.716 87.38 150.087 86.442 150.374 85.483C150.633 84.608 150.829 83.712 151.095 82.837C151.459 81.633 151.788 80.415 152.39 79.302C152.635 78.854 152.81 78.371 153.02 77.902C153.076 77.776 153.118 77.636 153.195 77.524C153.391 77.244 153.587 76.845 154.007 77.02C154.378 77.181 154.721 77.51 154.756 77.965C154.777 78.245 154.735 78.539 154.651 78.805C154.273 79.96 153.874 81.108 153.482 82.263C152.992 83.698 152.488 85.126 152.019 86.568C151.858 87.079 151.795 87.625 151.669 88.15C151.375 89.382 151.06 90.614 150.78 91.853C150.563 92.812 150.388 93.785 150.185 94.751C150.122 95.052 150.024 95.339 149.94 95.633C149.814 96.046 149.569 96.326 149.1 96.361C148.624 96.389 148.309 96.095 148.092 95.724C147.728 95.108 147.427 94.457 147.063 93.841C146.041 92.14 145.306 90.313 144.459 88.535C143.745 87.044 143.031 85.56 142.31 84.076C141.582 82.571 140.833 81.08 140.105 79.575C139.825 79.001 139.587 78.413 139.321 77.825C139.244 77.65 139.146 77.482 139.062 77.328C136.675 77.496 131.145 79.512 129.941 80.681C130.55 80.884 131.11 81.094 131.684 81.241C132.433 81.437 133.196 81.577 133.945 81.773C134.96 82.032 135.968 82.249 137.004 82.354C137.788 82.438 138.572 82.669 139.349 82.872C140.308 83.131 140.784 84.265 140.28 85.077C139.86 85.756 139.153 86.099 138.502 86.484C137.949 86.82 137.305 87.009 136.731 87.324C135.653 87.912 134.603 88.535 133.546 89.151C133.49 89.186 133.441 89.235 133.385 89.284C133.539 89.872 134.085 90.068 134.456 90.404C135.072 90.971 135.751 91.475 136.43 91.972C137.158 92.504 137.928 92.987 138.67 93.498C139.622 94.156 140.553 94.835 141.512 95.472C142.065 95.836 142.667 96.123 143.234 96.466C144.291 97.11 145.334 97.768 146.384 98.426C146.447 98.468 146.496 98.552 146.559 98.559C147.371 98.699 147.735 99.42 148.253 99.924C148.785 100.442 148.771 101.359 148.281 101.807C147.966 102.094 147.609 102.122 147.336 101.772C146.853 101.163 146.153 100.904 145.537 100.526C144.424 99.833 143.255 99.238 142.121 98.587C141.288 98.111 140.448 97.642 139.65 97.096C138.677 96.431 137.627 95.878 136.766 95.031C136.388 94.66 135.891 94.387 135.422 94.128C134.148 93.428 133.084 92.469 132.069 91.447C131.229 90.593 131.075 89.417 131.642 88.311C131.964 87.681 132.419 87.163 133.049 86.806C133.735 86.421 134.407 86.015 135.1 85.637C135.359 85.497 135.653 85.427 135.926 85.308C136.108 85.231 136.276 85.119 136.598 84.937C136.059 84.748 135.681 84.58 135.296 84.489C133.742 84.139 132.174 83.852 130.627 83.453C129.955 83.278 129.297 82.949 128.667 82.613C128.282 82.403 128.023 82.375 127.708 82.655C126.588 83.656 125.419 84.601 124.32 85.63C122.885 86.974 121.436 88.304 120.12 89.76C118.713 91.314 117.341 92.91 116.053 94.583C114.779 96.235 113.666 97.999 112.497 99.714C111.797 100.743 111.23 101.87 110.6 102.955C110.145 103.739 109.725 104.537 109.242 105.3C108.444 106.56 107.905 107.953 107.331 109.332C106.547 111.208 106.05 113.196 105.525 115.17C105.238 116.255 104.944 117.347 104.706 118.446C104.594 118.95 104.608 119.482 104.566 120.007C104.482 121.12 104.335 122.226 104.335 123.339C104.335 125.061 104.405 126.783 104.755 128.505C104.839 128.932 104.86 129.366 104.909 129.793C104.923 129.912 104.902 130.038 104.937 130.15C105.609 132.362 106.232 134.588 107.002 136.772C107.317 137.682 107.891 138.536 108.451 139.355C109.319 140.622 110.278 141.826 111.195 143.058C111.734 143.303 112 143.835 112.434 144.192C113.33 144.934 114.205 145.697 115.15 146.362C115.724 146.768 116.41 146.999 117.047 147.307C117.201 147.384 117.376 147.405 117.53 147.489C118.573 148.042 119.602 148.616 120.652 149.162C121.065 149.372 121.499 149.533 121.926 149.708C122.787 150.065 123.641 150.415 124.502 150.758C124.635 150.807 124.768 150.842 124.908 150.87C125.076 150.905 125.258 150.884 125.405 150.947C126.329 151.36 127.302 151.556 128.268 151.724C129.591 151.948 130.914 152.214 132.251 152.277C133.161 152.319 134.071 152.41 134.981 152.494C135.576 152.55 136.178 152.627 136.773 152.683C136.913 152.697 137.046 152.655 137.102 152.648C137.62 150.975 138.117 149.372 138.607 147.755C138.663 147.58 138.663 147.384 138.684 147.195C138.712 146.985 138.698 146.761 138.754 146.565C139.307 144.752 139.874 142.946 140.434 141.133C140.462 141.049 140.441 140.951 140.448 140.783C139.524 141.014 138.768 140.335 137.907 140.272C137.69 140.258 137.473 140.062 137.256 139.943C136.913 139.747 136.591 139.509 136.171 139.544C136.038 139.558 135.87 139.523 135.751 139.446C134.827 138.879 133.903 138.305 132.986 137.71C131.327 136.632 129.969 135.211 128.695 133.72C127.274 132.061 126.245 130.192 125.755 128.085C125.664 127.707 125.552 127.329 125.433 126.958C125.055 125.796 125.062 124.62 125.048 123.451C125.041 123.052 125.174 122.667 125.251 122.268C125.559 120.602 126.133 119.048 127.001 117.634C127.631 116.605 128.282 115.583 128.975 114.603C129.22 114.253 129.598 113.98 129.969 113.756C130.389 113.511 130.725 113.784 130.676 114.288C130.662 114.428 130.627 114.568 130.557 114.687C130.025 115.611 129.465 116.514 128.947 117.445C127.953 119.223 127.148 121.078 127.078 123.206C127.036 124.501 127.183 125.782 127.708 127.035C127.981 127.686 128.191 128.365 128.464 129.016C128.583 129.303 128.772 129.569 128.954 129.828C129.451 130.507 129.801 131.27 130.431 131.865C131.04 132.446 131.572 133.104 132.16 133.699C132.748 134.294 133.371 134.861 133.987 135.442C134.092 135.54 134.218 135.638 134.344 135.708C135.191 136.163 136.066 136.562 136.878 137.073C137.515 137.479 138.173 137.703 138.887 137.885C139.37 138.011 139.818 138.305 140.343 138.312C140.518 138.312 140.7 138.466 140.882 138.529C141.134 138.62 141.386 138.725 141.638 138.774C142.156 138.879 142.688 138.949 143.206 139.04C144.41 139.25 145.621 139.453 146.825 139.67C147.133 139.726 147.441 139.817 147.756 139.866C149.114 140.097 150.465 140.307 151.823 140.538C152.824 140.706 153.832 140.846 154.826 141.077C156.457 141.448 158.081 141.882 159.705 142.302C159.936 142.365 160.174 142.463 160.377 142.603C160.636 142.785 160.874 142.89 161.189 142.855C161.343 142.841 161.518 142.925 161.672 142.995C162.61 143.415 163.548 143.842 164.479 144.276C164.787 144.423 165.081 144.619 165.382 144.787C165.725 144.983 166.068 145.165 166.404 145.368C166.656 145.522 166.978 145.648 167.132 145.872C167.531 146.46 168.105 146.852 168.602 147.321C168.924 147.622 169.344 147.811 169.673 148.105C170.149 148.532 170.611 148.98 171.01 149.47C171.367 149.911 171.164 150.338 170.87 150.702C170.709 150.898 170.534 151.08 170.394 151.297C170.016 151.878 169.442 152.088 168.742 151.857C167.657 151.493 166.6 151.108 165.571 150.548C164.563 150.002 163.443 149.68 162.379 149.267C161.672 148.987 160.965 148.7 160.251 148.441C159.397 148.133 158.536 147.853 157.689 147.538C157.276 147.384 156.884 147.181 156.485 146.978C156.24 146.852 156.212 146.607 156.436 146.467C156.583 146.376 156.779 146.341 156.961 146.327C158.235 146.236 159.502 146.432 160.755 146.754C161.973 147.069 163.198 147.398 164.381 147.853C165.025 148.098 166.845 149.043 167.321 148.805C167.006 148.504 165.228 147.356 164.486 147.027ZM175.504 154.587C176.043 154.538 176.484 154.468 176.925 154.475C177.975 154.482 179.032 154.51 180.089 154.552C181.265 154.594 182.441 154.636 183.617 154.706C184.17 154.734 184.716 154.818 185.269 154.867C185.409 154.881 185.549 154.86 185.689 154.846C186.039 154.811 186.389 154.727 186.746 154.734C187.768 154.748 188.797 154.804 189.826 154.818C190.421 154.825 191.009 154.706 191.604 154.762C192.689 154.867 193.732 154.657 194.824 154.762C196.224 154.895 197.631 154.734 199.038 154.692C200.256 154.657 201.474 154.608 202.692 154.587C202.923 154.58 203.161 154.671 203.399 154.706C203.574 154.727 203.77 154.776 203.931 154.727C204.967 154.433 206.024 154.412 207.123 154.559C207.83 154.65 208.551 154.608 209.265 154.615C209.335 154.615 209.405 154.58 209.475 154.573C209.944 154.517 210.413 154.419 210.882 154.426C211.736 154.44 212.597 154.545 213.444 154.552C215.096 154.566 216.748 154.559 218.4 154.531C219.296 154.517 220.192 154.447 221.081 154.37C221.452 154.335 221.83 154.272 221.893 153.768C221.984 153.068 222.124 152.375 222.264 151.682C222.334 151.311 222.446 150.954 222.544 150.59C222.67 150.135 222.81 149.694 222.922 149.232C223.097 148.497 223.244 147.755 223.426 147.027C223.986 144.766 224.553 142.505 225.113 140.244C225.246 139.719 225.372 139.194 225.519 138.676C226.1 136.569 226.681 134.462 227.283 132.362C227.612 131.214 228.018 130.094 228.333 128.939C228.949 126.671 229.53 124.396 230.125 122.121C230.167 121.96 230.16 121.778 230.181 121.554C229.327 121.68 228.557 121.806 227.787 121.904C227.507 121.939 227.213 121.953 226.926 121.904C226.037 121.75 225.162 121.645 224.301 121.883C224.21 121.904 224.112 121.911 224.021 121.904C223.293 121.834 222.551 121.666 221.844 121.715C220.374 121.82 218.897 121.533 217.434 121.652C216.993 121.687 216.531 121.61 216.083 121.61C215.698 121.61 215.32 121.659 214.942 121.652C214.039 121.631 213.129 121.533 212.24 121.561C210.749 121.617 209.244 121.379 207.753 121.526C206.619 121.631 205.45 121.435 204.33 121.645C204.155 121.68 203.952 121.603 203.763 121.589C203.476 121.575 203.189 121.54 202.909 121.561C201.985 121.624 201.075 121.75 200.151 121.771C199.276 121.792 198.38 121.68 197.505 121.687C195.916 121.701 194.327 121.757 192.738 121.792C191.814 121.813 190.883 121.82 189.959 121.834C189.63 121.841 189.301 121.862 188.972 121.869C188.398 121.883 187.831 121.897 187.257 121.897C186.494 121.904 185.731 121.932 184.968 121.883C184.401 121.848 184.366 121.785 184.198 122.31C183.82 123.458 183.477 124.627 183.134 125.789C182.469 128.008 181.79 130.22 181.16 132.446C180.81 133.685 180.544 134.952 180.222 136.198C180.026 136.947 179.76 137.675 179.578 138.424C179.235 139.817 178.927 141.217 178.612 142.617C178.339 143.828 178.08 145.053 177.793 146.257C177.366 148.042 176.932 149.82 176.47 151.591C176.176 152.557 175.854 153.481 175.504 154.587Z" fill="#38312c"/>
<path d="M142.24 53.794C142.191 53.892 142.135 53.955 142.142 54.018C142.156 54.788 141.813 55.418 141.477 56.062C140.819 57.322 139.832 58.078 138.327 58.085C138.257 58.085 138.187 58.106 138.082 58.127C138.026 58.316 137.984 58.519 137.9 58.708C137.739 59.079 137.361 59.107 137.116 58.757C136.99 58.575 136.941 58.351 136.822 58.162C136.64 57.854 136.437 57.791 136.171 57.987C135.968 58.134 135.779 58.316 135.639 58.526C135.156 59.247 135.051 60.101 135.079 60.969C135.1 61.585 135.464 62.033 136.052 62.103C136.927 62.208 137.844 62.376 138.474 61.55C138.649 61.319 138.943 61.074 139.272 61.249C139.65 61.445 139.923 61.788 139.972 62.236C140.049 62.957 139.524 63.937 138.88 64.231C138.649 64.336 138.404 64.399 138.173 64.504C137.97 64.595 137.781 64.728 137.522 64.875C137.669 65.092 137.802 65.323 137.97 65.519C138.775 66.443 138.873 67.766 138.131 68.613C137.886 68.893 137.494 69.04 137.165 69.25C136.948 69.383 136.689 69.481 136.528 69.663C135.975 70.321 135.226 70.496 134.386 70.454C134.183 70.447 133.931 70.384 133.777 70.251C133.413 69.936 133 69.768 132.559 69.593C131.894 69.327 131.383 68.872 131.173 68.144C131.033 67.675 130.886 67.213 130.718 66.751C130.662 66.604 130.564 66.436 130.438 66.345C129.577 65.701 129.01 64.889 128.884 63.839C128.828 63.384 128.513 63.251 128.184 63.069C126.623 62.222 125.748 60.43 126.091 58.764C126.133 58.561 126.196 58.351 126.287 58.169C126.616 57.49 126.553 56.923 125.972 56.419C124.971 55.544 124.705 54.431 124.754 53.255C124.775 52.779 125.111 52.352 125.23 51.876C125.405 51.176 125.965 50.826 126.455 50.427C126.658 50.266 126.973 50.231 127.281 50.126C127.162 49.692 127.057 49.23 126.917 48.775C126.511 47.459 126.973 45.751 128.604 44.729C128.961 44.505 129.297 44.267 129.759 44.274C130.018 44.274 130.088 44.092 130.144 43.854C130.249 43.371 130.361 42.881 130.543 42.426C130.823 41.733 131.166 41.054 131.887 40.718C132.244 40.55 132.629 40.424 133.021 40.375C133.224 40.347 133.483 40.494 133.679 40.627C133.945 40.802 134.176 41.033 134.428 41.25C134.694 40.795 134.925 40.368 135.184 39.962C135.73 39.122 136.528 38.786 137.564 38.744C138.25 38.716 138.733 38.884 139.139 39.444C139.202 39.535 139.321 39.591 139.468 39.71C139.552 39.521 139.636 39.388 139.664 39.248C139.804 38.541 140.329 38.233 140.966 38.17C141.309 38.135 141.757 38.282 142.037 38.499C142.338 38.737 142.618 38.8 142.954 38.849C143.465 38.926 143.976 39.073 144.487 39.248C144.977 39.199 145.397 38.975 145.74 38.618C145.901 38.45 146.083 38.31 146.279 38.177C146.832 37.813 147.427 37.925 147.868 38.478C147.973 38.611 148.064 38.765 148.176 38.898C148.561 39.353 149.051 39.717 149.625 39.633C150.192 39.549 150.619 39.829 151.039 40.095C151.34 40.291 151.557 40.368 151.893 40.277C152.145 40.207 152.453 40.27 152.733 40.305C153.65 40.438 154.504 40.886 155.47 40.83C156.226 40.788 156.898 41.264 157.472 41.803C157.724 42.041 157.962 42.3 158.221 42.531C158.326 42.629 158.466 42.741 158.592 42.755C159.404 42.853 159.887 43.427 160.328 44.022C160.769 44.617 161.098 45.233 161.154 46.017C161.217 46.871 161.14 47.711 161.343 48.586C161.539 49.391 161.021 50.077 160.608 50.721C160.573 50.777 160.531 50.847 160.475 50.882C159.719 51.323 159.782 51.967 160.076 52.723C160.328 53.381 160.503 54.067 160.72 54.774C160.958 54.655 161.14 54.564 161.336 54.48C162.435 54.004 163.268 54.298 164.024 55.32C164.563 56.048 164.626 56.86 164.717 57.658C164.822 58.547 164.752 59.422 164.325 60.213C164.241 60.374 164.227 60.577 164.185 60.759C164.087 61.179 163.912 61.543 163.59 61.837C163.17 62.222 162.939 62.663 163.163 63.328C163.352 63.874 163.436 64.462 163.471 65.029C163.548 66.191 162.666 67.017 161.49 66.793C161.091 66.716 160.671 66.73 160.265 66.709C160.202 66.709 160.139 66.758 160.055 66.793C160.23 68.074 159.915 69.25 159.432 70.363C159.187 70.93 158.795 71.448 158.375 71.896C157.164 73.198 155.603 73.975 153.958 74.661C153.195 74.983 152.383 75.088 151.606 75.312C151.431 75.361 151.228 75.389 151.039 75.375C149.863 75.263 148.694 75.13 147.518 75.025C146.734 74.955 146.013 74.703 145.306 74.318C144.991 74.143 144.613 74.094 144.27 73.989C143.094 73.632 142.058 73.002 141.246 72.064C140.84 71.602 140.721 71 140.84 70.412C140.959 69.824 141.379 69.712 141.813 70.167C142.261 70.636 142.765 70.937 143.374 71.119C143.696 71.217 144.032 71.357 144.298 71.56C144.732 71.896 145.208 72.001 145.712 72.106C146.349 72.232 146.979 72.421 147.609 72.547C148.253 72.68 148.897 72.792 149.541 72.869C149.772 72.897 150.01 72.82 150.241 72.785C150.381 72.764 150.514 72.666 150.647 72.68C151.27 72.736 151.802 72.491 152.376 72.365C154.07 71.994 155.547 71.203 156.793 70.097C157.927 69.082 158.431 67.717 158.137 66.079C158.074 65.722 158.018 65.358 158.018 65.001C158.025 64.343 158.312 64.049 158.97 64.042C159.32 64.035 159.698 64.098 160.041 64.203C160.58 64.378 161.077 64.322 161.672 64.189C161.315 62.747 161.028 61.326 160.601 59.926C159.866 57.49 159.25 55.04 158.662 52.576C158.473 51.792 158.403 51.764 157.633 51.519C157.108 51.351 156.625 51.358 156.177 51.568C155.694 51.792 155.218 51.764 154.714 51.631C154.378 51.54 154.161 51.61 153.923 51.883C153.076 52.842 151.921 52.982 150.675 52.681C150.367 52.604 150.094 52.317 149.821 52.107C149.646 51.974 149.506 51.799 149.317 51.61C148.876 52.107 148.316 52.282 147.665 52.24C147.595 52.233 147.511 52.226 147.455 52.254C146.832 52.548 146.125 52.737 145.621 53.164C144.697 53.941 143.71 54.228 142.499 53.822C142.436 53.808 142.366 53.808 142.24 53.794ZM162.316 60.325C163.03 59.338 163.261 58.33 163.233 57.273C163.198 55.88 162.54 55.509 161.308 56.111C161.273 56.132 161.252 56.181 161.161 56.307C161.518 57.56 161.896 58.883 162.316 60.325ZM128.807 48.789C128.87 48.782 128.94 48.775 129.003 48.775C129.367 48.187 129.724 47.599 130.13 46.948C129.311 47.074 128.702 47.613 128.625 48.271C128.604 48.425 128.744 48.614 128.807 48.789ZM151.347 50.483C151.389 50.441 151.431 50.399 151.473 50.357C151.193 49.965 150.871 49.601 150.64 49.188C150.402 48.768 150.255 48.299 150.073 47.851C150.066 48.425 150.108 48.985 150.213 49.538C150.241 49.706 150.402 49.888 150.549 50C150.794 50.182 151.081 50.322 151.347 50.483ZM136.934 55.019C135.905 55.068 135.905 55.068 135.723 55.621C136.031 55.621 136.332 55.621 136.689 55.621C136.752 55.46 136.829 55.278 136.934 55.019ZM154.105 43.504C153.503 43.812 153.139 44.211 152.733 44.799C153.475 44.561 153.951 44.274 154.105 43.504ZM156.044 48.565C155.918 48.775 155.827 48.936 155.687 49.16C156.114 48.964 156.114 48.964 156.044 48.565Z" fill="#38312c"/>
<path d="M171.493 138.9C171.458 136.527 171.423 134.154 171.388 131.788C171.367 130.374 171.36 128.96 171.325 127.546C171.262 125.201 171.213 122.849 171.108 120.497C171.052 119.223 170.905 117.949 170.8 116.675C170.751 116.122 170.723 115.569 170.66 115.016C170.534 113.966 170.38 112.916 170.247 111.866C170.086 110.62 169.932 109.374 169.785 108.135C169.624 106.791 169.477 105.447 169.323 104.11C169.225 103.27 169.085 102.437 169.008 101.597C168.973 101.17 169.015 100.736 169.064 100.316C169.085 100.141 169.183 99.959 169.295 99.819C169.533 99.532 169.855 99.567 170.044 99.917C170.184 100.176 170.296 100.456 170.352 100.736C170.646 102.353 170.954 103.977 171.199 105.601C171.388 106.833 171.472 108.079 171.633 109.311C171.71 109.885 171.871 110.452 171.976 111.026C172.074 111.572 172.151 112.118 172.242 112.664C172.263 112.783 172.305 112.916 172.277 113.021C172.109 113.665 172.368 114.302 172.431 114.939C172.515 115.723 172.613 116.514 172.676 117.298C172.788 118.796 172.893 120.294 172.963 121.792C173.012 122.772 172.998 123.752 173.026 124.732C173.061 125.852 173.152 126.979 173.173 128.099C173.194 129.289 173.152 130.479 173.152 131.669C173.152 132.481 173.187 133.293 173.201 134.112C173.215 134.756 173.222 135.4 173.257 136.051C173.327 137.465 173.418 138.879 173.488 140.293C173.523 141.007 173.544 141.721 173.53 142.435C173.523 142.715 173.439 142.995 173.348 143.254C173.257 143.499 173.11 143.716 172.788 143.702C172.452 143.688 172.221 143.478 172.123 143.191C171.983 142.799 171.864 142.393 171.829 141.994C171.724 140.965 171.668 139.929 171.598 138.9C171.556 138.9 171.521 138.9 171.493 138.9Z" fill="#38312c"/>
<path d="M152.299 58.099C152.376 57.707 152.453 57.343 152.516 56.972C152.74 55.74 153.342 54.732 154.259 53.955C155.526 52.877 157.038 53.136 158.151 54.571C159.362 56.132 159.852 57.868 159.614 59.765C159.46 60.962 159.138 62.075 158.424 63.013C158.004 63.559 157.535 64.056 156.765 64.182C156.03 64.301 155.358 64.126 154.777 63.671C153.993 63.055 153.286 62.355 152.978 61.368C152.88 61.046 152.719 60.738 152.558 60.353C151.725 60.43 150.906 60.507 150.094 60.584C148.869 60.696 147.651 60.934 146.426 60.885C144.949 60.829 143.458 60.892 141.974 60.549C141.547 60.451 141.113 60.437 140.686 60.36C140.399 60.304 140.105 60.206 140.042 59.842C139.993 59.541 140.175 59.163 140.532 59.086C141.197 58.939 141.883 58.869 142.555 58.778C143.521 58.638 144.508 58.708 145.481 58.666C147.042 58.596 148.589 58.372 150.143 58.232C150.843 58.176 151.55 58.148 152.299 58.099ZM153.657 59.142C153.622 59.912 153.916 60.556 154.392 61.172C155.19 62.208 156.45 62.313 157.171 61.347C158.102 60.094 158.235 58.708 157.591 57.175C157.388 56.699 157.073 56.349 156.674 56.041C156.359 55.796 156.051 55.768 155.736 55.929C155.022 56.286 154.343 56.685 154.126 57.546C154.098 57.658 154.063 57.791 153.986 57.861C153.573 58.204 153.594 58.673 153.657 59.142Z" fill="#38312c"/>
<path d="M222.124 63.895C222.054 64.056 222.005 64.357 221.837 64.546C221.144 65.323 220.423 66.072 219.702 66.814C219.191 67.339 218.673 67.864 218.127 68.354C217.665 68.767 217.168 69.145 216.664 69.502C215.985 69.978 215.292 70.447 214.571 70.874C213.738 71.371 212.898 71.868 212.016 72.281C211.344 72.596 210.609 72.792 209.888 73.009C209.587 73.1 209.265 73.03 209.027 72.75C208.803 72.484 208.824 72.169 208.978 71.938C209.174 71.637 209.419 71.322 209.727 71.161C210.889 70.531 212.142 70.041 213.241 69.334C214.305 68.648 215.474 68.088 216.37 67.157C217.056 66.443 217.84 65.827 218.561 65.148C219.184 64.56 219.772 63.944 220.381 63.356C220.549 63.195 220.731 63.055 220.927 62.922C221.452 62.572 221.816 62.712 221.998 63.342C222.033 63.482 222.054 63.629 222.124 63.895Z" fill="#38312c"/>
<path d="M212.345 75.249C211.722 75.235 211.407 74.899 211.435 74.395C211.47 73.821 211.855 73.555 212.331 73.345C212.646 73.205 212.94 73.037 213.241 72.876C213.346 72.82 213.437 72.75 213.542 72.701C214.319 72.295 215.096 71.896 215.88 71.49C216.104 71.371 216.342 71.273 216.559 71.14C217.665 70.475 218.785 69.831 219.793 69.019C220.458 68.48 221.151 67.99 221.844 67.486C222.306 67.15 222.74 67.325 222.95 67.913C223.244 68.732 223.153 69.215 222.544 69.684C221.725 70.321 220.92 70.979 220.038 71.525C218.624 72.4 217.196 73.275 215.684 73.968C214.858 74.346 214.074 74.885 213.094 74.962C212.779 74.983 212.513 75.179 212.345 75.249Z" fill="#38312c"/>
<path d="M154.581 70.139C153.195 70.048 151.935 69.642 150.948 68.571C150.584 68.179 150.311 67.696 150.066 67.22C149.94 66.975 149.926 66.646 149.954 66.373C149.982 66.072 150.101 65.778 150.458 65.694C150.787 65.617 150.934 65.862 151.109 66.065C151.557 66.583 152.11 66.94 152.74 67.192C153.104 67.339 153.44 67.549 153.811 67.668C154.287 67.822 154.777 67.941 155.239 67.64C155.519 67.458 155.757 67.563 155.974 67.857C156.541 68.613 156.296 69.635 155.456 69.908C155.176 69.999 154.875 70.062 154.581 70.139Z" fill="#38312c"/>
<path d="M175.504 154.587C175.847 153.481 176.176 152.557 176.428 151.612C176.897 149.841 177.324 148.063 177.751 146.278C178.038 145.067 178.297 143.849 178.57 142.638C178.885 141.238 179.193 139.838 179.536 138.445C179.718 137.696 179.984 136.968 180.18 136.219C180.502 134.973 180.768 133.699 181.118 132.467C181.748 130.241 182.427 128.022 183.092 125.81C183.442 124.648 183.785 123.486 184.156 122.331C184.331 121.806 184.359 121.862 184.926 121.904C185.689 121.953 186.452 121.918 187.215 121.918C187.789 121.911 188.356 121.897 188.93 121.89C189.259 121.883 189.588 121.862 189.917 121.855C190.841 121.841 191.772 121.834 192.696 121.813C194.285 121.778 195.874 121.722 197.463 121.708C198.345 121.701 199.234 121.813 200.109 121.792C201.033 121.771 201.95 121.645 202.867 121.582C203.147 121.561 203.434 121.589 203.721 121.61C203.91 121.624 204.113 121.694 204.288 121.666C205.415 121.456 206.584 121.652 207.711 121.547C209.195 121.407 210.707 121.638 212.198 121.582C213.094 121.547 214.004 121.645 214.9 121.673C215.285 121.68 215.663 121.631 216.041 121.631C216.489 121.631 216.951 121.708 217.392 121.673C218.855 121.554 220.339 121.841 221.802 121.736C222.509 121.687 223.251 121.855 223.979 121.925C224.07 121.932 224.175 121.925 224.259 121.904C225.12 121.666 225.995 121.764 226.884 121.925C227.164 121.974 227.465 121.96 227.745 121.925C228.515 121.827 229.285 121.701 230.139 121.575C230.118 121.799 230.125 121.981 230.083 122.142C229.495 124.417 228.914 126.692 228.291 128.96C227.976 130.115 227.57 131.235 227.241 132.383C226.639 134.483 226.058 136.59 225.477 138.697C225.33 139.215 225.204 139.74 225.071 140.265C224.504 142.526 223.937 144.787 223.384 147.048C223.202 147.776 223.062 148.525 222.88 149.253C222.768 149.708 222.628 150.156 222.502 150.611C222.404 150.975 222.299 151.332 222.222 151.703C222.082 152.396 221.942 153.089 221.851 153.789C221.788 154.293 221.41 154.356 221.039 154.391C220.15 154.468 219.254 154.538 218.358 154.552C216.706 154.58 215.054 154.587 213.402 154.573C212.548 154.566 211.687 154.454 210.84 154.447C210.364 154.44 209.902 154.538 209.433 154.594C209.363 154.601 209.293 154.636 209.223 154.636C208.509 154.622 207.788 154.671 207.081 154.58C205.982 154.433 204.925 154.461 203.889 154.748C203.728 154.79 203.532 154.748 203.357 154.727C203.119 154.699 202.881 154.608 202.65 154.608C201.432 154.629 200.214 154.678 198.996 154.713C197.589 154.755 196.182 154.916 194.782 154.783C193.69 154.678 192.64 154.888 191.562 154.783C190.974 154.727 190.379 154.846 189.784 154.839C188.762 154.832 187.733 154.769 186.704 154.755C186.347 154.748 185.997 154.832 185.647 154.867C185.507 154.881 185.367 154.902 185.227 154.888C184.674 154.839 184.121 154.755 183.575 154.727C182.399 154.664 181.223 154.615 180.047 154.573C178.99 154.538 177.94 154.503 176.883 154.496C176.484 154.468 176.05 154.538 175.504 154.587ZM208.285 126.58C207.655 126.363 207.256 126.755 206.871 127.056C205.583 128.064 205.226 129.429 206.08 131.032C206.346 131.529 206.738 131.816 207.333 131.704C207.725 131.634 208.152 131.683 208.516 131.557C209.223 131.312 209.916 131.032 210.287 130.311C210.735 129.429 210.588 128.519 210.063 127.707C209.671 127.105 209.223 126.349 208.285 126.58Z" fill="url(#paint1_linear_10246_11542)"/>
<path d="M162.316 60.325C161.896 58.876 161.518 57.56 161.154 56.307C161.245 56.181 161.266 56.132 161.301 56.111C162.533 55.509 163.191 55.88 163.226 57.273C163.254 58.337 163.03 59.345 162.316 60.325Z" fill="white"/>
<path d="M153.657 59.142C153.594 58.673 153.573 58.204 153.986 57.854C154.063 57.784 154.098 57.651 154.126 57.539C154.336 56.678 155.015 56.279 155.736 55.922C156.051 55.761 156.366 55.796 156.674 56.034C157.073 56.342 157.388 56.699 157.591 57.168C158.235 58.701 158.102 60.087 157.171 61.34C156.45 62.306 155.183 62.201 154.392 61.165C153.916 60.556 153.622 59.919 153.657 59.142ZM155.218 59.156C155.225 59.191 155.246 59.387 155.316 59.569C155.449 59.919 155.736 60.108 156.086 60.199C156.45 60.297 156.667 60.101 156.856 59.849C157.374 59.142 157.346 58.47 156.751 57.756C156.492 57.448 156.114 57.336 155.876 57.609C155.54 57.994 155.12 58.372 155.218 59.156Z" fill="white"/>
<path d="M208.285 126.58C209.223 126.349 209.671 127.105 210.063 127.714C210.588 128.526 210.735 129.436 210.287 130.318C209.916 131.039 209.223 131.319 208.516 131.564C208.152 131.69 207.725 131.641 207.333 131.711C206.738 131.823 206.346 131.529 206.08 131.039C205.219 129.443 205.583 128.071 206.871 127.063C207.256 126.762 207.655 126.363 208.285 126.58Z" fill="#38312c"/>
<path d="M155.218 59.156C155.12 58.372 155.547 58.001 155.883 57.609C156.121 57.336 156.499 57.448 156.758 57.756C157.353 58.47 157.381 59.142 156.863 59.849C156.674 60.101 156.457 60.297 156.093 60.199C155.743 60.108 155.456 59.919 155.323 59.569C155.246 59.387 155.225 59.191 155.218 59.156Z" fill="#38312c"/>
<path d="M195.993 39.1659C196.084 39.9989 196.203 40.7689 196.245 41.5389C196.35 43.6039 196.399 45.6759 196.504 47.7409C196.588 49.2879 196.679 50.8349 196.868 52.3679C196.98 53.2709 197.274 54.1529 197.526 55.0279C197.603 55.2939 197.799 55.5319 197.988 55.7489C198.317 56.1199 198.618 56.1339 198.982 55.7769C199.22 55.5319 199.444 55.5389 199.752 55.5669C200.375 54.9229 200.812 53.6104 198.877 53.1239C198.744 52.3049 198.562 51.5419 198.499 50.7649C198.345 48.7769 198.24 46.7819 198.121 44.7939C198.079 44.0589 198.107 43.3239 198.023 42.5959C197.869 41.2939 197.659 39.9989 197.456 38.7109C197.414 38.4519 197.4 38.2419 197.526 37.9759C197.659 37.6889 197.666 37.3109 197.617 36.9889C197.554 36.5479 197.239 36.3869 196.805 36.4779C196.147 36.6179 195.468 36.7159 194.831 36.9259C193.718 37.2829 192.584 37.6399 191.527 38.1299C190.015 38.8369 188.559 39.6629 187.089 40.4539C186.858 40.5799 186.662 40.7549 186.431 40.8879C186.123 41.0699 185.801 41.2239 185.423 41.4269C185.346 41.1609 185.283 40.9929 185.255 40.8249C184.8 38.0039 184.401 35.1759 183.876 32.3689C183.477 30.2339 182.91 28.1339 182.427 26.0129C182.315 25.5019 182.231 24.9909 182.161 24.4729C182.084 23.8779 181.888 23.7309 181.286 23.7519C180.348 23.7869 179.501 24.1719 178.654 24.4939C177.457 24.9489 176.302 25.5229 175.161 26.1039C174.23 26.5799 173.313 27.0979 172.55 27.8399C172.151 28.2319 171.913 28.6729 171.962 29.2399C172.018 29.8139 172.382 30.0169 172.893 29.7649C174.223 29.0929 175.546 28.3999 176.883 27.7419C177.464 27.4549 178.087 27.2379 178.689 26.9859C179.242 26.7479 179.781 26.4959 180.334 26.2579C180.446 26.2089 180.579 26.1949 180.754 26.1459C180.866 26.7199 180.985 27.2519 181.069 27.7909C181.244 28.9319 181.398 30.0729 181.573 31.2139C181.748 32.3269 181.951 33.4329 182.119 34.5459C182.287 35.6589 182.399 36.7859 182.567 37.8989C182.686 38.6479 182.854 39.3899 183.015 40.1319C183.19 40.9789 183.358 41.8259 183.568 42.6659C183.638 42.9599 183.778 43.2679 183.967 43.4989C184.261 43.8629 184.485 43.8489 184.912 43.6249C185.353 43.4009 185.801 43.1909 186.256 43.0089C187.005 42.7079 187.782 42.4769 188.517 42.1479C189.245 41.8259 189.931 41.3989 190.666 41.0699C191.331 40.7689 192.024 40.5239 192.717 40.2789C193.767 39.9079 194.824 39.5649 195.993 39.1659Z" fill="#38312c"/>
<path d="M186.83 39.0819C187.978 39.7679 188.762 40.6989 188.811 41.9099C188.839 42.6309 188.944 43.4079 188.328 44.0239C187.782 44.5699 187.215 45.1089 186.557 45.5569C185.465 46.3059 184.17 46.1309 183.316 45.5499C182.189 44.7799 181.671 43.7089 181.734 42.4769C181.755 42.0849 181.769 41.6859 181.86 41.3009C182.245 39.6909 183.113 38.7669 185.332 38.6549C185.843 38.7949 186.417 38.8439 186.83 39.0819ZM175.231 29.8349C175.161 28.2459 174.643 27.1749 173.502 26.3419C172.004 25.2429 170.191 25.9989 169.407 27.1539C168.798 28.0569 168.588 29.0509 169.029 30.0939C169.155 30.3879 169.225 30.6959 169.323 30.9969C169.47 31.4659 169.68 31.8789 170.212 32.1029C170.359 32.1659 170.492 32.2919 170.597 32.4109C171.255 33.1319 172.158 32.9499 173.005 32.9709C173.054 32.9709 173.117 32.9429 173.159 32.9079C174.286 31.9979 175.399 31.0949 175.231 29.8349ZM200.207 37.7519C200.088 36.5619 199.71 35.3999 198.373 34.6719C197.526 34.2099 196.686 34.1959 195.86 34.6369C194.635 35.2949 193.137 37.0869 193.893 38.9209C194.46 40.2999 195.671 41.2099 197.239 41.1749C197.589 41.1679 197.946 40.9859 198.268 40.8319C199.339 40.3279 200.249 38.9139 200.207 37.7519ZM198.786 51.5069C196.203 51.6399 195.314 52.8999 195.342 54.9859C195.356 55.7769 195.629 56.5119 196.343 57.1069C197.232 57.8489 198.436 58.0519 199.395 57.3869C200.109 56.8899 200.774 56.2949 201.299 55.6439C202.132 54.6149 201.439 52.5149 200.165 51.9339C199.269 51.5139 199.269 51.5139 198.786 51.5069Z" fill="url(#paint2_linear_10246_11542)"/>
<rect x="140" y="182" width="16" height="2" fill="#dfe6e0"/>
<rect x="160" y="182" width="16" height="2" fill="#38312c"/>
<rect x="180" y="182" width="16" height="2" fill="#dfe6e0"/>
<defs>
<linearGradient id="paint0_linear_10246_11542" x1="167.5" y1="2.86586e-06" x2="105.009" y2="178.07" gradientUnits="userSpaceOnUse">
<stop stop-color="#f5eee9"/>
<stop offset="1" stop-color="#f1f5e9"/>
</linearGradient>
<linearGradient id="paint1_linear_10246_11542" x1="186.126" y1="154.893" x2="219.517" y2="121.501" gradientUnits="userSpaceOnUse">
<stop stop-color="#779d7c"/>
<stop offset="1" stop-color="#c6a673"/>
</linearGradient>
<linearGradient id="paint2_linear_10246_11542" x1="168.794" y1="41.7984" x2="201.662" y2="41.7984" gradientUnits="userSpaceOnUse">
<stop stop-color="#779d7c"/>
<stop offset="1" stop-color="#c6a673"/>
</linearGradient>
</defs>
</svg>
