<svg width="335" height="200" viewBox="0 0 335 200" fill="none" xmlns="http://www.w3.org/2000/svg">
<path d="M0 16C0 7.16344 7.16344 0 16 0H319C327.837 0 335 7.16344 335 16V184C335 192.837 327.837 200 319 200H16C7.16345 200 0 192.837 0 184V16Z" fill="url(#paint0_linear_10246_11567)"/>
<path d="M110.376 75.7572C111.459 79.9845 113.576 83.7963 115.041 87.8924C115.386 88.8604 116.512 89.8229 117.622 89.3581C122.818 87.1979 127.685 84.4198 132.59 81.6799C134.952 80.3619 132.841 76.7306 130.468 78.0542C125.891 80.6081 121.352 83.2933 116.501 85.3112C117.359 85.7979 118.223 86.2901 119.082 86.7769C117.622 82.6862 115.495 78.8637 114.417 74.6417C113.756 72.0167 109.704 73.1322 110.376 75.7572Z" fill="#38312c"/>
<path d="M205.861 107.816C209.711 105.262 213.616 102.801 217.526 100.351C216.569 100.099 215.612 99.8479 214.655 99.5963C216.667 103.14 218.51 106.684 219.112 110.764C219.505 113.432 223.552 112.295 223.164 109.648C222.513 105.24 220.462 101.314 218.286 97.48C217.733 96.5065 216.377 96.1237 215.415 96.7253C211.499 99.1753 207.594 101.642 203.75 104.19C201.497 105.678 203.597 109.314 205.861 107.816Z" fill="#38312c"/>
<path d="M120.1 85.4648C122.522 62.4026 143.992 45.2918 166.338 44.2572C185.921 43.3494 198.904 58.82 210.312 72.4812C212.051 74.5648 215.004 71.5734 213.281 69.5117C199.637 53.1709 185.368 38.3561 162.433 40.3147C139.175 42.3053 118.35 62.1519 115.9 85.4647C115.621 88.1608 119.821 88.1335 120.1 85.4648Z" fill="#38312c"/>
<path d="M120.389 114.061C132.443 131.298 151.364 147.689 174.032 144.385C195.7 141.235 214.938 123.752 218.493 101.892C218.925 99.2456 214.878 98.1081 214.441 100.777C211.192 120.77 194.382 136.33 174.77 140.069C153.518 144.121 135.226 127.978 124.009 111.943C122.472 109.739 118.83 111.834 120.389 114.06L120.389 114.061Z" fill="#38312c"/>
<path d="M197.967 92.4612C197.782 100.713 195.691 108.274 189.958 114.541C186.139 118.716 181.217 120.772 175.868 121.768C171.814 122.522 167.638 123.077 163.534 122.991C157.61 122.863 152.474 120.189 148.007 116.383C143.619 112.642 140.311 107.982 137.957 102.775C136.229 98.9556 135.809 94.7659 136.072 90.5335C136.506 83.6052 138.896 77.4095 142.9 71.8043C146.4 66.9103 151.165 63.7876 156.856 61.9808C162.475 60.2025 168.222 59.3987 174.019 60.5084C177.006 61.0775 179.808 62.5784 182.725 63.56C185.577 64.5203 187.76 66.4835 189.418 68.7527C193.892 74.8985 197.263 81.5921 197.96 89.3385C198.045 90.377 197.967 91.4226 197.967 92.4612Z" fill="url(#paint1_linear_10246_11567)"/>
<g transform="translate(152, 75) scale(1.3)" stroke="#38312c" stroke-width="2" stroke-linecap="round" stroke-linejoin="round" fill="none">
  <path d="m18 2 4 4" />
  <path d="m17 7 3-3" />
  <path d="M19 9 8.7 19.3c-1 1-2.5 1-3.4 0l-.6-.6c-1-1-1-2.5 0-3.4L15 5" />
  <path d="m9 11 4 4" />
  <path d="m5 19-3 3" />
  <path d="m14 4 6 6" />
</g>
<rect x="140" y="182" width="16" height="2" fill="#38312c"/>
<rect x="160" y="182" width="16" height="2" fill="#dfe6e0"/>
<rect x="180" y="182" width="16" height="2" fill="#dfe6e0"/>
<defs>
<linearGradient id="paint0_linear_10246_11567" x1="166.932" y1="-1.93341e-06" x2="104.858" y2="178.177" gradientUnits="userSpaceOnUse">
<stop stop-color="#f5eee9"/>
<stop offset="1" stop-color="#f1f5e9"/>
</linearGradient>
<linearGradient id="paint1_linear_10246_11567" x1="136" y1="122.502" x2="198.005" y2="60.5023" gradientUnits="userSpaceOnUse">
<stop stop-color="#779d7c"/>
<stop offset="1" stop-color="#c6a673"/>
</linearGradient>
</defs>
</svg>
