<svg width="335" height="200" viewBox="0 0 335 200" fill="none" xmlns="http://www.w3.org/2000/svg">
<path d="M0 16C0 7.16344 7.16344 0 16 0H319C327.837 0 335 7.16344 335 16V184C335 192.837 327.837 200 319 200H16C7.16345 200 0 192.837 0 184V16Z" fill="url(#paint0_linear_10246_11502)"/>
<path d="M180.78 105.64C180.78 110.239 182.108 116.739 176.596 117.954C174.064 117.494 172.553 117.201 170.015 117.619C166.26 118.225 164.234 118.372 160.479 118.184C157.044 117.995 151.734 119.71 147.477 119.71C144.2 119.71 141.86 116.522 141.234 114.051C140.16 95.7575 143.099 77.6512 143.608 59.7386C144.079 49.6512 141.698 39.5958 145.108 38.7386C153.999 36.5046 154.234 40.0508 163.734 40.0508C167.95 40.0508 177.251 40.2225 178.956 40.4316C181.234 41.0508 180.699 43.5508 180.699 46.2227C181.491 65.2519 180.912 86.3446 180.78 105.64Z" fill="url(#paint1_linear_10246_11502)"/>
<path d="M158.292 72.3248C162.619 76.5279 162.067 72.6751 164.188 72.1205C166.858 71.4273 168.702 73.8353 167.743 76.5279C166.814 79.133 165.161 81.2784 163.193 83.1829C162.337 84.0075 161.555 84.8175 161.116 86.0069C160.735 87.0358 159.594 87.4152 158.914 86.4155C156.887 83.431 154.459 80.607 154.034 76.8125C153.764 74.3753 155.085 71.5 158.292 72.3248Z" fill="#e74c3c"/>
<path d="M184.458 76.2753C184.968 76.3056 185.846 69.4222 186.37 58.2441C186.5 55.4494 186.608 52.3864 186.671 49.093C186.703 47.4463 186.719 45.7413 186.722 43.9828C186.716 43.1024 186.717 42.2106 186.7 41.3029C186.692 40.849 186.685 40.3923 186.676 39.9325C186.666 39.461 186.645 38.9557 186.589 38.424C186.532 37.8915 186.441 37.3275 186.259 36.7316C186.073 36.1375 185.785 35.5024 185.331 34.919C185.215 34.7758 185.092 34.6342 184.961 34.5007C184.823 34.3721 184.691 34.2376 184.539 34.1234C184.241 33.888 183.924 33.6954 183.609 33.5421C182.975 33.2343 182.364 33.078 181.81 32.9644C181.532 32.9083 181.266 32.8643 181.013 32.825C180.77 32.7888 180.525 32.7527 180.28 32.7164C179.793 32.6453 179.303 32.5738 178.811 32.502C177.825 32.3711 176.831 32.2286 175.825 32.1107C171.804 31.6129 167.621 31.238 163.33 31.0082C159.038 30.7778 154.839 30.7095 150.787 30.7719C149.774 30.7919 148.77 30.8103 147.777 30.8468C147.278 30.8635 146.793 30.8762 146.276 30.9016C145.761 30.9306 145.245 30.9634 144.718 31.0236C144.193 31.0834 143.663 31.1579 143.125 31.2738C142.59 31.3821 142.047 31.5339 141.508 31.731C140.968 31.92 140.43 32.1902 139.915 32.5032C139.399 32.8272 138.917 33.2281 138.489 33.6827C138.384 33.7985 138.287 33.9215 138.188 34.0416L138.042 34.2235C137.996 34.2863 137.953 34.3512 137.909 34.4151C137.82 34.543 137.736 34.6727 137.662 34.8061C137.583 34.9381 137.509 35.071 137.445 35.2062C137.176 35.7446 136.988 36.2923 136.855 36.823C136.591 37.8873 136.524 38.8832 136.491 39.8036C136.475 40.2662 136.47 40.7024 136.464 41.133C136.458 41.5653 136.452 41.994 136.447 42.4196C136.441 43.2702 136.435 44.1073 136.429 44.9305C136.418 48.2221 136.45 51.2864 136.514 54.084C136.643 59.679 136.895 64.2058 137.203 67.3287C137.509 70.4523 137.855 72.1669 138.11 72.153C138.373 72.139 138.52 70.4072 138.664 67.291C138.805 64.1748 138.958 59.6691 139.168 54.1039C139.274 51.3214 139.395 48.274 139.541 45.0053C139.579 44.1885 139.617 43.3576 139.656 42.5135C139.677 42.0918 139.697 41.6667 139.719 41.2383C139.74 40.8085 139.759 40.3775 139.787 39.9673C139.842 39.1446 139.934 38.3631 140.126 37.6863C140.222 37.3486 140.343 37.0398 140.489 36.7679C140.524 36.6974 140.564 36.633 140.604 36.5703C140.642 36.5042 140.685 36.4439 140.73 36.3855L140.794 36.2958L140.869 36.2131C140.919 36.1582 140.964 36.0993 141.015 36.0451C141.229 35.8374 141.466 35.6443 141.746 35.4778C142.034 35.3188 142.339 35.1634 142.696 35.0507C143.046 34.9324 143.423 34.8325 143.826 34.7607C144.224 34.6824 144.647 34.6312 145.081 34.5902C145.515 34.5483 145.969 34.5279 146.428 34.5099C146.886 34.4951 147.381 34.4898 147.867 34.4812C148.843 34.4607 149.829 34.4565 150.823 34.4493C154.801 34.4376 158.918 34.5306 163.129 34.7567C167.34 34.9823 171.445 35.3238 175.398 35.7635C176.387 35.8667 177.364 35.9929 178.334 36.1062C178.818 36.1688 179.3 36.231 179.779 36.293C180.017 36.3239 180.254 36.3547 180.491 36.3855C180.719 36.4166 180.931 36.4483 181.127 36.4841C181.52 36.5545 181.846 36.6446 182.075 36.7512C182.307 36.8601 182.436 36.9585 182.574 37.1177C182.705 37.2776 182.83 37.5022 182.931 37.7951C183.031 38.0901 183.103 38.4439 183.154 38.8266C183.205 39.211 183.235 39.6217 183.257 40.0602C183.277 40.5105 183.298 40.958 183.318 41.4025C183.361 42.2913 183.387 43.1727 183.421 44.0394C183.476 45.776 183.523 47.4642 183.558 49.0985C183.63 52.367 183.675 55.4163 183.716 58.201C183.872 69.3422 183.933 76.2457 184.457 76.2755L184.458 76.2753Z" fill="#38312c"/>
<path d="M184.986 109.209C184.729 109.204 184.463 110.244 184.281 112.127C184.187 113.066 184.119 114.216 184.026 115.521C183.978 116.172 183.921 116.862 183.832 117.57C183.788 117.925 183.735 118.283 183.666 118.639C183.599 118.996 183.516 119.351 183.411 119.692C183.204 120.377 182.907 121.004 182.488 121.455C182.434 121.509 182.385 121.57 182.326 121.618C182.269 121.67 182.216 121.722 182.144 121.776C182.013 121.885 181.87 121.985 181.721 122.082C181.421 122.274 181.085 122.44 180.714 122.58C179.972 122.861 179.099 123.039 178.144 123.154C177.668 123.213 177.162 123.252 176.644 123.293C176.127 123.328 175.602 123.36 175.067 123.381C172.931 123.472 170.661 123.439 168.275 123.375C165.886 123.307 163.387 123.239 160.84 123.189C155.74 123.085 150.88 123.039 146.459 123.045C145.354 123.049 144.276 123.054 143.229 123.058C142.71 123.062 142.199 123.066 141.696 123.07C141.218 123.072 140.763 123.061 140.332 123.028C139.47 122.969 138.716 122.801 138.178 122.53C137.909 122.395 137.692 122.241 137.526 122.053C137.475 122.012 137.448 121.953 137.406 121.906C137.363 121.859 137.328 121.807 137.295 121.754C137.229 121.646 137.17 121.524 137.118 121.39C136.906 120.851 136.832 120.128 136.76 119.374C136.686 118.623 136.61 117.915 136.536 117.255C136.463 116.602 136.394 115.994 136.331 115.434C136.276 114.874 136.226 114.363 136.18 113.903C135.998 112.034 135.777 110.99 135.518 110.985C135.259 110.981 134.987 112.004 134.719 113.873C134.654 114.341 134.589 114.867 134.542 115.452C134.495 116.037 134.465 116.665 134.439 117.331C134.413 117.998 134.392 118.709 134.373 119.462C134.364 119.836 134.354 120.245 134.372 120.693C134.394 121.143 134.438 121.634 134.58 122.167C134.65 122.433 134.744 122.707 134.87 122.981C134.935 123.119 135.005 123.254 135.088 123.383C135.171 123.512 135.242 123.651 135.341 123.771C135.706 124.28 136.194 124.704 136.711 125.028C137.23 125.353 137.78 125.585 138.329 125.757C138.879 125.93 139.429 126.042 139.975 126.121C140.52 126.2 141.064 126.248 141.601 126.28C142.113 126.305 142.634 126.332 143.162 126.358C144.208 126.405 145.285 126.453 146.389 126.503C150.806 126.687 155.663 126.839 160.763 126.942C163.317 126.993 165.796 127.034 168.216 127.052C170.639 127.067 173.013 127.028 175.288 126.833C175.857 126.786 176.419 126.726 176.974 126.66C177.526 126.59 178.078 126.518 178.637 126.418C179.749 126.219 180.873 125.933 181.941 125.441C182.473 125.195 182.989 124.894 183.462 124.535C183.697 124.354 183.924 124.164 184.134 123.957C184.241 123.86 184.346 123.744 184.449 123.629C184.556 123.518 184.646 123.395 184.74 123.276C185.106 122.794 185.376 122.279 185.574 121.778C185.771 121.275 185.9 120.783 185.992 120.313C186.084 119.842 186.138 119.391 186.169 118.959C186.203 118.527 186.215 118.113 186.215 117.716C186.216 116.921 186.176 116.19 186.124 115.514C186.017 114.163 185.872 113.026 185.742 112.096C185.475 110.241 185.247 109.213 184.985 109.209L184.986 109.209Z" fill="#38312c"/>
<path d="M213.012 118.648C213.069 118.567 212.849 118.281 212.386 117.816C211.912 117.364 211.238 116.677 210.388 115.794C210.182 115.567 209.964 115.327 209.736 115.075C209.621 114.95 209.504 114.822 209.384 114.691C209.271 114.553 209.155 114.412 209.037 114.268C208.8 113.982 208.553 113.684 208.296 113.374C208.054 113.051 207.803 112.717 207.544 112.37C206.523 110.971 205.45 109.316 204.437 107.389C203.423 105.463 202.467 103.27 201.636 100.846C201.537 100.541 201.436 100.234 201.335 99.9243C201.235 99.6142 201.125 99.3049 201.037 98.9849C200.944 98.667 200.85 98.3463 200.756 98.0235C200.709 97.862 200.662 97.6999 200.615 97.5372C200.573 97.3729 200.53 97.208 200.488 97.0425C200.402 96.7118 200.316 96.3786 200.229 96.0433C200.141 95.7082 200.073 95.3652 199.992 95.0231C199.916 94.6796 199.833 94.337 199.76 93.9867C199.689 93.6355 199.617 93.2819 199.545 92.9259C198.977 90.0701 198.514 86.9808 197.648 83.7732C197.213 82.1724 196.668 80.5427 195.929 78.943C195.748 78.5422 195.536 78.1507 195.338 77.7524C195.118 77.3619 194.9 76.9757 194.663 76.5831C194.167 75.793 193.592 75.0264 192.871 74.3291C192.514 73.9795 192.116 73.6526 191.675 73.3636C191.237 73.0748 190.755 72.8184 190.225 72.6415C189.699 72.464 189.136 72.3478 188.567 72.3363C187.997 72.3346 187.414 72.3918 186.881 72.5706C186.813 72.591 186.744 72.6086 186.679 72.6323L186.485 72.7091C186.358 72.7625 186.226 72.8102 186.104 72.8715C185.862 72.9973 185.618 73.1208 185.401 73.2739C184.951 73.5633 184.563 73.9104 184.212 74.2777C183.52 75.0206 182.997 75.8645 182.644 76.77C182.459 77.2182 182.332 77.6943 182.233 78.1666C182.15 78.6231 182.089 79.0796 182.067 79.5281C182.012 80.4283 182.078 81.2925 182.181 82.118C182.398 83.7677 182.803 85.2553 183.079 86.6605C184.264 92.3224 184.607 97.576 184.682 101.987C184.717 104.195 184.696 106.198 184.638 107.958C184.622 108.839 184.575 109.658 184.555 110.414C184.524 111.171 184.496 111.862 184.47 112.483C184.411 113.727 184.386 114.698 184.388 115.359C184.394 116.022 184.444 116.377 184.543 116.391C184.641 116.404 184.782 116.076 184.962 115.435C185.146 114.796 185.35 113.842 185.581 112.606C185.687 111.987 185.804 111.299 185.918 110.542C186.02 109.785 186.146 108.963 186.239 108.074C186.451 106.299 186.617 104.267 186.713 102.012C186.898 97.5084 186.764 92.0806 185.676 86.1499C185.416 84.6547 185.061 83.2064 184.904 81.7865C184.829 81.0794 184.79 80.3786 184.843 79.7052C184.864 79.3664 184.916 79.0378 184.978 78.7123C185.049 78.4085 185.129 78.1088 185.256 77.8165C185.491 77.2281 185.847 76.6786 186.272 76.231C186.487 76.0114 186.716 75.8086 186.961 75.6577C187.08 75.5706 187.208 75.5154 187.331 75.4473C187.394 75.4152 187.458 75.3974 187.521 75.3698L187.616 75.3307C187.647 75.3189 187.68 75.3136 187.712 75.3042L187.903 75.25C187.968 75.242 188.032 75.2322 188.097 75.221C188.161 75.2048 188.226 75.2066 188.291 75.2048C188.356 75.2051 188.42 75.1928 188.486 75.1989C188.754 75.2046 189.019 75.2635 189.289 75.3527C189.558 75.4404 189.828 75.5842 190.094 75.7604C190.361 75.9355 190.624 76.148 190.875 76.3945C191.379 76.8803 191.834 77.4732 192.232 78.1053C192.429 78.4321 192.624 78.7757 192.817 79.1106C192.99 79.4602 193.179 79.799 193.341 80.153C194.001 81.5616 194.513 83.0361 194.937 84.527C195.785 87.5135 196.303 90.5532 196.955 93.4693C197.039 93.8344 197.122 94.1973 197.205 94.5579C197.29 94.9185 197.387 95.2772 197.476 95.6329C197.57 95.9882 197.652 96.3435 197.755 96.6916C197.856 97.0397 197.957 97.3852 198.057 97.7283C198.107 97.8997 198.157 98.0705 198.207 98.2407C198.262 98.4094 198.317 98.5776 198.371 98.7451C198.482 99.0797 198.591 99.4115 198.7 99.7409C198.804 100.072 198.93 100.392 199.047 100.713C199.166 101.033 199.284 101.351 199.4 101.665C200.37 104.171 201.485 106.426 202.667 108.385C203.849 110.346 205.099 112.008 206.292 113.376C206.596 113.714 206.89 114.039 207.172 114.352C207.473 114.648 207.762 114.933 208.04 115.206C208.179 115.341 208.315 115.473 208.448 115.603C208.588 115.725 208.725 115.844 208.859 115.96C209.129 116.189 209.385 116.407 209.628 116.614C210.629 117.403 211.44 117.966 212.037 118.277C212.624 118.601 212.956 118.729 213.013 118.648L213.012 118.648Z" fill="#38312c"/>
<path d="M138.11 60.1999C138.402 59.932 137.314 58.2127 135.317 55.6494C134.323 54.37 133.086 52.8701 131.709 51.2526C131.03 50.4484 130.349 49.6168 129.743 48.7344C129.145 47.8511 128.631 46.9158 128.325 45.9291C128.29 45.8053 128.256 45.6819 128.222 45.5587C128.188 45.4361 128.175 45.3255 128.148 45.2093C128.118 45.0962 128.114 44.9755 128.097 44.8591C128.091 44.8003 128.081 44.7421 128.076 44.683L128.07 44.505C128.051 44.0325 128.078 43.5544 128.178 43.1047C128.274 42.6546 128.421 42.2298 128.608 41.849C128.795 41.4664 129.039 41.1471 129.3 40.8798L129.399 40.7814L129.448 40.7314L129.502 40.6909C129.574 40.6367 129.645 40.581 129.714 40.5234C129.868 40.4384 130.011 40.3316 130.174 40.2734C130.487 40.1232 130.833 40.0431 131.189 40.0153C131.903 39.9542 132.645 40.1092 133.296 40.3468C133.945 40.5828 134.533 40.92 135.044 41.2421C135.555 41.5666 135.996 41.8844 136.37 42.137C137.115 42.6501 137.595 42.8974 137.74 42.7583C137.881 42.6228 137.688 42.1278 137.163 41.3492C136.897 40.9618 136.547 40.5013 136.068 40.0049C135.586 39.5118 134.983 38.9742 134.168 38.5125C133.361 38.0622 132.363 37.6774 131.165 37.6338C130.571 37.6122 129.927 37.6841 129.295 37.9059C128.972 37.9996 128.671 38.1592 128.363 38.3154C128.218 38.4069 128.073 38.5013 127.929 38.5982L127.82 38.6715L127.72 38.7537L127.52 38.921C126.996 39.3772 126.543 39.9259 126.201 40.5329C125.859 41.1396 125.604 41.7952 125.435 42.4794C125.262 43.1633 125.196 43.8786 125.214 44.6067L125.222 44.8805C125.228 44.972 125.24 45.0637 125.249 45.1556C125.271 45.3394 125.282 45.5238 125.323 45.7082C125.36 45.8901 125.39 46.0834 125.437 46.2569C125.484 46.4298 125.532 46.6032 125.58 46.7771C126.009 48.1555 126.707 49.3413 127.446 50.3602C128.194 51.3758 128.989 52.2443 129.746 53.027C131.255 54.5733 132.629 55.9116 133.82 57.0215C136.2 59.2337 137.818 60.4679 138.11 60.1999Z" fill="#38312c"/>
<path d="M137.345 71.212C137.187 71.3397 137.587 72.0968 138.362 73.3773C138.746 74.0183 139.223 74.7916 139.704 75.7038C139.94 76.1615 140.19 76.6488 140.408 77.1762C140.638 77.6996 140.834 78.2624 140.997 78.8538C141.035 79.0019 141.074 79.1517 141.113 79.3032C141.141 79.4553 141.17 79.6092 141.2 79.7649C141.235 79.9193 141.247 80.0778 141.268 80.2365C141.287 80.3951 141.311 80.5549 141.313 80.7171C141.319 80.8778 141.333 81.0446 141.334 81.2034C141.333 81.2809 141.332 81.3587 141.331 81.437C141.326 81.5152 141.32 81.5937 141.315 81.6727C141.288 81.9873 141.236 82.3041 141.156 82.6125C140.991 83.2247 140.703 83.801 140.318 84.1802C140.127 84.3712 139.915 84.5101 139.681 84.6008C139.451 84.6955 139.171 84.7474 138.841 84.7596C138.511 84.7696 138.145 84.7489 137.737 84.6819C137.532 84.6476 137.326 84.6132 137.119 84.5785C137.016 84.5616 136.912 84.5447 136.808 84.5278C136.704 84.5122 136.603 84.4786 136.5 84.4552C136.092 84.3471 135.671 84.2667 135.269 84.1124C135.065 84.0443 134.861 83.9759 134.655 83.9071C134.457 83.8218 134.257 83.7359 134.056 83.6496C133.648 83.4939 133.269 83.2667 132.875 83.0648L132.728 82.9877C132.68 82.9596 132.634 82.9281 132.587 82.8983L132.306 82.7181C132.12 82.5944 131.923 82.4863 131.743 82.3506C131.564 82.2147 131.384 82.0785 131.204 81.9418C131.115 81.8713 131.018 81.8111 130.936 81.7324L130.681 81.5045C130.512 81.351 130.336 81.2044 130.17 81.0458C130.011 80.8798 129.851 80.7131 129.691 80.5461C129.611 80.4617 129.528 80.3821 129.452 80.2949L129.233 80.0268C129.086 79.8489 128.941 79.6713 128.795 79.4946C128.664 79.3065 128.533 79.1189 128.402 78.9322L128.205 78.6532C128.143 78.5581 128.089 78.4579 128.03 78.361C127.914 78.166 127.798 77.9717 127.683 77.7781C127.569 77.5835 127.48 77.376 127.377 77.1772L127.226 76.8769C127.175 76.7779 127.126 76.6778 127.087 76.5729C127.003 76.3664 126.919 76.1609 126.835 75.9562C126.794 75.8536 126.749 75.7527 126.71 75.6493L126.609 75.335C126.54 75.126 126.471 74.9181 126.404 74.7111C126.333 74.5048 126.294 74.2896 126.237 74.0809C126.185 73.8709 126.132 73.662 126.08 73.4542C125.907 72.6331 125.821 71.8176 125.82 71.0309C125.817 69.4584 126.173 67.9954 126.875 66.875C127.223 66.3135 127.637 65.8232 128.109 65.4237C128.226 65.3227 128.355 65.2381 128.475 65.1439C128.536 65.0989 128.595 65.0495 128.658 65.0079C128.723 64.9687 128.788 64.9299 128.853 64.8912C128.985 64.8139 129.102 64.7336 129.244 64.6578C129.389 64.5825 129.533 64.508 129.674 64.4344C130.811 63.8662 131.857 63.4875 132.805 63.358C133.753 63.2084 134.598 63.292 135.297 63.4109C135.648 63.4646 135.958 63.5489 136.234 63.605C136.505 63.681 136.743 63.7305 136.936 63.7775C137.321 63.8731 137.553 63.8843 137.601 63.7978C137.649 63.7111 137.511 63.53 137.194 63.2591C137.035 63.1244 136.82 62.9846 136.565 62.8174C136.3 62.6688 135.993 62.4906 135.619 62.3402C134.883 62.0304 133.889 61.7431 132.697 61.7556C131.505 61.7459 130.18 62.0642 128.856 62.5755C128.692 62.6417 128.526 62.7088 128.358 62.7766C128.188 62.8479 128.004 62.944 127.825 63.03C127.735 63.0747 127.644 63.1197 127.552 63.1649C127.463 63.2134 127.377 63.2711 127.288 63.3248C127.114 63.4368 126.931 63.5414 126.758 63.6664C126.064 64.1619 125.427 64.8052 124.893 65.5556C124.361 66.3072 123.932 67.1679 123.655 68.0883C123.372 69.0077 123.215 69.9803 123.174 70.9712C123.134 71.9624 123.207 72.9734 123.388 73.9811C123.441 74.2268 123.495 74.4736 123.55 74.7218C123.609 74.9688 123.651 75.2214 123.727 75.4672C123.801 75.7135 123.875 75.961 123.95 76.2099C123.988 76.3342 124.026 76.4587 124.064 76.5836C124.107 76.7071 124.157 76.8284 124.203 76.9514C124.298 77.1966 124.394 77.4428 124.49 77.6899C124.535 77.8148 124.591 77.9354 124.65 78.0554L124.823 78.4176C124.942 78.6577 125.049 78.9056 125.181 79.1413C125.317 79.3758 125.453 79.6111 125.59 79.8474C125.66 79.9647 125.725 80.0849 125.799 80.2002L126.033 80.54C126.19 80.7665 126.347 80.9937 126.505 81.2217C126.681 81.4374 126.856 81.6538 127.033 81.8708L127.299 82.1956C127.391 82.3016 127.492 82.4003 127.589 82.5029C127.784 82.7057 127.979 82.908 128.174 83.1097C128.377 83.303 128.591 83.4834 128.799 83.669L129.112 83.9441C129.215 84.038 129.332 84.1136 129.441 84.1988C129.664 84.3638 129.885 84.5283 130.106 84.6923C130.328 84.8546 130.569 84.9882 130.798 85.1356L131.146 85.3503C131.204 85.3855 131.261 85.4225 131.32 85.4559L131.501 85.5488C131.984 85.7918 132.454 86.0544 132.954 86.2383C133.201 86.3379 133.446 86.4389 133.691 86.5338C133.942 86.6121 134.192 86.69 134.44 86.7676C134.934 86.9381 135.442 87.0277 135.938 87.1398C136.062 87.1642 136.185 87.1987 136.31 87.2144C136.435 87.2312 136.56 87.2481 136.684 87.2648C136.933 87.2973 137.18 87.3297 137.426 87.3619C137.92 87.4219 138.458 87.4435 139.015 87.4004C139.572 87.3555 140.168 87.2318 140.729 86.9684C141.29 86.7131 141.782 86.3337 142.163 85.9059C142.546 85.478 142.828 85.0084 143.038 84.5394C143.247 84.0691 143.388 83.5965 143.481 83.1319C143.569 82.6671 143.61 82.2095 143.615 81.7617C143.614 81.6497 143.613 81.5384 143.612 81.4275C143.605 81.3167 143.599 81.2066 143.592 81.0968C143.573 80.8818 143.542 80.6801 143.517 80.4749C143.495 80.2701 143.451 80.0725 143.41 79.8765C143.368 79.6809 143.333 79.4857 143.275 79.3002C143.222 79.1136 143.169 78.9291 143.116 78.7467C143.053 78.5695 142.99 78.3943 142.928 78.2213C142.666 77.537 142.367 76.9138 142.043 76.3588C141.728 75.7969 141.388 75.3034 141.065 74.85C140.41 73.9507 139.781 73.248 139.249 72.6961C138.18 71.5974 137.496 71.0908 137.345 71.2122L137.345 71.212Z" fill="#38312c"/>
<path d="M139.633 86.9813C139.472 87.1028 139.703 87.688 140.184 88.6404C140.421 89.1172 140.714 89.6874 140.99 90.3467C141.263 91.0071 141.519 91.7568 141.602 92.5666C141.687 93.3761 141.614 94.2774 141.252 95.021C141.075 95.3941 140.824 95.7113 140.511 95.9815C140.194 96.2486 139.795 96.4576 139.344 96.6052C138.89 96.7493 138.381 96.8171 137.858 96.8158C137.597 96.8051 137.331 96.7927 137.07 96.7435C136.937 96.7272 136.809 96.6909 136.678 96.665C136.544 96.6277 136.406 96.5955 136.271 96.5493C135.177 96.2116 134.076 95.5511 132.961 94.7336C132.404 94.3278 131.842 93.8837 131.301 93.4522C130.761 93.0191 130.243 92.5865 129.755 92.1497C128.778 91.2764 127.916 90.3852 127.229 89.4614C126.885 89.0011 126.58 88.5325 126.319 88.0656C126.058 87.6076 125.857 87.1313 125.685 86.6632C125.344 85.7239 125.187 84.7954 125.156 83.9518C125.136 83.1079 125.246 82.3463 125.437 81.7C125.629 81.0532 125.898 80.5222 126.152 80.0904C126.407 79.659 126.644 79.3298 126.793 79.0843C126.943 78.8396 127.008 78.6765 126.948 78.5956C126.891 78.5168 126.711 78.5238 126.424 78.6383C126.139 78.7541 125.745 78.9782 125.302 79.3648C124.861 79.7492 124.366 80.3096 123.96 81.0704C123.554 81.8285 123.247 82.7809 123.127 83.8568C123.017 84.931 123.086 86.126 123.405 87.3493C123.565 87.9602 123.772 88.5844 124.061 89.198C124.343 89.8055 124.678 90.4009 125.062 90.9815C125.829 92.1447 126.792 93.2204 127.848 94.2194C128.377 94.7191 128.93 95.2004 129.497 95.6684C130.067 96.1348 130.638 96.5939 131.266 97.0526C131.89 97.5096 132.547 97.944 133.246 98.3246C133.945 98.7036 134.69 99.027 135.471 99.2472C135.665 99.3056 135.864 99.3484 136.062 99.3948C136.267 99.4319 136.471 99.4766 136.676 99.4972C137.085 99.5554 137.494 99.5638 137.897 99.5585C138.703 99.5272 139.495 99.3819 140.238 99.0957C140.978 98.8064 141.673 98.3835 142.235 97.8271C142.795 97.2688 143.215 96.5967 143.457 95.9208C143.702 95.2434 143.806 94.5699 143.808 93.9436C143.813 93.3158 143.731 92.7301 143.599 92.1928C143.468 91.6576 143.275 91.1587 143.067 90.7303C142.858 90.2979 142.629 89.9148 142.399 89.5756C141.938 88.897 141.481 88.3835 141.092 87.9871C140.307 87.2024 139.789 86.8644 139.633 86.9812L139.633 86.9813Z" fill="#38312c"/>
<path d="M136.423 97.8428C136.35 97.9106 136.383 98.0965 136.504 98.3785C136.535 98.4489 136.57 98.5256 136.611 98.6077C136.649 98.6921 136.69 98.7845 136.734 98.8844C136.825 99.0814 136.939 99.2974 137.043 99.5541C137.098 99.679 137.157 99.8107 137.218 99.9492C137.272 100.09 137.329 100.238 137.388 100.392C137.453 100.543 137.504 100.707 137.559 100.876C137.612 101.046 137.679 101.216 137.722 101.402C137.933 102.13 138.103 102.975 138.157 103.909C138.211 104.842 138.147 105.864 137.903 106.904C137.853 107.167 137.763 107.423 137.686 107.686C137.652 107.819 137.593 107.944 137.546 108.074C137.495 108.203 137.451 108.336 137.396 108.462C137.178 108.966 136.91 109.413 136.616 109.683C136.466 109.821 136.333 109.906 136.155 109.982C135.976 110.057 135.754 110.114 135.498 110.149C135.37 110.167 135.233 110.179 135.091 110.186C134.945 110.187 134.797 110.188 134.65 110.189C134.353 110.179 134.053 110.156 133.751 110.107C132.541 109.919 131.298 109.39 130.118 108.625C128.936 107.861 127.874 106.91 126.929 105.906C125.994 104.903 125.206 103.85 124.606 102.777C124.004 101.701 123.593 100.617 123.363 99.5601C123.132 98.5038 123.072 97.4872 123.153 96.5733C123.194 96.1168 123.255 95.6808 123.355 95.2783C123.375 95.1758 123.406 95.0787 123.431 94.981C123.459 94.8846 123.482 94.784 123.512 94.6963C123.568 94.5154 123.63 94.3404 123.699 94.1762C123.972 93.515 124.315 92.994 124.652 92.63C125.323 91.8919 125.956 91.7389 125.935 91.5204C125.931 91.471 125.887 91.4275 125.8 91.3907C125.713 91.3525 125.583 91.3212 125.41 91.3199C125.069 91.3112 124.539 91.4062 123.967 91.7463C123.391 92.078 122.794 92.6402 122.287 93.4112C122.159 93.6035 122.041 93.8107 121.928 94.0309C121.868 94.1414 121.822 94.2513 121.769 94.3645C121.718 94.4777 121.663 94.5917 121.619 94.7115C121.421 95.1848 121.268 95.7061 121.146 96.2617C120.903 97.3739 120.843 98.635 121.015 99.9583C121.184 101.282 121.605 102.671 122.26 104.001C122.914 105.335 123.8 106.615 124.848 107.799C125.894 108.97 127.11 110.098 128.559 111.037C130.003 111.972 131.638 112.671 133.359 112.893C133.787 112.95 134.219 112.972 134.647 112.97C134.861 112.962 135.073 112.957 135.287 112.942C135.502 112.923 135.721 112.896 135.943 112.856C136.387 112.776 136.849 112.644 137.3 112.425C137.752 112.208 138.183 111.883 138.507 111.535C138.836 111.185 139.084 110.812 139.282 110.447C139.479 110.082 139.628 109.723 139.75 109.376C139.812 109.203 139.858 109.03 139.911 108.859C139.959 108.688 140.02 108.521 140.052 108.348C140.126 108.006 140.208 107.672 140.246 107.337C140.438 106.003 140.378 104.75 140.171 103.649C139.965 102.545 139.612 101.592 139.215 100.809C139.126 100.609 139.012 100.429 138.912 100.252C138.81 100.076 138.713 99.9074 138.601 99.7558C138.494 99.6035 138.391 99.4577 138.293 99.3188C138.187 99.1851 138.081 99.0626 137.982 98.9465C137.79 98.7107 137.589 98.5254 137.415 98.3679C137.328 98.2898 137.249 98.2173 137.17 98.1566C137.089 98.098 137.015 98.0468 136.946 98.0031C136.671 97.8287 136.496 97.7749 136.423 97.8426L136.423 97.8428Z" fill="#38312c"/>
<path d="M197.977 153.211C198.099 153.059 197.634 152.437 196.655 151.465C195.678 150.492 194.173 149.186 192.211 147.7C190.251 146.212 187.817 144.566 184.999 142.924C183.587 142.109 182.085 141.286 180.494 140.496C178.906 139.707 177.225 138.94 175.499 138.215C168.738 135.37 162.811 132.344 158.804 129.778C157.802 129.137 156.914 128.53 156.156 127.971C155.397 127.414 154.766 126.906 154.248 126.485C153.228 125.636 152.672 125.117 152.501 125.236C152.345 125.34 152.603 126.1 153.431 127.249C153.849 127.815 154.405 128.477 155.105 129.185C155.804 129.895 156.648 130.649 157.62 131.428C159.564 132.985 162.028 134.621 164.869 136.225C167.711 137.829 170.924 139.406 174.386 140.863C176.081 141.575 177.705 142.295 179.267 143.029C180.828 143.761 182.313 144.511 183.72 145.241C186.53 146.713 189.011 148.139 191.075 149.383C193.139 150.625 194.8 151.661 195.974 152.352C197.149 153.041 197.851 153.368 197.977 153.211L197.977 153.211Z" fill="#38312c"/>
<path d="M168.496 33.3668L153.625 32.8132C153.005 32.7901 152.483 33.2744 152.46 33.8949L152.366 36.4127C152.343 37.0332 152.828 37.5549 153.448 37.578L168.319 38.1316C168.94 38.1547 169.461 37.6705 169.484 37.05L169.578 34.5321C169.601 33.9117 169.117 33.3899 168.496 33.3668Z" fill="#38312c"/>
<rect x="140" y="182" width="16" height="2" fill="#dfe6e0"/>
<rect x="160" y="182" width="16" height="2" fill="#dfe6e0"/>
<rect x="180" y="182" width="16" height="2" fill="#38312c"/>
<defs>
<linearGradient id="paint0_linear_10246_11502" x1="167.5" y1="2.86586e-06" x2="105.009" y2="178.07" gradientUnits="userSpaceOnUse">
<stop stop-color="#f5eee9"/>
<stop offset="1" stop-color="#f1f5e9"/>
</linearGradient>
<linearGradient id="paint1_linear_10246_11502" x1="161.054" y1="38" x2="161.054" y2="119.71" gradientUnits="userSpaceOnUse">
<stop stop-color="#779d7c"/>
<stop offset="1" stop-color="#c6a673"/>
</linearGradient>
</defs>
</svg>
