<svg width="52" height="52" viewBox="0 0 52 52" fill="none" xmlns="http://www.w3.org/2000/svg">
<g clip-path="url(#clip0_10380_10364)">
<path fill-rule="evenodd" clip-rule="evenodd" d="M25 49.541C37.449 49.541 47.541 39.449 47.541 27C47.541 14.551 37.449 4.45902 25 4.45902C12.551 4.45902 2.45902 14.551 2.45902 27C2.45902 39.449 12.551 49.541 25 49.541ZM25 52C38.8071 52 50 40.8071 50 27C50 13.1929 38.8071 2 25 2C11.1929 2 0 13.1929 0 27C0 40.8071 11.1929 52 25 52Z" fill="#B6A9C7"/>
<path d="M22.0984 31L13.4984 35.1L13.4984 32.5L18.6984 30.1L13.4984 27.7V25.1L22.0984 29.2V31ZM28.4937 21L28.4937 35H25.4938L25.4938 24.8H23.0937V22.9C23.6671 22.8333 24.1404 22.7 24.5137 22.5C24.8871 22.2867 25.1871 22.0667 25.4137 21.84C25.6671 21.5867 25.8604 21.3067 25.9937 21H28.4937Z" fill="#38312c"/>
<path d="M33.9272 22.5822C33.9272 22.774 33.989 22.9338 34.1126 23.0616C34.2362 23.1895 34.3907 23.2534 34.5762 23.2534C34.7616 23.2534 34.9161 23.1895 35.0397 23.0616C35.1634 22.9338 35.2252 22.774 35.2252 22.5822C35.2252 22.3904 35.1634 22.2306 35.0397 22.1027C34.9161 21.9749 34.7616 21.911 34.5762 21.911C34.3907 21.911 34.2362 21.9749 34.1126 22.1027C33.989 22.2306 33.9272 22.3904 33.9272 22.5822ZM37.9603 21.1438H39.1192L35.0397 27.8562H33.8808L37.9603 21.1438ZM36.1523 22.5822C36.1523 22.7868 36.1121 22.9849 36.0318 23.1767C35.9514 23.3621 35.8402 23.5283 35.698 23.6753C35.5558 23.8224 35.389 23.9406 35.1974 24.0301C35.0057 24.1196 34.7987 24.1644 34.5762 24.1644C34.3536 24.1644 34.1466 24.1196 33.955 24.0301C33.7634 23.9406 33.5965 23.8224 33.4543 23.6753C33.3121 23.5283 33.2009 23.3621 33.1205 23.1767C33.0402 22.9849 33 22.7868 33 22.5822C33 22.3776 33.0402 22.1826 33.1205 21.9973C33.2009 21.8055 33.3121 21.6361 33.4543 21.489C33.5965 21.342 33.7634 21.2237 33.955 21.1342C34.1466 21.0447 34.3536 21 34.5762 21C34.7987 21 35.0057 21.0447 35.1974 21.1342C35.389 21.2237 35.5558 21.342 35.698 21.489C35.8402 21.6361 35.9514 21.8055 36.0318 21.9973C36.1121 22.1826 36.1523 22.3776 36.1523 22.5822ZM39.0728 26.4178C39.0728 26.226 39.011 26.0662 38.8874 25.9384C38.7638 25.8105 38.6093 25.7466 38.4238 25.7466C38.2384 25.7466 38.0839 25.8105 37.9603 25.9384C37.8366 26.0662 37.7748 26.226 37.7748 26.4178C37.7748 26.6096 37.8366 26.7694 37.9603 26.8973C38.0839 27.0251 38.2384 27.089 38.4238 27.089C38.6093 27.089 38.7638 27.0251 38.8874 26.8973C39.011 26.7694 39.0728 26.6096 39.0728 26.4178ZM36.8477 26.4178C36.8477 26.2132 36.8879 26.0183 36.9682 25.8329C37.0486 25.6411 37.1598 25.4717 37.302 25.3247C37.4441 25.1776 37.611 25.0594 37.8026 24.9699C37.9943 24.8804 38.2013 24.8356 38.4238 24.8356C38.6464 24.8356 38.8534 24.8804 39.045 24.9699C39.2366 25.0594 39.4035 25.1776 39.5457 25.3247C39.6879 25.4717 39.7991 25.6411 39.8795 25.8329C39.9598 26.0183 40 26.2132 40 26.4178C40 26.6224 39.9598 26.8205 39.8795 27.0123C39.7991 27.1977 39.6879 27.3639 39.5457 27.511C39.4035 27.658 39.2366 27.7763 39.045 27.8658C38.8534 27.9553 38.6464 28 38.4238 28C38.2013 28 37.9943 27.9553 37.8026 27.8658C37.611 27.7763 37.4441 27.658 37.302 27.511C37.1598 27.3639 37.0486 27.1977 36.9682 27.0123C36.8879 26.8205 36.8477 26.6224 36.8477 26.4178Z" fill="#38312c"/>
<path d="M25 3.29467C26.0691 3.29467 27.1372 3.36326 28.1975 3.5" stroke="#38312c" stroke-width="2.5" stroke-linecap="round"/>
</g>
<defs>
<clipPath id="clip0_10380_10364">
<rect width="52" height="52" fill="white"/>
</clipPath>
</defs>
</svg>
