<svg width="52" height="52" viewBox="0 0 52 52" fill="none" xmlns="http://www.w3.org/2000/svg">
<g clip-path="url(#clip0_10375_10185)">
<path d="M12.6829 41.522C12.7401 41.3348 12.7921 41.1476 12.8545 40.9656C12.8961 40.8408 12.9481 40.7212 12.9845 40.5964C13.1873 39.8736 13.3797 39.1404 13.5981 38.4228C13.7021 38.0796 13.8685 37.7468 14.0141 37.4192C14.2221 36.9512 14.4093 36.4728 14.6641 36.0308C14.9917 35.4744 15.2101 34.8556 15.5897 34.3252C15.7717 34.0704 15.9641 33.8156 16.1461 33.5608C16.1617 33.54 16.1825 33.5192 16.1929 33.4932C16.3749 33.0304 16.7909 32.7392 17.0561 32.344C17.1653 32.1828 17.3057 32.0424 17.4461 31.9072C17.5761 31.7772 17.7269 31.668 17.8673 31.5484C17.9453 31.4808 18.0389 31.4288 18.0961 31.3456C18.4445 30.8568 18.9281 30.524 19.4065 30.1912C19.7705 29.9364 20.1501 29.7024 20.5349 29.4684C20.7793 29.3176 21.0237 29.1564 21.2733 29.0368C21.7985 28.7872 22.2665 28.4232 22.8489 28.2932C23.0205 28.2568 23.1713 28.1528 23.3377 28.0904C23.4937 28.0332 23.6549 27.9916 23.8109 27.9448C23.8733 27.924 23.9409 27.924 23.9981 27.8928C24.2269 27.768 24.4713 27.6952 24.7313 27.6432C25.1265 27.5652 25.5113 27.4404 25.9013 27.3416C26.0417 27.3052 26.1873 27.2896 26.3329 27.2688C26.6241 27.2272 26.9153 27.1856 27.2117 27.1544C27.5809 27.118 27.9449 27.0868 28.3141 27.0556C28.3505 27.0504 28.3869 27.0452 28.4233 27.0452C28.7925 27.0608 29.1617 27.0764 29.5309 27.0556C29.9261 27.0348 30.3265 27.092 30.7217 27.1336C30.9869 27.1596 31.2521 27.2584 31.5173 27.2584C31.8397 27.2532 32.1465 27.3208 32.4533 27.3936C32.9681 27.5132 33.4985 27.5808 33.9821 27.8044C34.0445 27.8356 34.1277 27.8304 34.1953 27.8512C34.2993 27.8824 34.4085 27.9188 34.5073 27.9604C34.6529 28.0176 34.7881 28.0956 34.9389 28.1372C35.4433 28.2828 35.9321 28.4596 36.3949 28.7144C36.6705 28.8652 36.9669 28.9692 37.2529 29.1148C37.5181 29.25 37.7781 29.3904 38.0277 29.5464C38.2929 29.7128 38.5529 29.8896 38.8077 30.082C39.0625 30.2796 39.3017 30.498 39.5513 30.7008C39.6085 30.7476 39.6709 30.7996 39.7385 30.8204C39.8893 30.8724 40.0037 30.9504 40.0609 31.1012C40.0713 31.1272 40.0869 31.1584 40.1077 31.1688C40.4145 31.3092 40.5289 31.6524 40.8097 31.824C40.9137 31.8864 40.9709 32.0216 41.0593 32.1204C41.1737 32.2504 41.2985 32.3752 41.4181 32.5C41.4389 32.5208 41.4649 32.5312 41.4805 32.5572C41.8029 33.0512 42.2605 33.4464 42.5049 33.9976C42.6401 34.3096 42.7961 34.6164 42.9833 34.892C43.1029 35.0688 43.2329 35.2352 43.3109 35.438C43.3525 35.5472 43.4097 35.6564 43.4409 35.7708C43.5553 36.1868 43.8777 36.5352 43.8777 36.9928C43.8777 37.0188 43.8881 37.05 43.9037 37.0708C44.0025 37.2424 44.0493 37.4244 44.0857 37.6168C44.1221 37.7884 44.1065 37.9912 44.2677 38.1264C44.2937 38.1524 44.3041 38.2148 44.3041 38.2564C44.2885 38.4176 44.3405 38.5528 44.4029 38.7036C44.5017 38.9376 44.5381 39.2028 44.5953 39.4524C44.6421 39.676 44.6993 39.9048 44.7097 40.1284C44.7253 40.4716 44.8865 40.7628 44.9957 41.0748C45.1465 41.5012 44.7513 42.0472 44.2937 42.0316C44.2573 42.0316 44.2053 42.0368 44.1845 42.0212C44.0493 41.886 43.9037 41.9796 43.7685 42.0108C43.2589 42.1252 42.7493 42.198 42.2241 42.1304C42.0473 42.1096 41.8601 42.1668 41.6729 42.172C41.2257 42.1928 40.7837 42.2292 40.3365 42.2136C39.8529 42.198 39.3745 42.198 38.8909 42.2032C38.3241 42.2084 37.7625 42.1772 37.1957 42.1668C36.6237 42.1564 36.0517 42.1616 35.4849 42.1512C35.2249 42.146 34.9701 42.1044 34.7101 42.1148C34.1641 42.1356 33.6233 42.0368 33.0773 42.12C32.7809 42.1668 32.4689 42.1564 32.1621 42.1304C31.6265 42.0836 31.0909 42.0888 30.5605 42.1824C30.5137 42.1928 30.4669 42.2032 30.4201 42.2032C30.0301 42.1928 29.6401 42.2656 29.2553 42.25C28.8705 42.2344 28.5065 42.2812 28.1321 42.3124C27.7109 42.3488 27.2845 42.3176 26.8633 42.3228C26.7229 42.3228 26.5877 42.3436 26.4473 42.3592C26.0781 42.3904 25.7141 42.4372 25.3449 42.458C24.9393 42.4788 24.5285 42.4736 24.1229 42.4892C23.5665 42.51 23.0153 42.5464 22.4641 42.562C22.2353 42.5672 22.0065 42.5308 21.7777 42.536C21.5385 42.536 21.2993 42.5724 21.0601 42.5776C20.9145 42.5828 20.7689 42.5724 20.6233 42.562C20.5765 42.5568 20.5245 42.5256 20.4881 42.536C20.3009 42.5932 20.1137 42.5828 19.9213 42.5724C19.7549 42.562 19.5885 42.6088 19.4221 42.6088C18.9073 42.614 18.3925 42.6036 17.8829 42.6036C17.8257 42.6036 17.7737 42.6088 17.7165 42.6192C17.6801 42.614 17.6281 42.6504 17.5917 42.64C17.1757 42.5256 16.7545 42.7024 16.3333 42.6088C16.1253 42.562 15.8965 42.614 15.6729 42.614C15.1789 42.6192 14.6849 42.6348 14.1909 42.6244C13.9725 42.6192 13.7489 42.5776 13.5409 42.5152C13.2081 42.4164 12.9845 42.1564 12.7921 41.8808C12.7245 41.782 12.7193 41.652 12.6829 41.522Z" fill="url(#paint0_linear_10375_10185)"/>
<path d="M41.1685 51.1782C40.7161 51.2198 40.2637 51.2718 39.8113 51.3082C39.5617 51.329 39.3069 51.3498 39.0573 51.3186C38.6049 51.2614 38.1681 51.3758 37.7261 51.3758C37.3725 51.381 37.0189 51.381 36.6757 51.4278C36.2909 51.485 35.8957 51.3498 35.5213 51.5006C35.4693 51.5214 35.4069 51.5318 35.3549 51.5214C34.8505 51.4278 34.3565 51.5682 33.8573 51.5838C33.1605 51.6046 32.4689 51.6306 31.7721 51.6618C31.4185 51.6774 31.0701 51.7138 30.7165 51.7398C30.6957 51.7398 30.6749 51.7502 30.6593 51.745C30.2693 51.6202 29.8949 51.7918 29.5153 51.8022C29.1201 51.8126 28.7249 51.8178 28.3297 51.823C28.1165 51.8282 27.9085 51.849 27.6953 51.8334C27.3677 51.8126 27.0349 51.9114 26.7073 51.8282C26.6293 51.8074 26.5409 51.849 26.4577 51.849C26.2757 51.849 26.0937 51.8334 25.9065 51.8386C25.6673 51.8386 25.4333 51.8594 25.1941 51.8542C24.9185 51.849 24.6377 51.8334 24.3621 51.8178C24.3101 51.8126 24.2477 51.7866 24.2009 51.8022C23.9357 51.8906 23.6549 51.875 23.4001 51.823C23.1193 51.7658 22.8541 51.797 22.5785 51.8178C22.5057 51.823 22.4329 51.8022 22.3601 51.7866C22.2977 51.7762 22.2249 51.7398 22.1677 51.7554C21.8297 51.849 21.4917 51.771 21.1589 51.7346C20.7117 51.6878 20.2593 51.8126 19.8069 51.667C19.6249 51.6098 19.4065 51.6722 19.2089 51.6566C18.7409 51.6254 18.2677 51.5994 17.8257 51.4122C17.6593 51.3394 17.4773 51.2978 17.3005 51.2562C16.7025 51.1158 16.1513 50.8558 15.6365 50.5282C15.4857 50.4346 15.3817 50.2578 15.1633 50.2734C15.1113 50.2786 15.0541 50.211 14.9969 50.1746C14.7941 50.029 14.5705 49.9042 14.3885 49.7378C14.0609 49.431 13.6813 49.171 13.4577 48.7602C13.3277 48.5262 13.1613 48.3078 13.0365 48.0738C12.8337 47.689 12.8441 47.2886 13.1093 46.9402C13.3485 46.6282 13.6813 46.4722 14.0921 46.5398C14.2481 46.5658 14.3989 46.5606 14.5601 46.5346C14.7577 46.5034 14.9657 46.5294 15.1685 46.5346C15.2985 46.5346 15.4233 46.5398 15.5533 46.5398C15.5897 46.5398 15.6261 46.519 15.6625 46.519C15.9745 46.5294 16.2917 46.5398 16.6037 46.5502C16.7077 46.5554 16.8065 46.5502 16.9105 46.5502C17.0457 46.5502 17.1861 46.5554 17.3213 46.5554C17.4513 46.5554 17.5813 46.545 17.7113 46.5398C17.8049 46.5346 17.8933 46.5294 17.9869 46.5242C18.0857 46.519 18.1845 46.5086 18.2885 46.5086C18.6213 46.5034 18.9541 46.4618 19.2765 46.5034C19.5677 46.5398 19.8433 46.4826 20.1293 46.4826C20.3321 46.4826 20.5349 46.493 20.7377 46.4982C20.9301 46.4982 21.1277 46.4982 21.3201 46.493C21.3357 46.493 21.3565 46.4826 21.3721 46.4826C21.8869 46.4826 22.4017 46.4878 22.9217 46.493C23.0309 46.493 23.1401 46.4982 23.2545 46.4982C23.3845 46.4982 23.5145 46.4774 23.6445 46.493C23.8629 46.519 24.0813 46.519 24.2997 46.4982C24.5753 46.4774 24.8509 46.5242 25.1265 46.5398C25.1629 46.5398 25.1993 46.5502 25.2357 46.5502C25.8181 46.4774 26.4005 46.4774 26.9777 46.5294C27.4249 46.571 27.8669 46.4722 28.3089 46.5242C28.3921 46.5346 28.4805 46.5294 28.5533 46.5658C28.7093 46.6438 28.8549 46.6386 29.0005 46.545C29.0421 46.519 29.1097 46.519 29.1617 46.519C29.4269 46.5346 29.6921 46.545 29.9625 46.5346C30.4149 46.5086 30.8673 46.5502 31.3145 46.5346C31.7773 46.519 32.2349 46.4722 32.6977 46.4358C32.7913 46.4306 32.8797 46.441 32.9733 46.441C33.0721 46.4358 33.1709 46.4306 33.2697 46.4202C33.3893 46.4046 33.5141 46.3526 33.6233 46.3786C33.9145 46.441 34.1901 46.3578 34.4761 46.3422C34.5021 46.3422 34.5333 46.337 34.5593 46.3422C34.9285 46.415 35.2925 46.3266 35.6565 46.3318C36.0153 46.337 36.3793 46.2954 36.7381 46.2798C36.8785 46.2746 37.0137 46.2798 37.1541 46.2694C37.4401 46.2486 37.7261 46.2174 38.0121 46.207C38.5113 46.1914 39.0105 46.1914 39.5097 46.181C39.8425 46.1706 40.1753 46.1238 40.5029 46.1394C40.8149 46.155 41.1217 46.1342 41.4337 46.0874C41.5585 46.0666 41.6989 46.0666 41.8185 46.0978C42.0733 46.1706 42.3177 46.1394 42.5673 46.0926C42.9001 46.025 43.2277 46.0302 43.5605 46.0562C43.8257 46.077 44.0961 46.051 44.3613 46.0874C44.5797 46.1134 44.7929 46.1862 45.0009 46.259C45.1621 46.3162 45.2401 46.4514 45.2557 46.6282C45.2765 46.8102 45.3233 46.987 45.3493 47.169C45.3597 47.2314 45.3597 47.299 45.3493 47.3614C45.2973 47.6474 45.2765 47.9438 45.1829 48.209C44.9853 48.755 44.8709 49.3426 44.5277 49.8262C44.2365 50.2422 43.8465 50.5698 43.3733 50.757C42.9885 50.9078 42.5829 51.0222 42.1773 51.1106C41.8445 51.1834 41.4961 51.1938 41.1529 51.2302C41.1737 51.1938 41.1685 51.1886 41.1685 51.1782Z" fill="url(#paint1_linear_10375_10185)"/>
<path d="M43.2641 18.8863C43.2121 18.6263 43.0717 18.4079 42.8949 18.2207C42.7493 18.0647 42.5829 17.9295 42.4321 17.7787C42.3697 17.7163 42.3021 17.6487 42.3229 17.5343C42.3697 17.3263 42.3853 17.1131 42.4373 16.9051C42.5361 16.5099 42.5725 16.1043 42.7025 15.7091C42.8221 15.3503 42.8481 14.9603 42.9365 14.5859C43.0457 14.1387 43.1341 13.6863 43.1393 13.2235C43.1393 12.8491 43.1497 12.4747 43.0665 12.1003C43.0093 11.8507 42.9469 11.6115 42.8013 11.4139C42.6921 11.2631 42.5413 11.0967 42.3697 11.0343C41.9693 10.8783 41.5429 10.8471 41.1165 10.9511C40.8981 11.0031 40.6901 11.0811 40.4717 11.1019C40.0401 11.1383 39.6761 11.3463 39.3017 11.5179C39.1873 11.5699 39.0781 11.6427 38.9585 11.6791C38.7817 11.7311 38.6153 11.7831 38.5009 11.9391C38.4645 11.9911 38.3917 12.0327 38.3293 12.0483C38.1421 12.0899 38.0121 12.2095 37.9029 12.3603C37.8665 12.4071 37.8353 12.4591 37.7729 12.5371C37.6377 12.3291 37.5389 12.1783 37.4401 12.0275C37.2061 11.6791 36.9617 11.3359 36.7277 10.9927C36.5145 10.6807 36.3117 10.3635 36.1037 10.0515C35.8125 9.60949 35.5005 9.18309 35.3757 8.64749C35.3185 8.39789 35.2041 8.16389 35.1001 7.92989C35.0325 7.77389 34.9025 7.63349 34.8713 7.47229C34.7725 7.02509 34.6113 6.60909 34.4345 6.18789C34.2889 5.83949 34.1693 5.48069 34.0289 5.13229C33.9041 4.82549 33.7741 4.51869 33.6337 4.19109C34.1173 3.99349 34.5749 3.78549 35.0481 3.61909C35.5733 3.43709 36.0985 3.26549 36.6029 3.03669C36.6861 3.00029 36.7797 2.97429 36.8681 2.95349C37.0969 2.89109 37.3309 2.83389 37.5597 2.77149C37.7313 2.72469 37.9029 2.64149 38.0745 2.64149C38.5113 2.64669 38.7973 2.36589 38.7609 1.92389C38.7401 1.62229 38.5477 1.50789 38.2617 1.60669C38.1421 1.64829 38.0173 1.66909 37.8925 1.69509C37.6273 1.74709 37.3413 1.75749 37.0969 1.85629C36.8785 1.94469 36.6705 2.01229 36.4365 2.04869C36.4001 2.05909 36.3585 2.07989 36.3221 2.09549C35.9997 2.23069 35.6773 2.36589 35.3549 2.49589C35.1989 2.55829 35.0377 2.61549 34.8765 2.67789C34.6789 2.75069 34.4761 2.81829 34.2837 2.89629C33.9353 3.03149 33.5921 3.17189 33.2333 3.31229C33.0825 2.91189 32.8641 2.59989 32.5833 2.32949C32.3545 2.11109 32.0633 2.01749 31.7617 2.06429C31.5017 2.10589 31.2937 2.24109 31.1845 2.51669C30.9869 3.01069 30.9453 3.51509 31.0389 4.03509C31.0805 4.26909 31.0389 4.35229 30.8101 4.43029C30.3941 4.57069 30.0093 4.75789 29.6609 5.02829C29.5621 5.10629 29.4373 5.14789 29.3229 5.20509C29.1773 5.27789 29.0265 5.33509 28.8861 5.41309C28.4545 5.65749 28.0333 5.91229 27.6069 6.16709C27.3417 6.32309 27.0557 6.44269 26.8425 6.67669C26.7437 6.78589 26.6033 6.88989 26.4629 6.92629C26.2341 6.98869 26.0781 7.14469 25.9065 7.27989C25.7453 7.40469 25.6621 7.41509 25.5269 7.27469C25.3449 7.09269 25.1005 7.01989 24.8821 7.00429C24.5753 6.98349 24.2529 6.98869 23.9565 7.14989C23.7537 7.26429 23.6081 7.41509 23.4625 7.58669C23.2909 7.78429 23.2077 8.00789 23.2337 8.27309C23.2597 8.55389 23.3169 8.82949 23.4625 9.10509C23.2337 9.27149 23.0101 9.42749 22.7969 9.59909C22.4745 9.85909 22.1625 10.1243 21.8505 10.3895C21.2473 10.8991 20.6441 11.4035 20.0513 11.9183C19.7913 12.1419 19.5573 12.3915 19.3025 12.6151C18.9645 12.9115 18.6109 13.1923 18.3197 13.5459C18.1689 13.7279 17.9661 13.8683 17.8153 14.0503C17.6021 14.3103 17.3837 14.5495 17.1289 14.7731C16.7961 15.0643 16.5153 15.4127 16.2189 15.7507C15.9485 16.0575 15.6833 16.3695 15.4337 16.6971C14.9605 17.3107 14.4925 17.9347 14.0297 18.5587C13.8113 18.8551 13.6085 19.1619 13.4005 19.4635C13.2289 19.7079 13.0417 19.9471 12.8961 20.2071C12.7557 20.4463 12.6465 20.6959 12.4645 20.9195C12.1785 21.2783 11.9497 21.6839 11.7209 22.0843C11.4089 22.6251 11.1177 23.1815 10.8265 23.7327C10.6081 24.1487 10.3949 24.5699 10.1973 24.9963C9.89567 25.6411 9.59927 26.2859 9.31847 26.9359C9.07927 27.4767 8.85047 28.0175 8.63727 28.5687C8.38767 29.2083 8.15887 29.8531 7.91967 30.4927C7.80527 30.8047 7.68567 31.1167 7.58167 31.4339C7.44647 31.8499 7.32167 32.2659 7.19687 32.6819C7.05647 33.1551 6.92127 33.6335 6.77567 34.1067C6.62487 34.6059 6.62487 35.1415 6.42207 35.6303C6.39607 35.6927 6.41167 35.7655 6.40127 35.8331C6.39087 35.9371 6.38567 36.0411 6.35967 36.1399C6.20887 36.7379 6.10487 37.3411 5.98527 37.9443C5.86047 38.5891 5.79807 39.2495 5.62127 39.8839C5.44967 40.5079 5.39247 41.1579 5.25207 41.7975C5.10647 42.4579 5.02847 43.1287 4.92967 43.7995C4.90367 43.9607 4.90367 44.1271 4.86727 44.2831C4.75807 44.7355 4.65927 45.1827 4.65927 45.6507C4.65927 45.9159 4.65407 46.1811 4.62287 46.4463C4.55007 47.0391 4.46167 47.6319 4.37847 48.2299C4.35247 48.4223 4.33687 48.6199 4.30567 48.8123C4.25367 49.1763 4.18087 49.5403 4.14447 49.9043C4.12367 50.1279 4.20167 50.3463 4.31607 50.5439C4.38367 50.6583 4.49287 50.7259 4.63327 50.7259C4.78927 50.7207 4.87247 50.6219 4.91407 50.4971C4.95567 50.3775 4.98167 50.2475 4.99727 50.1227C5.02327 49.9355 5.03367 49.7483 5.05967 49.5611C5.13247 49.0619 5.22087 48.5627 5.27807 48.0635C5.35087 47.3927 5.37687 46.7167 5.45487 46.0459C5.52767 45.4167 5.52767 44.7823 5.72007 44.1687C5.80327 43.8931 5.80847 43.5915 5.85527 43.3055C6.00087 42.4735 6.15687 41.6415 6.30767 40.8043C6.38567 40.3779 6.46887 39.9463 6.54687 39.5199C6.68207 38.8075 6.82767 38.0951 6.96287 37.3775C7.04607 36.9303 7.06687 36.4779 7.22287 36.0463C7.25407 35.9631 7.24367 35.8591 7.25407 35.7655C7.26447 35.6719 7.27487 35.5783 7.29567 35.4899C7.48807 34.7775 7.69607 34.0755 7.87287 33.3579C8.03927 32.6559 8.30967 31.9903 8.53847 31.3091C8.67367 30.9191 8.82967 30.5395 8.97527 30.1547C9.20927 29.5359 9.43287 28.9171 9.66687 28.3035C9.71367 28.1735 9.77607 28.0539 9.82807 27.9239C10.0569 27.3779 10.2753 26.8319 10.5197 26.2963C10.7537 25.7815 11.0241 25.2823 11.2789 24.7779C11.4089 24.5179 11.5597 24.2683 11.6845 24.0031C11.9965 23.3427 12.3865 22.7343 12.7661 22.1155C12.8753 21.9387 13.0053 21.7723 13.0677 21.5799C13.1405 21.3667 13.2809 21.2107 13.4057 21.0443C13.4629 20.9715 13.5253 20.8987 13.5773 20.8207C13.9933 20.2071 14.4041 19.5883 14.8149 18.9695C14.8513 18.9123 14.8929 18.8551 14.9345 18.8031C15.1321 18.5535 15.3349 18.3091 15.5325 18.0647C15.7873 17.7527 16.0369 17.4407 16.2917 17.1287C16.5153 16.8583 16.7389 16.5879 16.9625 16.3175C17.0041 16.2655 17.0561 16.2187 17.0977 16.1667C17.2797 15.9639 17.4825 15.7767 17.6489 15.5583C17.8049 15.3607 17.9609 15.1735 18.1585 15.0227C18.2365 14.9603 18.2989 14.8771 18.3665 14.7991C18.4965 14.6535 18.6213 14.5027 18.7617 14.3675C19.0009 14.1387 19.2505 13.9151 19.4949 13.6915C19.6197 13.5771 19.7497 13.4679 19.8745 13.3483C20.1709 13.0727 20.4517 12.7867 20.7533 12.5267C21.3305 12.0327 21.9181 11.5491 22.5005 11.0603C22.8125 10.7951 23.1193 10.5195 23.4365 10.2595C23.6861 10.0567 23.9513 9.86429 24.2165 9.67709C24.2581 9.64589 24.3309 9.64589 24.3829 9.65109C24.6533 9.69269 24.9185 9.74989 25.1941 9.72389C25.2929 9.71349 25.3969 9.72389 25.5009 9.72389C25.6777 9.95789 25.8493 10.1919 26.1041 10.3531C26.2757 10.4623 26.4369 10.5923 26.5929 10.7275C26.8841 10.9823 27.1961 11.2111 27.5445 11.3775C27.6589 11.4347 27.7785 11.4815 27.8877 11.5439C28.2725 11.7623 28.6521 11.9963 29.0421 12.2095C29.7753 12.6099 30.5449 12.9167 31.3769 13.0415C31.5017 13.0623 31.6317 13.0831 31.7513 13.1195C32.1413 13.2495 32.5469 13.3015 32.9577 13.3067C33.0097 13.3067 33.0617 13.3119 33.1137 13.3171C33.1397 13.3587 33.1605 13.3951 33.1813 13.4315C33.2957 13.6343 33.3893 13.8475 33.5245 14.0347C33.6285 14.1751 33.7221 14.3051 33.7845 14.4663C33.9405 14.8771 34.1173 15.2775 34.3721 15.6363C34.4501 15.7455 34.4813 15.8599 34.4761 15.9951C34.4345 17.0559 34.4241 18.1167 34.3253 19.1775C34.3045 19.3907 34.2993 19.6091 34.2629 19.8171C34.0965 20.7687 33.9769 21.7307 33.9093 22.6979C33.8833 23.0567 33.8729 23.4207 33.9093 23.7743C33.9561 24.2007 34.1017 24.5959 34.4865 24.8507C34.8713 25.1003 35.2613 25.3499 35.6617 25.5839C35.8229 25.6775 35.9997 25.7451 36.1765 25.8127C36.4001 25.9011 36.6757 25.8335 36.7433 25.6671C36.8525 25.4019 36.9149 25.1055 36.8005 24.8403C36.6705 24.5387 36.5665 24.2163 36.3377 23.9615C36.3013 23.9199 36.2805 23.8523 36.2857 23.8003C36.3013 23.6235 36.3169 23.4415 36.3533 23.2647C36.4365 22.8383 36.5353 22.4119 36.6133 21.9855C36.7693 21.1275 36.8629 20.2591 36.9773 19.3959C37.0605 18.7875 37.0449 18.1739 37.1541 17.5655C37.1801 17.4251 37.1905 17.2743 37.1905 17.1339C37.2009 16.7335 37.1905 16.3331 37.2165 15.9327C37.2217 15.8131 37.2061 15.7091 37.1697 15.6103C37.1749 15.6103 37.1801 15.6155 37.1905 15.6155C37.4869 15.6311 37.7365 15.5063 37.9809 15.3607C38.2513 15.1995 39.2237 14.5235 39.5045 14.3831C39.7489 14.2583 39.9881 14.1075 40.2949 14.2063C40.5029 14.2739 40.5861 14.3207 40.5601 14.5391C40.5237 14.8251 40.4561 15.1111 40.4041 15.3971C40.3677 15.5739 40.3469 15.7559 40.2897 15.9223C40.1025 16.5099 39.9101 17.0923 39.7177 17.6747C39.6033 18.0231 39.5929 18.3715 39.6137 18.7355C39.6449 19.2503 40.0973 19.5467 40.5029 19.6403C41.2205 19.8119 41.9589 19.8327 42.6921 19.7079C43.0665 19.6195 43.3369 19.2555 43.2641 18.8863ZM24.1749 8.32509C24.2945 8.18989 24.4609 8.20029 24.6325 8.11709C24.4505 8.40829 24.3933 8.43429 24.1749 8.32509ZM31.8033 3.23429C32.1153 3.19269 32.2869 3.31229 32.4065 3.63469C32.2141 3.71789 32.0269 3.80629 31.8033 3.90509C31.8033 3.67109 31.8033 3.45789 31.8033 3.23429ZM27.0141 7.60229C27.2585 7.44629 27.5185 7.31629 27.7681 7.17069C28.1841 6.93149 28.5949 6.69229 29.0057 6.44789C29.1357 6.36989 29.2709 6.29709 29.3957 6.20349C29.5725 6.06829 29.7649 5.96429 29.9781 5.88109C30.2069 5.79269 30.4409 5.68349 30.6333 5.53789C30.8777 5.35069 31.1741 5.28309 31.4341 5.13749C31.4861 5.11149 31.5381 5.08549 31.6005 5.05429C32.0269 5.90709 32.4585 6.74949 32.8433 7.64909C32.6665 7.64909 32.5261 7.66469 32.3857 7.64389C32.0269 7.58669 31.7097 7.65429 31.4601 7.94029C31.2937 7.78429 31.1377 7.64389 30.9817 7.49829C30.9557 7.47749 30.9297 7.44629 30.8985 7.44109C30.5969 7.37349 30.3265 7.20709 29.9885 7.24869C29.7441 7.27989 29.5049 7.27469 29.3125 7.43589C29.0473 7.65949 28.8393 7.93509 28.7873 8.28869C28.7405 8.62669 28.7613 8.96469 28.9641 9.25589C29.0681 9.40669 29.2085 9.53149 29.3801 9.71869C29.2553 9.67709 29.1877 9.66669 29.1305 9.63549C28.9433 9.54189 28.7561 9.43789 28.5689 9.33909C28.2881 9.19349 28.0073 9.05829 27.7317 8.90749C27.5653 8.81389 27.4041 8.70469 27.2377 8.60589C27.0869 8.51229 26.9257 8.42389 26.7853 8.31989C26.6813 8.24189 26.5981 8.13269 26.4733 8.01309C26.6761 7.85189 26.8373 7.71149 27.0141 7.60229ZM33.3893 9.47949C33.3945 9.50549 33.3945 9.53149 33.4049 9.59389C33.3737 9.64069 33.3425 9.71869 33.2853 9.77589C33.1709 9.90069 33.0513 10.0255 32.9161 10.1243C32.8329 10.1867 32.7289 10.2283 32.6093 10.1555C32.5157 10.0983 32.4065 10.0723 32.3077 10.0255C32.2505 9.99949 32.1777 9.96829 32.1465 9.91629C31.9385 9.56269 31.8501 9.18829 32.1673 8.86589C32.1985 8.82949 32.2453 8.79829 32.2921 8.78789C32.7029 8.68909 33.2853 9.05829 33.3893 9.47949ZM31.3977 10.3791C31.1169 10.4051 30.0093 10.0411 29.8377 9.88509C30.0873 9.88509 30.3525 9.89029 30.6177 9.87989C30.6957 9.87469 30.7737 9.82789 30.8413 9.78629C30.9401 9.72909 31.0337 9.66149 31.1221 9.60949C31.2261 9.89029 31.3145 10.1347 31.3977 10.3791ZM26.2341 9.26109C26.1405 9.22989 26.0625 9.15189 25.9689 9.12589C25.7557 9.06869 25.6517 8.91269 25.5529 8.73589C25.5997 8.63189 25.6673 8.59549 25.7713 8.67349C25.9065 8.78269 26.0521 8.86589 26.1457 9.03229C26.2341 9.18309 26.4057 9.28189 26.5461 9.40149C26.4005 9.45349 26.3433 9.29749 26.2341 9.26109ZM34.2109 13.4991C34.0289 13.1143 33.7793 12.7659 33.5453 12.4071C33.4517 12.2667 33.3113 12.1939 33.1241 12.2147C32.9941 12.2251 32.8589 12.1783 32.7237 12.1575C32.5053 12.1263 32.2921 12.0899 32.0737 12.0587C31.8709 12.0327 31.6629 12.0379 31.4653 11.9859C30.8881 11.8299 30.3317 11.6011 29.7805 11.3723C29.5153 11.2631 29.2397 11.1591 28.9745 11.0499C28.9485 11.0395 28.9225 11.0343 28.9069 11.0135C28.6469 10.7847 28.3401 10.6443 28.0229 10.5091C27.9033 10.4571 27.7993 10.3583 27.6901 10.2803C27.4041 10.0827 27.1129 9.88509 26.8269 9.69269C26.7177 9.61989 26.6189 9.54709 26.5721 9.41709C26.6969 9.47949 26.8165 9.54189 26.9413 9.60949C27.1285 9.70829 27.3157 9.81229 27.5029 9.91109C27.8981 10.1295 28.2881 10.3635 28.6937 10.5611C29.1773 10.7951 29.6661 11.0291 30.1757 11.2007C30.6021 11.3463 31.0285 11.5023 31.4809 11.5491C31.6369 11.5647 31.7877 11.6583 31.9333 11.7207C32.1569 11.8143 32.3805 11.8195 32.6145 11.7779C32.8069 11.7415 32.9317 11.6375 32.9837 11.4607C33.0409 11.2527 33.1345 11.1071 33.3789 11.0915C33.4569 11.0863 33.5349 10.9927 33.6025 10.9251C33.9405 10.6027 34.1745 10.2179 34.2369 9.74989C34.2681 9.53149 34.2577 9.30789 34.2733 9.08949C34.3045 8.67869 34.1797 8.31989 33.9665 7.97149C33.7845 7.67509 33.6597 7.34229 33.4985 7.03029C33.1917 6.41669 32.8797 5.81349 32.5781 5.19989C32.5053 5.04909 32.4533 4.88269 32.3961 4.72669C32.7185 4.52909 32.9005 4.60189 33.0305 4.93989C33.2125 5.40269 33.4205 5.85509 33.5973 6.31789C33.7065 6.60389 33.7741 6.91069 33.8885 7.19669C33.9769 7.42549 34.1121 7.63869 34.2213 7.85709C34.2629 7.94029 34.3045 8.02349 34.3305 8.11189C34.5073 8.66829 34.6633 9.22989 34.8713 9.77589C34.9649 10.0255 35.1469 10.2439 35.2977 10.4727C35.5005 10.7795 35.7137 11.0759 35.9217 11.3775C36.1089 11.6479 36.3117 11.9079 36.4937 12.1887C36.6289 12.3967 36.7329 12.6203 36.8629 12.8595C36.2389 13.4887 35.5629 14.0607 34.7985 14.5599C34.7413 14.4715 34.6893 14.4143 34.6581 14.3467C34.5177 14.0659 34.3513 13.7955 34.2109 13.4991ZM41.5221 17.7631C41.5585 18.0543 41.5845 18.3559 41.8393 18.6263C41.3193 18.5535 40.8565 18.5535 40.3885 18.3767C40.4249 18.1947 40.4509 18.0179 40.5029 17.8515C40.6017 17.5343 40.7265 17.2223 40.8305 16.8999C40.9189 16.6139 40.9761 16.3175 41.0801 16.0367C41.2465 15.5843 41.3297 15.1111 41.3921 14.6379C41.4077 14.5079 41.4025 14.3571 41.3557 14.2323C41.2465 13.9463 41.1165 13.6655 40.9709 13.3951C40.7733 13.0363 40.2689 12.8595 39.9049 13.0415C39.8477 13.0727 39.7749 13.0675 39.7073 13.0831C39.5773 13.1143 39.4317 13.1247 39.3173 13.1819C39.0157 13.3379 38.7245 13.5199 38.4281 13.6915C38.1577 13.8475 37.2113 14.5391 37.0501 14.8095C36.9825 14.9239 36.9097 15.0487 36.8785 15.1787C36.8785 15.1891 36.8785 15.1943 36.8785 15.2047C36.7693 15.1683 36.6549 15.1943 36.5873 15.3139C36.5197 15.4283 36.4729 15.5635 36.4625 15.6987C36.4157 16.2031 36.3897 16.7075 36.3585 17.2119C36.3481 17.3835 36.3585 17.5551 36.3429 17.7267C36.2961 18.1687 36.2337 18.6107 36.1765 19.0527C36.1089 19.5935 36.0517 20.1395 35.9737 20.6803C35.9113 21.1015 35.8385 21.5279 35.7501 21.9439C35.6565 22.4119 35.5369 22.8799 35.4329 23.3479C35.3497 23.7171 35.4225 24.0447 35.6825 24.3307C35.7085 24.3619 35.7137 24.4087 35.7293 24.4503C35.7137 24.4607 35.7033 24.4763 35.6877 24.4867C35.4797 24.3567 35.2717 24.2163 35.0585 24.0967C34.8089 23.9563 34.7257 23.7379 34.7465 23.4727C34.8037 22.7811 34.8661 22.0895 34.9337 21.3979C35.0065 20.6543 35.0897 19.9159 35.1573 19.1723C35.1937 18.7511 35.1469 18.3247 35.2301 17.8983C35.2977 17.5343 35.2665 17.1495 35.2769 16.7751C35.2873 16.5099 35.2977 16.2499 35.3029 15.9847C35.3081 15.8339 35.3029 15.6831 35.3029 15.5895C35.6669 15.3087 35.9893 15.0643 36.3117 14.8147C36.3949 14.7523 36.4625 14.6795 36.5405 14.6119C36.7849 14.4039 37.0293 14.1907 37.2737 13.9827C37.4401 13.8371 37.6013 13.6863 37.7729 13.5459C37.9549 13.3951 38.1213 13.2079 38.3865 13.1975C38.4229 13.1975 38.4593 13.1559 38.4905 13.1247C38.6101 13.0103 38.7401 12.9167 38.9117 12.9063C38.9637 12.9011 39.0261 12.8595 39.0677 12.8179C39.2965 12.5683 39.6397 12.5735 39.9205 12.4279C40.1181 12.3239 40.3677 12.3395 40.5549 12.1939C40.5965 12.1627 40.6693 12.1627 40.7265 12.1575C40.9813 12.1263 41.2309 12.0847 41.4857 12.0639C41.9381 12.0223 42.2189 12.1471 42.3177 12.5215C42.3801 12.7555 42.3853 13.0207 42.3437 13.2599C42.2553 13.8163 42.1305 14.3675 42.0213 14.9239C41.9589 15.2255 41.8913 15.5271 41.8289 15.8287C41.7197 16.3279 41.6053 16.8323 41.5117 17.3315C41.4857 17.4667 41.5065 17.6175 41.5221 17.7631Z" fill="#38312c"/>
<path d="M42.2189 41.5375C42.4477 41.4543 42.6453 41.5635 42.6453 41.8131C42.6453 42.0783 42.5985 42.3383 42.5517 42.5983C42.5205 42.7855 42.4633 42.9675 42.4217 43.1495C42.3489 43.4667 42.1721 43.7163 41.8913 43.8775C41.6469 44.0179 41.3869 44.1271 41.1321 44.2467C41.0645 44.2779 40.9917 44.3143 40.8669 44.3715C41.2101 44.5951 41.4077 44.9019 41.7925 45.0267C42.1617 45.1463 42.5257 45.3023 42.9053 45.3959C43.1497 45.4583 43.3941 45.4791 43.6437 45.4271C43.7113 45.3127 43.6645 45.1983 43.6333 45.0995C43.5085 44.6523 43.2953 44.2623 42.9209 43.9711C42.8013 43.8775 42.6661 43.7995 42.6297 43.6279C42.5777 43.3939 42.6661 43.1131 42.8689 42.9935C43.0925 42.8583 43.2329 42.7699 43.5241 42.9831C43.8153 43.1963 44.0389 43.4563 44.2261 43.7735C44.4341 44.1219 44.5381 44.4963 44.5953 44.8811C44.6421 45.2035 44.6525 45.5467 44.4549 45.8275C44.1377 46.2851 43.6905 46.5399 43.1289 46.5243C42.7389 46.5139 42.3489 46.4619 41.9745 46.3423C41.7665 46.2747 41.5637 46.1915 41.3297 46.1031C41.2361 46.6439 40.9033 46.9715 40.4197 47.0859C39.9517 47.2003 39.5097 47.0859 39.1353 46.7791C38.2877 47.2263 37.5077 47.1379 36.7901 46.4827C36.6861 46.5763 36.5977 46.6647 36.4989 46.7479C36.2337 46.9767 35.9581 47.1171 35.5733 47.0755C35.2145 47.0391 34.9077 46.9351 34.6425 46.7219C34.3565 46.4931 34.0965 46.2383 33.8157 45.9835C33.8157 45.9835 33.7897 45.9835 33.7741 45.9991C33.4881 46.2435 33.2177 46.5087 32.9161 46.7323C32.7393 46.8623 32.5313 46.9559 32.3181 47.0131C31.8137 47.1483 31.2937 47.2315 30.7685 47.2107C30.3733 47.1951 29.9729 47.1587 29.5829 47.1015C29.4009 47.0755 29.2241 47.0131 29.0369 47.0131C29.0109 47.0131 28.9849 47.0183 28.9589 47.0079C28.5793 46.8415 28.1529 46.8051 27.7889 46.5919C27.5185 46.4307 27.2429 46.2903 26.9517 46.1291C26.8997 46.1863 26.8529 46.2591 26.7905 46.3163C26.6137 46.4775 26.4369 46.6387 26.2497 46.7843C26.0313 46.9507 25.8025 47.0963 25.5841 47.2679C25.3033 47.4915 24.9757 47.5227 24.6377 47.5279C24.5857 47.5279 24.5337 47.5123 24.4869 47.5227C24.3621 47.5487 24.2529 47.6111 24.1125 47.5591C23.8005 47.4499 23.4573 47.4083 23.2233 47.1379C23.1245 47.0235 23.0569 46.8831 22.9633 46.7323C22.8177 46.8363 22.6513 46.9403 22.5005 47.0651C22.2093 47.3043 21.8973 47.4759 21.5125 47.4915C21.3721 47.4967 21.2213 47.5643 21.0861 47.5383C20.5765 47.4395 20.2333 47.1327 20.0461 46.6491C20.0149 46.5607 19.9785 46.4775 19.9369 46.3683C19.7549 46.5451 19.5625 46.6803 19.4325 46.8623C19.1829 47.2107 18.8293 47.4447 18.5329 47.7359C18.1949 48.0635 17.7893 48.2039 17.3317 48.2455C16.9417 48.2819 16.6817 48.0999 16.5621 47.7203C16.5413 47.6579 16.5153 47.5955 16.4841 47.5019C16.3593 47.5487 16.2553 47.5955 16.1409 47.6319C15.8757 47.7203 15.6105 47.8295 15.3349 47.8919C14.8149 48.0063 14.4665 47.7619 14.3833 47.2315C14.1389 47.3043 13.8945 47.3719 13.6501 47.4447C13.4577 47.5019 13.2705 47.5435 13.0833 47.4291C13.0365 47.3979 12.9689 47.4083 12.9065 47.3979C12.3449 47.3251 12.2097 46.9819 12.2097 46.5815C12.2097 46.4463 12.2201 46.3007 12.2669 46.1759C12.4177 45.7495 12.6153 45.3543 13.0209 45.0995C13.2289 44.9695 13.4213 44.8031 13.6345 44.6783C14.0141 44.4651 14.4457 44.4287 14.8721 44.4027C15.0021 44.3975 15.1061 44.4703 15.1633 44.5795C15.2725 44.7823 15.1789 44.9643 14.9449 44.9851C14.6849 45.0111 14.4353 45.0579 14.2169 45.2035C13.7905 45.4895 13.3693 45.7807 13.1249 46.2747C13.1717 46.3319 13.2237 46.3891 13.2705 46.4411C13.3121 46.4359 13.3329 46.4307 13.3589 46.4255C13.4421 46.4047 13.5201 46.3631 13.6033 46.3579C13.9049 46.3319 14.1753 46.1967 14.4613 46.1239C14.7733 46.0459 15.0437 45.8899 15.3349 45.7703C15.5845 45.6715 15.7613 45.8067 15.7977 46.0719C15.8237 46.2487 15.8029 46.4099 15.6833 46.5555C15.6521 46.5971 15.6365 46.6595 15.6053 46.7323C15.8497 46.7219 16.0265 46.6127 16.2033 46.5191C16.4581 46.3839 16.7181 46.3007 16.9989 46.2435C17.2329 46.1967 17.3629 46.2851 17.3785 46.5243C17.3941 46.7011 17.3837 46.8831 17.3837 47.0703C17.5761 47.2419 17.7841 47.1483 17.9765 47.0599C18.2417 46.9351 18.4497 46.7375 18.6629 46.5295C19.0581 46.1447 19.3753 45.7027 19.7393 45.2971C19.7809 45.2503 19.8485 45.2243 19.9057 45.1879C19.8537 45.1359 19.8433 45.1099 19.8329 45.1099C19.6093 45.1411 19.3961 45.1255 19.1881 45.0215C19.1465 45.0007 19.0685 45.0215 19.0217 45.0475C18.8605 45.1567 18.6889 45.1463 18.5069 45.1359C18.2729 45.1203 18.0337 45.1411 17.7997 45.1463C17.7321 45.1463 17.6645 45.1567 17.5969 45.1463C17.2849 45.1099 16.9781 45.0839 16.6713 45.0319C16.3853 44.9903 16.1045 44.9435 15.8341 44.8239C15.5325 44.6939 15.3297 44.4755 15.1425 44.2311C15.0489 44.1063 15.0073 43.9607 15.0021 43.7995C14.9969 43.5551 14.9397 43.3055 15.0073 43.0611C15.0593 42.8687 15.1061 42.6763 15.2829 42.5515M26.5721 44.8915C26.3693 44.9279 26.1665 44.9435 25.9689 44.8915C25.9377 44.8811 25.9013 44.8967 25.8649 44.9019C25.5945 44.9227 25.3189 44.9487 25.0485 44.9591C24.6741 44.9695 24.2997 44.9643 23.9305 44.9643C23.6965 44.9643 23.4573 44.9487 23.2233 44.9435C23.1869 44.9435 23.1557 44.9435 23.1193 44.9487C22.8489 44.9799 22.5837 44.9851 22.3133 44.9279C22.2665 44.9175 22.2145 44.9487 22.1625 44.9539C21.9441 44.9747 21.7257 45.0215 21.5177 45.0007C21.3773 44.9903 21.2473 45.0007 21.1173 45.0267C21.0601 45.0371 20.9925 45.0527 20.9457 45.0371C20.7429 44.9643 20.5609 45.0371 20.3841 45.1047C20.4049 45.3335 20.4257 45.5519 20.4465 45.7755C20.6389 45.9783 20.8573 46.1707 21.1017 46.3267C21.2629 46.4307 21.4293 46.4775 21.5853 46.4411C21.9077 46.3631 22.2041 46.1967 22.4641 45.9887C22.6565 45.8327 22.8229 45.6455 23.0049 45.4739C23.0777 45.4011 23.1557 45.3283 23.2441 45.2763C23.4313 45.1619 23.6341 45.2503 23.6757 45.4583C23.7017 45.5935 23.7017 45.7287 23.7225 45.8639C23.7329 45.9315 23.7433 46.0095 23.7797 46.0511C23.9721 46.2591 24.1541 46.4827 24.4869 46.4515C24.5337 46.4463 24.5857 46.4775 24.6377 46.4827C24.7209 46.4931 24.8041 46.5035 24.8873 46.4983C25.3241 46.4671 25.5997 46.1135 25.9793 45.9679C25.9949 45.9627 26.0001 45.9419 26.0157 45.9315C26.2705 45.6299 26.4941 45.3127 26.5721 44.8915ZM39.9205 44.4131C39.7021 44.4391 39.4889 44.4755 39.2809 44.4807C38.5997 44.5067 37.9133 44.5223 37.2269 44.5379C36.5353 44.5535 35.8489 44.4963 35.1573 44.5223C35.0325 44.5275 34.9025 44.4963 34.7777 44.4963C34.6789 44.4963 34.5801 44.5067 34.4865 44.5119C34.4241 44.8915 34.4397 44.9435 34.6633 45.2087C34.7777 45.3439 34.8869 45.4895 35.0013 45.6247C35.0325 45.6611 35.0689 45.7027 35.1105 45.7287C35.2457 45.8015 35.3809 45.8691 35.5161 45.9419C35.8749 46.1291 36.1349 46.0251 36.2701 45.6455C36.3481 45.4323 36.4365 45.2347 36.6497 45.1151C36.8213 45.0215 36.9877 45.0475 37.1021 45.1983C37.1593 45.2711 37.1957 45.3647 37.2529 45.4375C37.3361 45.5415 37.4193 45.6767 37.5337 45.7235C37.7313 45.8067 37.9237 45.9003 38.1525 45.9419C38.4749 45.9939 38.7453 45.9627 38.9949 45.7599C39.1613 45.6247 39.3173 45.6351 39.4941 45.7183C39.7021 45.8171 39.9153 45.9003 40.1337 45.9835C40.2065 46.0147 40.2897 46.0199 40.3729 46.0355C40.4249 45.7287 40.3313 45.4687 40.1649 45.2815C40.0557 45.1567 39.9465 45.0111 39.8945 44.8603C39.8633 44.7459 39.9101 44.6003 39.9205 44.4131ZM33.8001 44.5119C33.2593 44.5483 32.7445 44.5899 32.2193 44.6211C31.7253 44.6523 31.2365 44.6679 30.7425 44.6991C30.4981 44.7147 30.2537 44.7511 30.0093 44.7615C29.5153 44.7875 29.0213 44.8083 28.5273 44.8343C28.3765 44.8395 28.2257 44.8343 28.0749 44.8395C27.8721 44.8447 27.6693 44.8759 27.4509 44.9123C27.6381 45.1047 27.7941 45.2711 27.9605 45.4323C28.0073 45.4739 28.0749 45.4999 28.1373 45.5207C28.3869 45.6039 28.6521 45.6611 28.8913 45.7703C29.1669 45.9003 29.4581 45.9523 29.7493 45.9991C30.1549 46.0615 30.5709 46.0823 30.9765 46.0771C31.4133 46.0667 31.8501 46.0251 32.2765 45.9523C32.4949 45.9159 32.7445 45.8587 32.9005 45.6819C33.2177 45.3283 33.5661 44.9799 33.8001 44.5119Z" fill="#38312c"/>
<path d="M27.7576 35.8592C27.7576 36.2752 27.3208 36.5404 26.962 36.3584C26.6656 36.2076 26.364 36.0672 26.0624 35.9268C25.7816 35.7968 25.7036 35.6096 25.8128 35.3236C25.8388 35.2508 25.87 35.178 25.9116 35.1156C26.0572 34.8816 26.286 34.762 26.5356 34.9024C26.7228 35.0064 26.91 35.1052 27.0972 35.204C27.2012 35.2612 27.3104 35.3236 27.4248 35.3496C27.6536 35.4068 27.7524 35.542 27.742 35.7708C27.7472 35.7968 27.7576 35.8332 27.7576 35.8592Z" fill="#38312c"/>
<path d="M29.3904 31.4495C29.1408 31.4183 28.886 31.3819 28.6364 31.3559C28.5532 31.3455 28.4648 31.3455 28.3816 31.3455C28.1112 31.3455 27.9552 31.1479 28.0228 30.8879C28.1216 30.5239 28.392 30.3159 28.7768 30.3263C29.042 30.3315 29.3072 30.3419 29.5672 30.3627C29.9156 30.3939 30.0612 30.6175 30.056 30.9867C30.056 31.2623 29.7492 31.4963 29.4944 31.4547C29.4632 31.4495 29.4268 31.4495 29.3904 31.4443C29.3904 31.4443 29.3904 31.4443 29.3904 31.4495Z" fill="#38312c"/>
<path d="M20.0304 35.4015C20.0304 35.6147 19.8328 35.8695 19.604 35.9631C19.5312 35.9891 19.4584 36.0151 19.3804 36.0255C19.214 36.0463 19.0788 36.1035 18.9592 36.2387C18.85 36.3635 18.6992 36.4363 18.5224 36.3427C18.3508 36.2543 18.2572 36.1035 18.2884 35.8955C18.3456 35.5055 18.5276 35.2871 18.902 35.1467C19.0268 35.0999 19.1464 35.0323 19.2764 34.9907C19.4272 34.9439 19.5884 34.8919 19.7444 34.8867C19.9056 34.8815 19.9628 34.9595 19.9888 35.1207C19.9992 35.1987 20.0096 35.2715 20.02 35.3495C20.0252 35.3651 20.0252 35.3859 20.0304 35.4015Z" fill="#38312c"/>
<path d="M29.744 33.4151C29.8168 33.7947 29.38 34.1171 28.9848 33.9195C28.8184 33.8363 28.6416 33.7791 28.4752 33.6959C28.2984 33.6127 28.1008 33.5243 28.1008 33.2851C28.106 33.0511 28.2152 32.8587 28.4076 32.7235C28.626 32.5623 28.86 32.5987 29.094 32.6819C29.172 32.7131 29.2448 32.7599 29.3228 32.7911C29.7232 32.9575 29.7388 32.9783 29.744 33.4151Z" fill="#38312c"/>
<path d="M25.9065 30.7734C25.9013 31.101 25.7089 31.2258 25.5217 31.309C25.0901 31.5066 24.6429 31.6834 24.1957 31.855C23.9513 31.9486 23.7277 31.7406 23.7849 31.4858C23.8369 31.2674 23.9409 31.0594 24.1593 30.9658C24.5389 30.7994 24.9237 30.6278 25.3553 30.6226C25.4489 30.6226 25.5425 30.5914 25.6309 30.581C25.8545 30.5602 25.9169 30.6226 25.9065 30.7734Z" fill="#38312c"/>
<path d="M21.3513 32.7807C21.3773 33.0303 21.2629 33.2175 21.0341 33.3527C20.8521 33.4619 20.6805 33.4827 20.5193 33.3319C20.4361 33.2539 20.3529 33.2279 20.2385 33.2695C20.0825 33.3319 19.9473 33.2799 19.8485 33.1551C19.7497 33.0355 19.7393 32.8847 19.8017 32.7443C19.8849 32.5519 19.9837 32.3751 20.1813 32.2711C20.3165 32.2035 20.4465 32.1567 20.5973 32.1983C20.7481 32.2399 20.9041 32.2503 21.0445 32.3023C21.3201 32.4063 21.3565 32.4739 21.3513 32.7807Z" fill="#38312c"/>
<path d="M24.6272 33.987C24.6376 34.2938 24.4452 34.5382 24.154 34.6318C23.9356 34.6994 23.7276 34.793 23.5144 34.871C23.4052 34.9126 23.296 34.949 23.1816 34.8554C23.0568 34.7566 23.0204 34.6266 23.0516 34.4914C23.0828 34.3614 23.14 34.2262 23.218 34.1222C23.478 33.7634 23.8316 33.5606 24.284 33.5658C24.544 33.571 24.6168 33.6594 24.6272 33.987Z" fill="#38312c"/>
<path d="M35.1208 35.2456C35.2196 35.2716 35.3184 35.2872 35.4172 35.3184C35.5316 35.3548 35.6148 35.438 35.6304 35.5524C35.698 36.0152 35.4536 36.3948 34.9492 36.3636C34.8348 36.3584 34.7152 36.3584 34.6008 36.374C34.4708 36.3844 34.3512 36.3948 34.2576 36.2752C34.1588 36.1504 34.1588 36.0204 34.2004 35.8904C34.3148 35.542 34.736 35.2612 35.1208 35.2456Z" fill="#38312c"/>
<path d="M38.168 36.2336C38.3032 36.244 38.4436 36.244 38.5788 36.2648C38.844 36.3064 38.9376 36.4572 38.87 36.7172C38.7556 37.128 38.4696 37.31 38.0484 37.2528C37.9132 37.232 37.778 37.2112 37.6428 37.18C37.3308 37.1124 37.2268 36.8472 37.4244 36.5872C37.6012 36.3376 37.8404 36.1868 38.168 36.2336Z" fill="#38312c"/>
<path d="M37.4713 34.3978C37.1853 34.481 36.9617 34.195 37.0813 33.9142C37.2685 33.4774 37.6949 33.3006 38.0849 33.4358C38.1473 33.4566 38.2149 33.4826 38.2773 33.5086C38.4593 33.5866 38.4749 33.6438 38.4697 33.8414C38.4593 34.169 38.3189 34.3978 38.0069 34.5018C37.8873 34.5434 37.7677 34.5746 37.6481 34.4602C37.5961 34.4082 37.5025 34.4082 37.4713 34.3978Z" fill="#38312c"/>
<path d="M34.0705 31.1219C34.0601 31.4079 33.9405 31.5535 33.6545 31.6055C33.5869 31.6159 33.5193 31.6263 33.4517 31.6419C33.1761 31.6991 33.0149 31.4443 33.0617 31.2155C33.1033 31.0179 33.2177 30.8515 33.3789 30.7319C33.5193 30.6279 33.6857 30.5707 33.8573 30.6747C34.0289 30.7735 34.0809 30.9243 34.0705 31.1219Z" fill="#38312c"/>
<path d="M21.8869 37.6844C21.8921 37.9132 21.6737 38.1784 21.4293 38.2356C21.2993 38.2668 21.2109 38.2044 21.1329 38.1264C20.7949 37.778 21.0445 37.2528 21.3617 37.1436C21.5541 37.076 21.8401 37.2528 21.8713 37.4556C21.8765 37.518 21.8765 37.5908 21.8869 37.6844Z" fill="#38312c"/>
<path d="M32.1361 35.8955C32.1361 35.6147 32.4949 35.2455 32.7809 35.2247C32.9733 35.2091 33.1137 35.3651 33.1033 35.5575C33.0825 35.8851 32.9577 36.1243 32.6301 36.2387C32.3441 36.3375 32.1309 36.1919 32.1361 35.8955Z" fill="#38312c"/>
<path d="M36.1349 33.2747C36.1349 33.4879 36.0569 33.7167 35.7865 33.8363C35.6513 33.8935 35.5265 33.9559 35.3861 33.8311C35.2457 33.7011 35.1937 33.5399 35.2561 33.3683C35.3445 33.1395 35.5057 32.9627 35.7553 32.8951C35.9997 32.8327 36.1609 32.9627 36.1349 33.2747Z" fill="#38312c"/>
<path d="M32.4844 33.1135C32.4688 33.4775 32.2816 33.6647 31.928 33.7271C31.6784 33.7739 31.4652 33.5347 31.5692 33.2695C31.6576 33.0511 31.798 32.8691 32.032 32.7859C32.3076 32.6975 32.4948 32.8327 32.4844 33.1135Z" fill="#38312c"/>
</g>
<defs>
<linearGradient id="paint0_linear_10375_10185" x1="12.682" y1="34.8413" x2="45.032" y2="34.8413" gradientUnits="userSpaceOnUse">
<stop stop-color="#5A8A5E"/>
<stop offset="1" stop-color="#9DC4A0"/>
</linearGradient>
<linearGradient id="paint1_linear_10375_10185" x1="12.9145" y1="48.9433" x2="45.3784" y2="48.9433" gradientUnits="userSpaceOnUse">
<stop stop-color="#5A8A5E"/>
<stop offset="1" stop-color="#9DC4A0"/>
</linearGradient>
<clipPath id="clip0_10375_10185">
<rect width="52" height="52" rx="12" fill="white"/>
</clipPath>
</defs>
</svg>
