<svg width="52" height="52" viewBox="0 0 52 52" fill="none" xmlns="http://www.w3.org/2000/svg">
<g clip-path="url(#clip0_10375_10175)">
<path d="M40.2845 40.7785C40.3937 40.5653 40.4717 40.3677 40.5861 40.1857C40.8253 39.7957 41.0853 39.4161 41.3349 39.0261C41.3713 38.9741 41.4077 38.9169 41.4285 38.8597C41.6001 38.4801 41.8341 38.1421 42.0681 37.8041C42.2449 37.5441 42.4009 37.2685 42.5673 36.9981C42.7649 36.6757 42.9573 36.3429 43.1705 36.0257C43.3057 35.8281 43.3317 35.6045 43.4045 35.3757C43.1549 35.4329 42.9365 35.5265 42.7285 35.6513C42.2813 35.9165 41.9381 36.2857 41.6365 36.6965C41.5897 36.7589 41.5429 36.8213 41.4909 36.8889C41.4233 36.9773 41.3453 37.0033 41.2413 36.9461C41.0281 36.8265 40.7993 36.7225 40.5913 36.5925C40.2117 36.3533 39.8269 36.1193 39.4681 35.8541C39.0469 35.5369 38.6049 35.2509 38.2513 34.8453C38.0849 34.6529 37.8613 34.5177 37.6793 34.3461C37.5129 34.1849 37.3725 34.0029 37.2217 33.8313C37.1957 33.8001 37.1801 33.7637 37.1489 33.7377C36.9565 33.5609 36.7589 33.3893 36.5665 33.2125C36.5093 33.1605 36.4573 33.0981 36.4053 33.0357C36.0881 32.6925 35.7813 32.3389 35.4589 32.0009C35.0481 31.5641 34.6321 31.1221 34.2109 30.6957C33.7949 30.2745 33.3685 29.8585 32.9369 29.4477C32.6977 29.2189 32.4273 29.0213 32.1829 28.7925C31.8865 28.5169 31.6005 28.2309 31.3093 27.9501C31.0857 27.7421 30.8517 27.5497 30.6333 27.3313C30.3473 27.0453 30.0301 26.7905 29.7961 26.4577C29.7493 26.3901 29.6661 26.3381 29.6089 26.2757C29.5049 26.1665 29.3957 26.0625 29.3021 25.9429C29.1357 25.7297 28.9693 25.5165 28.8133 25.2981C28.7301 25.1785 28.6469 25.0537 28.7613 24.9081C28.8393 24.8041 29.0057 24.7937 29.1825 24.8717C29.2137 24.8821 29.2449 24.8925 29.2657 24.9185C29.4945 25.1785 29.8377 25.3241 30.0353 25.6257C30.0873 25.7089 30.1861 25.7609 30.2589 25.8285C30.4253 25.9741 30.5969 26.1145 30.7581 26.2653C30.9297 26.4265 31.0701 26.6241 31.2573 26.7645C31.6473 27.0557 31.9749 27.4197 32.3857 27.6797C32.5157 27.7629 32.6197 27.8929 32.7341 28.0021C32.8485 28.1061 32.9681 28.2101 33.0825 28.3141C33.4101 28.6157 33.7481 28.9017 34.0497 29.2189C34.2265 29.4061 34.4449 29.5517 34.6113 29.7545C34.8661 30.0561 35.1677 30.3161 35.4485 30.5917C35.5109 30.6541 35.5733 30.7165 35.6201 30.7893C35.6877 30.8985 35.7709 30.9817 35.8749 31.0649C36.0101 31.1689 36.1141 31.3093 36.2337 31.4341C36.4833 31.6993 36.7381 31.9593 36.9825 32.2349C37.1489 32.4221 37.2893 32.6353 37.4505 32.8277C37.5181 32.9109 37.6117 32.9785 37.6949 33.0461C37.9497 33.2489 38.1993 33.4465 38.4125 33.7013C38.5165 33.8261 38.6517 33.9301 38.7817 34.0393C39.0105 34.2265 39.2393 34.4033 39.4681 34.5853C39.5045 34.6165 39.5409 34.6529 39.5565 34.6945C39.5877 34.7777 39.6553 34.7985 39.7281 34.8349C39.9049 34.9233 40.0661 35.0377 40.2325 35.1417C40.3989 35.2457 40.5757 35.3393 40.7317 35.4589C40.9241 35.6045 41.1061 35.7657 41.2933 35.9217C41.3193 35.9425 41.3453 35.9581 41.3817 35.9841C41.6365 35.5421 41.9849 35.1833 42.3853 34.8817C42.7025 34.6477 43.0509 34.4501 43.4357 34.3409C43.6957 34.2681 44.0077 34.4605 44.0909 34.7101C44.2521 35.2041 44.1533 35.6565 43.9037 36.0985C43.7529 36.3689 43.6385 36.6601 43.4825 36.9253C43.3265 37.1905 43.1393 37.4401 42.9729 37.7001C42.8689 37.8665 42.7701 38.0381 42.6713 38.2045C42.5205 38.4593 42.3957 38.7245 42.2189 38.9637C41.9173 39.3745 41.7041 39.8373 41.4389 40.2689C41.2465 40.5757 41.0541 40.8877 40.8773 41.1997C40.8461 41.2517 40.8617 41.3349 40.8773 41.4025C40.9293 41.6937 40.7785 41.8861 40.4821 41.8861C40.4249 41.8861 40.3677 41.8913 40.3157 41.8705C40.0453 41.7561 39.7749 41.6365 39.5097 41.5117C39.3173 41.4181 39.1301 41.3141 38.9429 41.2153C38.7557 41.1165 38.5633 41.0229 38.3709 40.9293C38.2981 40.8929 38.2305 40.8565 38.1577 40.8253C38.0277 40.7681 37.8925 40.7265 37.8041 40.5913C37.7729 40.5393 37.7105 40.5029 37.6585 40.4717C37.4349 40.3521 37.2113 40.2377 36.9877 40.1233C36.9513 40.1077 36.9045 40.0973 36.8785 40.0713C36.6705 39.8581 36.3585 39.7905 36.1505 39.5825C35.8385 39.2653 35.4173 39.1145 35.1105 38.7973C34.8869 38.5685 34.6113 38.3865 34.3617 38.1785C34.3149 38.1369 34.2733 38.0849 34.2317 38.0381C34.1381 37.9445 34.0549 37.8457 33.9197 37.7885C33.8001 37.7365 33.7065 37.6273 33.6077 37.5389C33.5609 37.4973 33.5193 37.4505 33.4725 37.4037C33.1605 37.0969 32.8589 36.7693 32.5261 36.4833C32.1673 36.1765 31.8813 35.8125 31.5537 35.4797C31.1741 35.0897 30.7997 34.6893 30.4253 34.2941C30.1289 33.9873 29.8169 33.6909 29.5361 33.3685C29.2605 33.0513 29.0265 32.7029 28.7665 32.3701C28.6885 32.2713 28.5897 32.1829 28.5221 32.0789C28.3401 31.8137 28.1737 31.5381 27.9969 31.2677C27.9657 31.2209 27.9241 31.1845 27.8877 31.1429C27.7161 30.9609 27.6537 30.7321 27.6017 30.4981C27.5861 30.4201 27.6069 30.3213 27.6381 30.2433C27.7057 30.0457 27.8617 30.0197 28.0177 30.1653C28.1425 30.2849 28.2673 30.4045 28.3401 30.5709C28.3713 30.6385 28.4493 30.6801 28.5065 30.7373C28.5741 30.8101 28.6313 30.8933 28.6989 30.9713C28.7457 31.0233 28.7925 31.0753 28.8393 31.1273C28.9381 31.2469 29.0369 31.3717 29.1357 31.4913C29.2813 31.6681 29.4321 31.8449 29.5777 32.0165C29.7077 32.1673 29.8429 32.3129 29.9729 32.4585C30.1965 32.7029 30.4201 32.9473 30.6489 33.1917C30.7373 33.2905 30.8361 33.3789 30.9245 33.4777C31.2053 33.7793 31.5381 34.0237 31.7773 34.3669C31.8813 34.5125 32.0425 34.6113 32.1725 34.7413C32.4065 34.9649 32.6665 35.1729 32.8485 35.4329C32.9577 35.5889 33.1137 35.6877 33.2229 35.8385C33.3425 36.0049 33.5349 36.1141 33.6961 36.2545C33.8157 36.3585 33.9249 36.4729 34.0393 36.5821C34.1225 36.6549 34.2317 36.7069 34.2889 36.7953C34.4657 37.0501 34.7257 37.1957 34.9597 37.3777C35.1261 37.5025 35.2717 37.6429 35.4277 37.7781C35.5161 37.8561 35.6149 37.9237 35.7085 37.9965C35.8333 38.0953 35.9477 38.2045 36.0725 38.2981C36.1765 38.3761 36.2909 38.4489 36.4001 38.5217C36.5041 38.5893 36.6185 38.6517 36.7225 38.7245C36.9773 38.8961 37.2113 39.1093 37.4817 39.2393C37.6793 39.3381 37.7885 39.5461 37.9913 39.5981C38.2929 39.6761 38.5217 39.8945 38.8025 40.0089C38.9325 40.0609 39.0625 40.1337 39.1717 40.2221C39.3849 40.3885 39.6085 40.5289 39.8789 40.5913C40.0245 40.6381 40.1441 40.7161 40.2845 40.7785Z" fill="#38312c"/>
<path d="M22.5628 24.8511C22.7084 25.1371 22.6408 25.3607 22.5472 25.5687C22.3028 26.1303 22.0376 26.6815 21.7984 27.2431C21.6476 27.5967 21.4812 27.9347 21.2888 28.2623C21.0288 28.7043 20.8052 29.1671 20.5608 29.6195C20.488 29.7599 20.3996 29.8899 20.3164 30.0251C20.1136 30.3579 19.9212 30.6959 19.708 31.0183C19.4428 31.4291 19.162 31.8347 18.8916 32.2455C18.4808 32.8591 18.07 33.4727 17.6592 34.0915C17.446 34.4087 17.2224 34.7207 17.0404 35.0535C16.7544 35.5839 16.5152 36.1351 16.406 36.7383C16.276 37.4871 16.3384 38.2047 16.588 38.9171C16.666 39.1355 16.7336 39.3539 16.8376 39.5619C16.9572 39.8063 17.108 40.0403 17.2484 40.2795C17.3108 40.3887 17.3784 40.4979 17.4304 40.6175C17.5292 40.8359 17.6748 41.0231 17.836 41.1999C17.914 41.2831 17.9556 41.4079 18.0232 41.5015C18.1584 41.6835 18.304 41.8551 18.4184 42.0579C18.5068 42.2191 18.694 42.3179 18.8188 42.4583C18.9384 42.5935 19.0424 42.7391 19.1568 42.8847C19.1828 42.9159 19.1984 42.9575 19.2296 42.9731C19.3544 43.0303 19.4272 43.1239 19.474 43.2539C19.4844 43.2903 19.5156 43.3319 19.5468 43.3423C19.6508 43.3839 19.708 43.4619 19.7444 43.5659C19.7548 43.6023 19.786 43.6335 19.8172 43.6595C20.2332 44.0235 20.6128 44.4239 20.9248 44.8763C20.9872 44.9647 21.0652 45.0531 21.1536 45.1155C21.3616 45.2611 21.5072 45.4483 21.6112 45.6771C21.6736 45.8175 21.7724 45.9475 21.84 46.0879C21.9284 46.2803 21.9076 46.4675 21.8192 46.6599C21.736 46.8367 21.6892 47.0291 21.632 47.2163C21.528 47.5387 21.4292 47.8663 21.3252 48.1887C21.3148 48.2251 21.2992 48.2667 21.294 48.3031C21.2628 48.5995 21.5956 49.1247 21.8764 49.2131C21.9388 49.2339 22.0168 49.2287 22.074 49.2079C22.2508 49.1403 22.4276 49.0623 22.594 48.9791C22.6512 48.9479 22.7084 48.8907 22.7292 48.8283C22.7708 48.7087 22.7864 48.5787 22.8228 48.4591C22.9268 48.1523 23.036 47.8403 23.1452 47.5335C23.3532 46.9563 23.582 46.3895 23.7692 45.8071C23.9044 45.3911 23.946 44.9491 23.8992 44.5123C23.8732 44.2367 23.8576 43.9559 23.8108 43.6855C23.7744 43.4775 23.6912 43.2747 23.6236 43.0719C23.556 42.8587 23.5092 42.6403 23.4156 42.4427C23.3116 42.2139 23.1712 42.0007 23.0516 41.7771C22.9216 41.5327 22.7968 41.2883 22.6564 41.0491C22.5732 40.9035 22.4744 40.7735 22.386 40.6331C22.2248 40.3783 22.0636 40.1235 21.9076 39.8687C21.8764 39.8167 21.8556 39.7491 21.814 39.7023C21.372 39.2291 21.1692 38.6259 20.9716 38.0383C20.8104 37.5443 20.7324 37.0191 20.7792 36.4887C20.7896 36.3847 20.8052 36.2807 20.826 36.1819C20.9248 35.7399 20.9664 35.2875 21.1692 34.8715C21.3356 34.5335 21.5072 34.2059 21.7412 33.9147C21.9024 33.7119 22.0584 33.4935 22.1832 33.2699C22.4068 32.8643 22.6876 32.5003 22.9736 32.1363C23.1868 31.8659 23.3896 31.5955 23.608 31.3303C23.7172 31.1951 23.842 31.0755 23.9616 30.9455C24.0708 30.8311 24.1644 30.7063 24.1956 30.5451C24.232 30.3683 24.3204 30.2799 24.4296 30.2851C24.5804 30.2955 24.6844 30.4203 24.7 30.5971C24.7156 30.7791 24.6584 30.9507 24.5492 31.0859C24.44 31.2211 24.3516 31.3719 24.258 31.5175C24.0604 31.8243 23.8368 32.1155 23.6236 32.4119C23.3844 32.7499 23.1452 33.0827 22.906 33.4207C22.724 33.6755 22.5368 33.9303 22.36 34.1955C22.256 34.3515 22.1572 34.5179 22.0792 34.6895C21.9076 35.0535 21.7464 35.4227 21.58 35.7867C21.5644 35.8231 21.5488 35.8647 21.554 35.9011C21.5644 36.3275 21.5748 36.7591 21.6008 37.1855C21.6112 37.3155 21.6736 37.4455 21.7204 37.5703C21.8556 37.9135 21.996 38.2567 22.1884 38.5791C22.3652 38.8755 22.5056 39.1927 22.724 39.4631C22.8332 39.6035 22.9268 39.7595 23.0048 39.9207C23.0776 40.0819 23.192 40.2067 23.3012 40.3419C23.3896 40.4459 23.4416 40.5863 23.5092 40.7059C23.5144 40.7215 23.5144 40.7475 23.5248 40.7475C23.738 40.8567 23.738 41.1063 23.8576 41.2779C23.9824 41.4547 24.076 41.6575 24.1488 41.8655C24.3048 42.3179 24.4556 42.7703 24.518 43.2435C24.544 43.4307 24.596 43.6179 24.6324 43.8051C24.7052 44.1691 24.7104 44.5331 24.6376 44.8919C24.6272 44.9439 24.6116 45.0011 24.6168 45.0583C24.6636 45.5627 24.492 46.0307 24.3464 46.4935C24.2372 46.8315 24.076 47.1487 23.946 47.4815C23.868 47.6791 23.8056 47.8819 23.7328 48.0847C23.66 48.2823 23.5768 48.4799 23.504 48.6827C23.4728 48.7711 23.4364 48.8803 23.4676 48.9583C23.5716 49.2703 23.4052 49.4679 23.1972 49.6343C22.9996 49.7903 22.7708 49.9099 22.5576 50.0451C22.2924 50.2063 21.9856 50.2375 21.6944 50.2947C21.6112 50.3103 21.4968 50.2687 21.4292 50.2115C21.0704 49.9099 20.7896 49.5407 20.6596 49.0883C20.5972 48.8751 20.6336 48.6307 20.6596 48.4019C20.6804 48.1835 20.7272 47.9599 20.7896 47.7467C20.8676 47.4919 20.9768 47.2423 21.0704 46.9875C21.1016 46.9043 21.1328 46.8263 21.164 46.7431C21.2212 46.6079 21.1952 46.5143 21.0704 46.4155C20.9352 46.3011 20.8208 46.1451 20.722 45.9943C20.6128 45.8227 20.4724 45.6875 20.332 45.5471C20.0044 45.2039 19.6924 44.8451 19.3752 44.4967C19.2608 44.3667 19.1516 44.2315 19.032 44.1171C18.6628 43.7583 18.3092 43.3839 18.044 42.9419C18.0128 42.8899 17.9764 42.8275 17.9244 42.7963C17.7736 42.7079 17.706 42.5519 17.5916 42.4271C17.2484 42.0527 17.0352 41.5951 16.744 41.1895C16.5776 40.9607 16.3904 40.7215 16.3384 40.4199C16.3332 40.3887 16.3124 40.3627 16.2968 40.3315C16.0732 39.8791 15.8652 39.4163 15.7508 38.9171C15.6832 38.6155 15.6052 38.3139 15.626 37.9967C15.6416 37.7523 15.626 37.5027 15.626 37.2583C15.6208 36.5667 15.808 35.9167 16.0836 35.2979C16.2604 34.9027 16.4944 34.5283 16.7284 34.1591C17.0248 33.7015 17.3524 33.2595 17.6644 32.8123C17.8256 32.5783 17.966 32.3287 18.1272 32.0895C18.356 31.7463 18.5952 31.4083 18.824 31.0703C18.9956 30.8155 19.1724 30.5555 19.3336 30.2955C19.5572 29.9419 19.7808 29.5831 19.9992 29.2243C20.2592 28.7927 20.5296 28.3611 20.774 27.9139C21.1328 27.2587 21.4656 26.5931 21.8192 25.9327C21.9648 25.6571 22.126 25.3919 22.2872 25.1267C22.36 25.0331 22.4588 24.9655 22.5628 24.8511Z" fill="#38312c"/>
<path d="M40.6849 9.17307C40.7473 8.95467 40.8669 8.85067 40.9657 8.73107C41.4025 8.18507 41.8549 7.65467 42.2813 7.09827C42.4997 6.81747 42.6557 6.48987 42.8585 6.19347C43.0717 5.88667 43.3161 5.60587 43.6021 5.36147C43.7789 5.21067 43.8933 5.24707 43.9661 5.46547C44.0129 5.61627 43.9817 5.74627 43.8985 5.87107C43.8049 6.01667 43.7165 6.16747 43.6021 6.34947C43.7269 6.31307 43.7581 6.23507 43.8049 6.18307C43.8881 6.08947 43.9661 5.98547 44.0649 5.90747C44.2417 5.77227 44.4393 5.85027 44.4653 6.06867C44.4757 6.15707 44.4601 6.26107 44.4237 6.34427C44.3613 6.47947 44.2625 6.59907 44.1845 6.72907C44.0961 6.86947 44.0129 7.01507 43.9557 7.18667C44.0649 7.09307 44.1741 7.00467 44.2781 6.91107C44.4549 6.74467 44.6005 6.78107 44.6941 6.99947C44.7669 7.17107 44.7513 7.32187 44.6525 7.47267C44.4237 7.81587 44.2313 8.18507 43.9297 8.47627C43.8777 8.52307 43.8465 8.59067 43.8153 8.65827C43.5969 9.13147 43.2641 9.50587 42.8897 9.85427C42.6661 10.0623 42.4477 10.2599 42.1721 10.4055C41.9901 10.5043 41.8549 10.6863 41.6833 10.8163C41.3765 11.0503 41.1269 11.3571 40.7681 11.5287C40.7525 11.5339 40.7421 11.5443 40.7265 11.5547C40.3053 11.9811 39.7645 12.2515 39.2861 12.6103C38.9429 12.8651 38.5737 13.0835 38.2201 13.3227C37.9757 13.4891 37.7469 13.6919 37.4869 13.8219C37.2997 13.9103 37.1593 14.0611 36.9825 14.1443C36.5977 14.3211 36.2649 14.5655 35.9113 14.7839C35.7397 14.8931 35.5681 15.0023 35.3549 15.0335C35.2977 15.0439 35.2405 15.0855 35.1937 15.1271C34.8921 15.3767 34.5541 15.5535 34.2005 15.7199C33.8937 15.8603 33.5973 16.0267 33.2957 16.1827C33.1293 16.2659 32.9577 16.3491 32.7861 16.4271C32.3753 16.6091 31.9645 16.7755 31.5589 16.9627C31.3301 17.0667 31.1117 17.1811 30.8569 17.2227C30.6385 17.2539 30.5189 17.2123 30.4513 17.0355C30.3681 16.8223 30.4253 16.5987 30.5865 16.5051C30.7425 16.4167 30.9089 16.3335 31.0701 16.2503C31.2885 16.1411 31.5017 16.0059 31.7305 15.9279C32.0633 15.8135 32.3545 15.6211 32.6613 15.4651C33.2229 15.1843 33.7585 14.8619 34.3097 14.5655C34.4917 14.4667 34.6841 14.3887 34.8713 14.3107C34.9649 14.2691 35.0429 14.2223 35.1209 14.1443C35.2457 14.0247 35.4069 13.9467 35.5577 13.8583C35.8541 13.6867 36.1609 13.5359 36.4469 13.3539C36.6081 13.2499 36.7381 13.1095 36.9409 13.0887C36.9565 13.0887 36.9721 13.0783 36.9825 13.0627C37.0501 12.9223 37.1905 12.8807 37.3153 12.8079C37.6065 12.6363 37.8873 12.4491 38.1733 12.2671C38.4281 12.1059 38.6725 11.9239 38.9013 11.7263C39.0833 11.5651 39.3017 11.4403 39.5045 11.3051C39.8113 11.1075 40.1233 10.9203 40.4249 10.7175C40.5653 10.6239 40.6953 10.4991 40.8253 10.3899C41.0697 10.1871 41.3193 9.97907 41.5689 9.77627C41.6365 9.72427 41.7197 9.69307 41.7925 9.64107C41.8601 9.59427 41.9173 9.53707 41.9849 9.48507C41.9745 9.46947 41.9693 9.45907 41.9589 9.44347C41.9121 9.45907 41.8601 9.47987 41.8133 9.49027C41.6937 9.51107 41.5897 9.46947 41.5221 9.37067C41.4597 9.28747 41.5013 9.20427 41.5585 9.13147C41.7093 8.91827 41.8653 8.70507 42.0005 8.47107C41.8913 8.55947 41.7665 8.63227 41.6781 8.74147C41.5117 8.93907 41.2829 9.03787 41.0645 9.14187C40.9553 9.18347 40.8357 9.16267 40.6849 9.17307ZM43.2277 8.11227C43.2433 8.12267 43.2537 8.13307 43.2693 8.14347C43.3889 8.05507 43.4721 7.94587 43.5137 7.80547C43.4981 7.79507 43.4877 7.78467 43.4721 7.77427C43.3941 7.88867 43.3109 8.00307 43.2277 8.11227ZM42.9885 8.48667C42.9781 8.47627 42.9625 8.46587 42.9521 8.45547C42.9053 8.51267 42.8585 8.56987 42.8065 8.62187C42.8221 8.63227 42.8325 8.64267 42.8481 8.65307C42.8949 8.60107 42.9417 8.54387 42.9885 8.48667Z" fill="#38312c"/>
<path d="M9.12085 23.6757C9.15725 23.3429 9.11045 22.9841 9.27685 22.6461C9.33925 22.5213 9.33405 22.3653 9.36005 22.2249C9.42245 21.8765 9.56805 21.5593 9.72405 21.2473C9.90605 20.8781 10.114 20.5245 10.3064 20.1605C10.3116 20.1553 10.3168 20.1449 10.3168 20.1397C10.6964 19.6509 11.0032 19.1101 11.4556 18.6785C11.8248 18.3249 12.194 17.9765 12.5632 17.6333C12.6204 17.5813 12.6932 17.5397 12.7556 17.4929C12.8804 17.3993 13 17.2953 13.1248 17.2017C13.3796 17.0093 13.6292 16.8169 13.8892 16.6401C14.0868 16.5049 14.2896 16.3801 14.4976 16.2657C14.6068 16.2033 14.7368 16.1825 14.846 16.1253C14.9916 16.0473 15.1269 15.9485 15.2673 15.8601C15.34 15.8133 15.418 15.7769 15.496 15.7405C15.6572 15.6573 15.8184 15.5689 15.9796 15.4961C16.3696 15.3193 16.7648 15.1633 17.1496 14.9761C17.6332 14.7369 18.148 14.5757 18.6628 14.4145C18.8084 14.3677 18.9801 14.3833 19.1309 14.3989C19.3128 14.4197 19.396 14.6173 19.292 14.7681C19.2556 14.8253 19.1932 14.8669 19.136 14.9085C18.7668 15.1789 18.3457 15.3453 17.9349 15.5377C17.2953 15.8393 16.6608 16.1461 16.0212 16.4477C15.7508 16.5777 15.4752 16.6973 15.2048 16.8325C15.1112 16.8793 15.028 16.9365 14.9448 16.9937C14.7628 17.1185 14.5808 17.2485 14.3988 17.3733C14.1024 17.5761 13.8164 17.7841 13.5096 17.9661C12.9948 18.2781 12.61 18.7357 12.1628 19.1257C11.8976 19.3597 11.7 19.6665 11.4608 19.9369C11.1592 20.2749 10.9148 20.6545 10.6808 21.0393C10.4936 21.3409 10.3688 21.6789 10.2336 22.0065C10.1296 22.2561 10.0516 22.5109 9.95805 22.7657C9.94765 22.7969 9.92165 22.8229 9.92165 22.8541C9.89565 23.0621 9.87485 23.2753 9.85925 23.4885C9.81245 24.1905 10.0672 24.8145 10.3636 25.4229C10.4364 25.5685 10.556 25.6933 10.6496 25.8285C10.7276 25.9481 10.8056 26.0677 10.8836 26.1873C10.9148 26.2341 10.9408 26.2861 10.9824 26.3225C11.076 26.4161 11.1852 26.4993 11.2788 26.5877C11.466 26.7593 11.6532 26.9309 11.83 27.1129C12.168 27.4561 12.4904 27.8097 12.8284 28.1581C12.948 28.2829 13.0884 28.3817 13.2184 28.4961C13.26 28.5325 13.3068 28.5689 13.3276 28.6157C13.3692 28.7197 13.442 28.7769 13.5409 28.8289C13.7696 28.9485 13.91 29.3645 13.806 29.5777C13.702 29.8013 13.5252 29.8533 13.3224 29.7077C12.948 29.4373 12.5684 29.1721 12.2148 28.8705C12.1316 28.7977 12.0588 28.7093 11.9808 28.6313C11.5492 28.1893 11.0968 27.7629 10.6964 27.2949C10.4 26.9517 10.0568 26.6397 9.85405 26.2185C9.71885 25.9429 9.53685 25.6933 9.45365 25.3865C9.41205 25.2357 9.33925 25.0953 9.28205 24.9445C9.12085 24.5285 9.15205 24.1125 9.12085 23.6757Z" fill="#38312c"/>
<path d="M28.2516 14.1754C28.1788 14.165 28.106 14.1598 28.0384 14.1442C27.8824 14.113 27.8148 14.0454 27.794 13.8946C27.7732 13.7386 27.8252 13.6242 27.9604 13.5566C28.0488 13.515 28.1372 13.4786 28.2256 13.4578C28.6468 13.3434 29.068 13.229 29.4892 13.1198C29.9572 13.0002 30.3992 12.8182 30.8516 12.657C31.0544 12.5842 31.2572 12.5166 31.4444 12.423C31.694 12.3034 31.928 12.163 32.1724 12.033C32.2088 12.0122 32.24 11.9862 32.2764 11.981C32.5884 11.9186 32.812 11.6846 33.0928 11.5702C33.4412 11.4246 33.748 11.2166 34.0652 11.0242C34.4864 10.7746 34.9076 10.5198 35.3288 10.2702C35.6356 10.0882 35.9476 9.91658 36.244 9.72938C36.4208 9.61498 36.6184 9.53178 36.7588 9.35498C36.8212 9.27698 36.946 9.24058 37.0396 9.18858C37.44 8.96498 37.7416 8.61658 38.1004 8.33578C38.324 8.15898 38.5424 7.97698 38.7452 7.77938C38.9064 7.61818 39.0624 7.44138 39.2496 7.31658C39.5824 7.08778 39.8008 6.74978 40.0816 6.47938C40.2428 6.32858 40.4092 6.17778 40.5496 6.01138C40.82 5.69938 41.0748 5.37178 41.3348 5.05458C41.3608 5.02338 41.3816 4.98698 41.4128 4.96098C41.5636 4.83098 41.7248 4.87258 41.8184 5.04938C41.8964 5.20018 41.8964 5.34058 41.834 5.50698C41.626 6.02698 41.2932 6.45858 40.924 6.86418C40.69 7.11898 40.4456 7.37378 40.2064 7.62338C40.1804 7.65458 40.1544 7.68578 40.118 7.70658C39.9152 7.81058 39.7852 7.99258 39.6344 8.15898C39.4784 8.33058 39.3016 8.47618 39.1352 8.63738C38.8908 8.86618 38.6568 9.10538 38.4072 9.31858C38.1888 9.50578 37.9808 9.70858 37.7052 9.83858C37.5128 9.92698 37.3672 10.1194 37.1904 10.2546C37.1176 10.3118 37.0292 10.343 36.946 10.395C36.8576 10.447 36.7848 10.525 36.6912 10.5614C36.4052 10.6862 36.1764 10.8994 35.9112 11.0502C35.6616 11.1906 35.4172 11.3622 35.1624 11.5078C34.6892 11.773 34.2524 12.1006 33.7376 12.2878C33.7064 12.2982 33.6752 12.3138 33.6596 12.3398C33.4828 12.553 33.202 12.5894 32.9732 12.7038C32.838 12.7714 32.682 12.813 32.5676 12.9222C32.5416 12.9482 32.4948 12.9534 32.4636 12.969C32.3544 13.0158 32.2504 13.0678 32.1412 13.1094C32.0268 13.1562 31.9072 13.1926 31.7876 13.2342C31.6264 13.2966 31.46 13.3486 31.3092 13.4318C31.018 13.593 30.6956 13.671 30.3836 13.7698C29.9728 13.8998 29.5516 13.9934 29.1304 14.0714C28.8392 14.1338 28.5428 14.1442 28.2516 14.1754Z" fill="#38312c"/>
<path d="M13.4731 23.2182C13.5511 22.797 13.5927 22.3394 13.7175 21.9078C13.8319 21.5074 13.9723 21.1122 14.2115 20.7586C14.6639 20.0878 15.1787 19.4794 15.7923 18.9594C15.9899 18.793 16.2343 18.6786 16.4319 18.5122C16.7387 18.2574 17.1027 18.1222 17.4615 17.9766C17.8099 17.8362 18.1583 17.6802 18.5535 17.6854C18.8187 17.6906 18.9851 17.9506 18.8707 18.1898C18.8135 18.3094 18.7303 18.403 18.6003 18.4446C18.3403 18.5382 18.0751 18.6214 17.8203 18.7254C17.6019 18.8138 17.3887 18.923 17.1807 19.0426C16.9311 19.183 16.6815 19.3234 16.4527 19.4898C16.2135 19.6718 15.9951 19.8798 15.7767 20.0878C15.5583 20.2958 15.3451 20.509 15.1423 20.7326C14.8875 21.0134 14.7107 21.341 14.5755 21.6894C14.3727 22.2042 14.2323 22.7346 14.2635 23.3014C14.2791 23.6186 14.3415 23.9202 14.4299 24.2114C14.4923 24.4142 14.5911 24.617 14.7627 24.7782C14.9447 24.9498 15.0747 25.1682 15.2307 25.3658C15.2723 25.4178 15.3295 25.4594 15.3815 25.5062C15.5843 25.6726 15.8339 25.7818 15.9639 26.021C16.0159 26.1198 16.0679 26.2186 16.1147 26.3174C16.1719 26.4422 16.1511 26.567 16.0887 26.6814C15.9535 26.9466 15.7923 26.983 15.5635 26.7906C15.3451 26.6086 15.1371 26.4162 14.9187 26.229C14.7939 26.1198 14.6587 26.021 14.5339 25.917C14.4611 25.8546 14.3883 25.787 14.3363 25.7142C14.2063 25.5374 14.0815 25.3502 13.9619 25.163C13.9307 25.111 13.9151 25.0486 13.8943 24.9862C13.8631 24.8978 13.8423 24.8042 13.7955 24.721C13.6551 24.4714 13.5979 24.201 13.5667 23.9254C13.5459 23.7018 13.5095 23.4782 13.4731 23.2182Z" fill="#38312c"/>
<path d="M39.7385 8.60097C40.1597 8.09657 40.5549 7.58697 40.9865 7.11377C41.3349 6.72897 41.6781 6.33377 42.0265 5.93857C42.1097 5.84497 42.1721 5.73057 42.2501 5.63177C42.3905 5.46017 42.5413 5.29897 42.6869 5.13257C42.7597 5.04937 42.8325 4.96097 42.9157 4.88817C42.9989 4.81537 43.0873 4.75297 43.1809 4.69577C43.2537 4.65417 43.3629 4.60217 43.4149 4.69577C43.4617 4.77377 43.4669 4.88817 43.4773 4.98697C43.4825 5.01297 43.4565 5.04417 43.4357 5.07017C43.2173 5.41857 43.0145 5.78257 42.7753 6.11537C42.5049 6.49497 42.2189 6.86937 41.8965 7.20737C41.5429 7.58177 41.1529 7.91457 40.7629 8.25777C40.5705 8.42417 40.3625 8.56977 40.1493 8.70497C39.9829 8.81417 39.9257 8.78817 39.7385 8.60097Z" fill="#38312c"/>
<path d="M15.7769 28.0022C15.7873 28.335 15.5273 28.543 15.2621 28.4286C15.0489 28.335 14.8461 28.1998 14.6537 28.0594C14.4093 27.8826 14.1545 27.7162 14.0141 27.4354C13.9985 27.4042 13.9673 27.3678 13.9309 27.3522C13.6397 27.217 13.4577 26.957 13.2445 26.7386C13.0417 26.5358 12.9585 26.2862 13.0105 25.995C13.0365 25.8546 13.0937 25.735 13.2289 25.683C13.3693 25.6258 13.4837 25.6882 13.5721 25.787C13.7957 26.0314 13.9985 26.2914 14.2221 26.541C14.2897 26.6138 14.3729 26.671 14.4561 26.7282C14.5341 26.7802 14.6277 26.8114 14.7005 26.8686C14.9865 27.1078 15.2621 27.3522 15.5481 27.5914C15.6885 27.7058 15.7301 27.8722 15.7769 28.0022Z" fill="#38312c"/>
<path d="M11.5336 25.7922C11.5388 25.7714 11.5388 25.7142 11.5596 25.6622C11.596 25.5738 11.6376 25.4854 11.7468 25.4698C11.8612 25.4542 11.9184 25.5218 11.9756 25.605C12.0172 25.6674 12.0744 25.7246 12.1368 25.7714C12.3604 25.9482 12.584 26.1094 12.7608 26.3434C12.9532 26.5982 13.2028 26.8166 13.4108 27.061C13.6552 27.3418 13.884 27.633 14.118 27.9242C14.2168 28.049 14.3052 28.179 14.3936 28.309C14.4612 28.4182 14.4456 28.5378 14.3884 28.6522C14.2896 28.8498 14.1336 28.8966 13.962 28.7614C13.7696 28.6106 13.5928 28.439 13.4212 28.2674C13.1352 27.971 12.8596 27.6642 12.584 27.3574C12.2928 27.035 11.9912 26.7178 11.7884 26.3278C11.7572 26.2758 11.7208 26.2238 11.674 26.177C11.5752 26.073 11.5284 25.9586 11.5336 25.7922Z" fill="#38312c"/>
<path d="M12.1265 42.8638C12.0849 42.9158 12.0329 42.9678 12.0017 43.0302C11.9341 43.1706 11.8249 43.2694 11.7105 43.3682C11.6689 43.4046 11.6325 43.4514 11.5961 43.4982C11.5337 43.5866 11.4765 43.6854 11.4089 43.7686C11.2945 43.9038 11.1541 43.9038 11.0293 43.779C10.8057 43.5554 10.8265 43.1706 11.0709 42.973C11.1177 42.9314 11.1593 42.8794 11.1957 42.8274C11.2893 42.6922 11.3829 42.557 11.5285 42.4738C11.5493 42.4634 11.5701 42.4478 11.5857 42.4322C11.7313 42.193 11.9289 41.9902 12.1057 41.777C12.1993 41.6678 12.3085 41.569 12.4177 41.4702C12.4385 41.4494 12.4697 41.4442 12.5009 41.439C12.7609 41.4234 12.9949 41.7302 12.9169 41.9746C12.9117 41.9902 12.9065 42.011 12.8961 42.0214C12.7089 42.2242 12.5737 42.4738 12.3553 42.6506C12.2773 42.713 12.2253 42.8118 12.1577 42.8898C12.1421 42.8742 12.1317 42.869 12.1265 42.8638Z" fill="#38312c"/>
<path d="M9.83843 39.4005C9.81763 39.3641 9.79163 39.3329 9.77603 39.2965C9.70843 39.1457 9.70843 38.9585 9.91123 38.8701C10.062 38.8077 10.2024 38.7193 10.374 38.7245C10.4104 38.7245 10.452 38.7037 10.4884 38.6829C10.8108 38.5217 11.1332 38.3605 11.4556 38.1993C11.5284 38.1629 11.596 38.1681 11.674 38.1941C11.8664 38.2617 12.0016 38.3761 12.012 38.5945C12.0172 38.7089 11.9912 38.8025 11.8768 38.8597C11.6168 38.9897 11.3568 39.1301 11.0916 39.2549C10.9304 39.3329 10.7536 39.3849 10.5924 39.4681C10.4572 39.5409 10.2908 39.5617 10.1348 39.5825C9.99963 39.5981 9.91123 39.5045 9.83843 39.4005Z" fill="#38312c"/>
<path d="M13.5097 46.6597C13.3693 46.4465 13.3693 46.2593 13.4785 46.0825C13.5565 45.9577 13.5929 45.8173 13.6293 45.6769C13.6657 45.5417 13.7177 45.4117 13.7645 45.2817C13.8269 45.1205 13.8945 44.9593 13.9673 44.7981C14.0089 44.6993 14.0609 44.5797 14.1857 44.6005C14.3261 44.6213 14.4769 44.6421 14.5653 44.7929C14.6485 44.9385 14.6693 45.0841 14.6017 45.2453C14.4977 45.5053 14.3989 45.7705 14.2949 46.0357C14.2741 46.0877 14.2429 46.1397 14.2169 46.1865C14.1545 46.3009 14.1389 46.4257 14.1129 46.5505C14.0661 46.7741 13.8789 46.8937 13.7021 46.8053C13.6189 46.7741 13.5565 46.6961 13.5097 46.6597Z" fill="#38312c"/>
<path d="M12.4385 35.1523C12.5061 35.2719 12.5321 35.3863 12.5113 35.5111C12.4905 35.6255 12.4281 35.6775 12.3085 35.6931C12.1785 35.7139 12.0433 35.7399 11.9133 35.7503C11.6429 35.7711 11.3725 35.8335 11.0969 35.8075C11.0553 35.8023 11.0189 35.7919 10.9773 35.7815C10.8837 35.7555 10.7849 35.7295 10.6913 35.7035C10.3949 35.6203 10.2129 35.4123 10.2129 35.1679C10.2129 34.9911 10.3273 34.9131 10.4885 34.9859C10.6133 35.0431 10.7329 35.0847 10.8889 35.0587C11.0501 35.0327 11.2217 35.0847 11.3881 35.1003C11.4089 35.1003 11.4349 35.1003 11.4557 35.0951C11.5701 35.0639 11.6793 35.0067 11.7885 34.9963C11.9705 34.9807 12.1681 34.9235 12.3345 35.0691C12.3709 35.1003 12.4073 35.1263 12.4385 35.1523Z" fill="#38312c"/>
<path d="M38.4903 21.8143C38.5267 21.7571 38.5683 21.6999 38.5943 21.6375C38.6463 21.4919 38.7399 21.3775 38.8387 21.2631C38.8751 21.2215 38.9063 21.1695 38.9323 21.1175C38.9843 21.0239 39.0259 20.9199 39.0831 20.8263C39.1767 20.6755 39.3171 20.6599 39.4575 20.7691C39.7123 20.9615 39.7383 21.3411 39.5251 21.5751C39.4835 21.6219 39.4523 21.6791 39.4211 21.7363C39.3431 21.8819 39.2703 22.0275 39.1351 22.1315C39.1143 22.1471 39.0935 22.1627 39.0883 22.1835C38.9739 22.4435 38.8075 22.6671 38.6567 22.9011C38.5787 23.0259 38.4799 23.1351 38.3915 23.2443C38.3759 23.2651 38.3447 23.2807 38.3135 23.2859C38.0587 23.3379 37.7831 23.0623 37.8299 22.8127C37.8351 22.7971 37.8351 22.7763 37.8403 22.7607C38.0015 22.5371 38.1003 22.2719 38.2927 22.0639C38.3603 21.9911 38.4019 21.8871 38.4539 21.7987C38.4695 21.8039 38.4799 21.8091 38.4903 21.8143Z" fill="#38312c"/>
<path d="M41.2203 24.9447C41.2463 24.9759 41.2775 25.0071 41.2983 25.0435C41.3867 25.1839 41.4127 25.3711 41.2203 25.4855C41.0799 25.5687 40.9499 25.6727 40.7783 25.6883C40.7419 25.6935 40.7003 25.7195 40.6691 25.7403C40.3675 25.9431 40.0711 26.1459 39.7747 26.3487C39.7071 26.3955 39.6395 26.4007 39.5563 26.3851C39.3535 26.3435 39.2079 26.2499 39.1715 26.0315C39.1507 25.9223 39.1663 25.8235 39.2703 25.7507C39.5147 25.5843 39.7487 25.4127 39.9983 25.2567C40.1491 25.1579 40.3155 25.0851 40.4663 24.9759C40.5911 24.8875 40.7523 24.8459 40.9031 24.8043C41.0279 24.7679 41.1319 24.8459 41.2203 24.9447Z" fill="#38312c"/>
<path d="M36.6132 18.2314C36.7796 18.4238 36.8056 18.6058 36.7172 18.7982C36.6548 18.9334 36.6392 19.0738 36.6236 19.2194C36.608 19.3598 36.5716 19.495 36.5404 19.6302C36.4988 19.8018 36.452 19.9682 36.4052 20.1346C36.374 20.2386 36.3428 20.3634 36.2128 20.3582C36.0724 20.353 35.9164 20.353 35.8124 20.2178C35.7084 20.0826 35.672 19.9422 35.7136 19.7706C35.7864 19.5002 35.8436 19.2246 35.9112 18.949C35.9268 18.8918 35.9476 18.8398 35.9684 18.7878C36.0152 18.6682 36.0152 18.5382 36.0256 18.4134C36.0412 18.1846 36.2128 18.0442 36.4 18.1066C36.4884 18.1378 36.5612 18.2002 36.6132 18.2314Z" fill="#38312c"/>
<path d="M39.2028 29.4997C39.1196 29.3905 39.078 29.2761 39.0832 29.1513C39.0884 29.0369 39.1404 28.9745 39.26 28.9433C39.39 28.9069 39.5148 28.8601 39.6448 28.8341C39.91 28.7769 40.17 28.6833 40.4456 28.6677C40.4872 28.6677 40.5288 28.6729 40.5652 28.6781C40.664 28.6937 40.7628 28.7041 40.8616 28.7197C41.1632 28.7613 41.3764 28.9433 41.4076 29.1877C41.4284 29.3645 41.3244 29.4581 41.158 29.4009C41.0228 29.3593 40.9032 29.3333 40.7524 29.3801C40.5964 29.4269 40.4196 29.4009 40.2532 29.4061C40.2324 29.4061 40.2064 29.4113 40.1856 29.4217C40.0816 29.4685 39.9776 29.5413 39.8684 29.5621C39.6864 29.6037 39.4992 29.6869 39.3172 29.5621C39.2756 29.5413 39.234 29.5205 39.2028 29.4997Z" fill="#38312c"/>
<path d="M27.1908 12.9324C27.404 12.8492 27.43 12.8648 27.5236 13.052C27.6276 13.26 27.6016 13.4836 27.6224 13.6968C27.664 14.1804 27.6744 14.6692 27.7056 15.158C27.7264 15.4648 27.7784 15.7664 27.768 16.0732C27.7524 16.5464 27.8824 17.004 27.8928 17.4772C27.898 17.6696 27.9864 17.8568 28.0124 18.0544C28.1112 18.798 28.392 19.4948 28.6052 20.2072C28.7196 20.6024 28.9588 20.9612 29.1564 21.3252C29.3072 21.6112 29.4892 21.8816 29.6452 22.1624C29.8428 22.5212 30.082 22.8488 30.3472 23.166C30.5084 23.3584 30.6436 23.5716 30.7892 23.7744C30.8412 23.842 30.8932 23.9148 30.9504 23.9772C31.1064 24.1644 31.252 24.362 31.4236 24.5336C31.5952 24.7052 31.7876 24.8508 31.9696 25.012C32.032 25.0692 32.0944 25.1264 32.1568 25.1836C32.214 25.2356 32.2712 25.2876 32.3284 25.3396C32.3908 25.3968 32.4584 25.454 32.526 25.506C32.604 25.5684 32.6872 25.6256 32.7704 25.6828C32.8016 25.7036 32.8484 25.714 32.8692 25.7452C33.0356 25.9532 33.2644 26.0624 33.488 26.1924C33.6232 26.2704 33.7376 26.3796 33.8572 26.4784C33.9716 26.572 34.0808 26.6708 34.1848 26.78C34.3408 26.9464 34.3408 27.144 34.2316 27.326C34.0964 27.5548 33.9508 27.7836 33.6596 27.8512C33.6284 27.8564 33.6024 27.8772 33.5816 27.9032C33.254 28.2308 32.8432 28.4232 32.4428 28.6364C32.0944 28.8236 31.7304 28.9744 31.3768 29.1512C31.2468 29.2188 31.1324 29.3176 31.0024 29.3904C30.8256 29.4892 30.6384 29.5776 30.4564 29.666C29.8896 29.9468 29.3228 30.2224 28.756 30.498C28.5272 30.6124 28.3036 30.7424 28.0696 30.8464C27.8824 30.9296 27.6796 30.9816 27.482 31.0492C27.4612 31.0544 27.4248 31.0596 27.4144 31.0752C27.2948 31.2572 27.0868 31.2832 26.91 31.356C26.5616 31.4964 26.2028 31.5952 25.8492 31.72C25.714 31.7668 25.584 31.8448 25.4488 31.902C25.1264 32.0372 24.804 32.1724 24.4764 32.292C24.2268 32.3856 23.9668 32.448 23.7172 32.5312C23.504 32.604 23.296 32.6976 23.0828 32.7756C23.0048 32.8068 22.9216 32.8536 22.8384 32.8536C22.62 32.8588 22.4328 32.9732 22.2456 33.0512C22.022 33.1448 21.8192 33.2748 21.5696 33.2904C21.4708 33.2956 21.372 33.3736 21.2732 33.4204C21.2316 33.4412 21.19 33.462 21.1484 33.4776C20.8624 33.5608 20.5764 33.6388 20.2852 33.7168C20.1708 33.748 20.0512 33.7532 19.968 33.852C19.9472 33.878 19.9004 33.8936 19.864 33.904C19.3544 34.0288 18.8448 34.1536 18.3352 34.2836C18.2988 34.294 18.2624 34.3096 18.2208 34.32C17.8308 34.45 17.4408 34.554 17.0352 34.6164C16.8376 34.6476 16.6556 34.762 16.4632 34.8088C16.1148 34.8972 15.756 34.9648 15.4024 35.0428C15.3036 35.0636 15.2048 35.1 15.106 35.1208C14.9604 35.152 14.8148 35.1884 14.6692 35.2144C14.508 35.2404 14.3884 35.1572 14.3208 35.0272C14.17 34.7204 14.1024 34.398 14.4716 34.1224C14.6484 33.9924 14.7368 33.8156 14.8512 33.6544C15.1216 33.2592 15.366 32.8484 15.6208 32.448C15.6312 32.4272 15.6468 32.4064 15.6572 32.3856C15.9952 31.7044 16.3072 31.0076 16.614 30.3108C16.8948 29.6764 17.1028 29.016 17.3732 28.3816C17.5344 28.0072 17.6748 27.6172 17.7996 27.2272C17.914 26.8632 17.9972 26.4836 18.096 26.1144C18.1376 25.9636 18.1792 25.8076 18.2208 25.6568C18.3248 25.2928 18.4392 24.934 18.5328 24.57C18.6576 24.0812 18.772 23.5924 18.8708 23.0984C18.9332 22.8072 18.9644 22.5056 19.0008 22.2092C19.0476 21.8244 19.0736 21.4396 19.1204 21.06C19.2296 20.2176 19.266 19.37 19.3024 18.5172C19.3284 17.81 19.2348 17.1184 19.0892 16.432C19.0008 16.016 18.928 15.5948 18.8396 15.1788C18.7824 14.9032 18.72 14.6224 18.6576 14.3468C18.6108 14.1388 18.6836 13.9464 18.7876 13.7852C18.8448 13.6968 18.9904 13.6448 19.1048 13.6084C19.3908 13.52 19.6768 13.4524 19.968 13.3744C20.02 13.3588 20.0824 13.3224 20.124 13.338C20.3112 13.4004 20.4568 13.3068 20.6232 13.2496C20.7792 13.1976 20.9456 13.1768 21.1016 13.13C21.2316 13.0936 21.3148 13.1352 21.3772 13.2444C21.4084 13.3016 21.4708 13.3536 21.4708 13.4056C21.476 13.6292 21.6424 13.7488 21.7568 13.9048C21.8452 14.0348 21.944 14.1596 22.022 14.2948C22.3184 14.8148 22.672 15.3036 23.0464 15.7664C23.1036 15.834 23.1972 15.8756 23.2752 15.9328C23.53 16.1148 23.8108 16.2188 24.1228 16.25C24.2008 16.2604 24.2996 16.2396 24.3672 16.2032C24.7832 15.9588 25.0432 15.5948 25.116 15.1164C25.168 14.768 25.194 14.4092 25.2408 14.0608C25.272 13.832 25.2304 13.6188 25.1056 13.4316C24.9808 13.2444 24.9704 13.0416 25.012 12.8388C25.0484 12.6464 25.1628 12.506 25.3864 12.4644C25.5996 12.428 25.792 12.4748 25.9948 12.506C26.182 12.532 26.3692 12.5424 26.5512 12.558C26.6864 12.5736 26.8164 12.584 26.9464 12.61C26.9932 12.6204 27.0348 12.6724 27.066 12.714C27.1024 12.792 27.144 12.8648 27.1908 12.9324Z" fill="url(#paint0_linear_10375_10175)"/>
<path d="M20.4205 8.78289C20.3581 8.79849 20.3113 8.80889 20.2697 8.82449C19.7601 9.02209 19.2557 8.96489 18.7357 8.84009C18.3041 8.73609 17.9765 8.48649 17.6385 8.24209C17.4045 8.07049 17.2797 7.81569 17.2017 7.55049C17.0613 7.08249 17.0093 6.61449 17.1185 6.12049C17.2225 5.64729 17.3837 5.21049 17.6489 4.81009C17.7529 4.65409 17.8413 4.47209 17.9765 4.34729C18.1481 4.19129 18.3561 4.06129 18.5641 3.95729C18.8241 3.82729 19.1205 3.81169 19.4013 3.84809C19.6093 3.87409 19.8173 3.93649 20.0149 4.01969C20.2593 4.12369 20.4933 4.26409 20.7273 4.39409C20.7897 4.43049 20.8469 4.47209 20.8989 4.52409C21.0861 4.72169 21.2889 4.90369 21.4501 5.12209C21.6737 5.42889 21.8505 5.76689 21.8869 6.18809C22.0377 6.15689 22.1781 6.12569 22.3237 6.09449C22.3601 6.08409 22.4069 6.05809 22.4381 6.06849C22.6565 6.13089 22.9009 6.03209 23.1141 6.16729C23.1973 6.21929 23.3117 6.21409 23.4053 6.25049C23.6081 6.33369 23.8213 6.40649 24.0085 6.52089C24.1853 6.63009 24.3465 6.78089 24.4973 6.93169C24.6585 7.09289 24.8041 7.27489 24.9601 7.44649C24.9965 7.48809 25.0381 7.52969 25.0641 7.57649C25.2513 7.94049 25.4957 8.26809 25.6101 8.67889C25.8077 9.38609 25.8597 10.1037 25.7765 10.8213C25.7297 11.2529 25.6153 11.6793 25.4697 12.0901C25.3449 12.4437 25.1577 12.7817 24.8353 13.0157C24.7989 13.0417 24.7677 13.0833 24.7417 13.1249C24.6481 13.2705 24.5077 13.3589 24.3413 13.4057C24.2893 13.4213 24.2217 13.4369 24.1957 13.4733C24.1021 13.6137 23.9617 13.6085 23.8161 13.6241C23.6445 13.6397 23.4729 13.6813 23.2961 13.7021C23.1089 13.7281 22.9269 13.7021 22.7761 13.5773C22.6565 13.4733 22.5161 13.4993 22.3913 13.5149C22.2405 13.5305 22.1313 13.4785 22.0117 13.4109C21.2317 12.9585 20.8261 12.2409 20.5869 11.4089C20.5193 11.1749 20.4829 10.9253 20.4257 10.6861C20.3945 10.5613 20.3477 10.4469 20.3217 10.3221C20.3009 10.2181 20.2853 10.1037 20.2905 9.99969C20.2957 9.80729 20.3165 9.62009 20.3373 9.43289C20.3581 9.22489 20.3893 9.02209 20.4205 8.78289ZM21.0913 10.4365C21.1589 10.9773 21.3669 11.4557 21.6321 11.9081C21.7361 12.0849 21.8713 12.2721 22.0429 12.3605C22.2249 12.4541 22.3861 12.5789 22.5629 12.6777C22.6149 12.7037 22.6825 12.7141 22.7397 12.7089C22.8645 12.6985 22.9841 12.6673 23.1089 12.6569C23.3793 12.6257 23.6653 12.6309 23.9201 12.5529C24.0813 12.5061 24.2425 12.3657 24.3413 12.2253C24.7573 11.6377 25.0329 10.9981 25.0173 10.2597C25.0173 10.1817 25.0173 10.0985 25.0225 10.0205C25.0381 9.65129 25.0069 9.28729 24.8821 8.93889C24.7833 8.65809 24.7105 8.35649 24.4609 8.15889C24.4193 8.12769 24.4089 8.06009 24.3725 8.01849C24.2009 7.78969 23.9929 7.60769 23.7433 7.47769C23.7173 7.50889 23.7017 7.51929 23.6965 7.52969C23.5405 7.97689 23.3169 8.38249 23.0257 8.75169C22.9997 8.78289 22.9841 8.81929 22.9685 8.85569C22.7449 9.29249 22.3965 9.60969 22.0013 9.88009C21.7153 10.0777 21.4085 10.2441 21.0913 10.4365ZM17.8257 6.81209C17.8257 7.01489 17.8569 7.20729 17.9557 7.38929C18.0441 7.54529 18.1949 7.61289 18.3405 7.69089C18.6837 7.87289 19.0477 7.93529 19.4325 7.91449C19.5677 7.90409 19.7029 7.89369 19.8329 7.88849C20.1657 7.87289 20.4569 7.71689 20.7585 7.59209C20.8989 7.35809 21.0965 7.13969 21.1693 6.88489C21.2577 6.57809 21.1901 6.24529 21.0445 5.95929C20.9613 5.79289 20.8417 5.63169 20.7065 5.50689C20.4101 5.23649 20.0357 5.08569 19.6665 4.94529C19.5001 4.88289 19.3233 4.82049 19.1361 4.85169C18.8813 4.89329 18.6993 5.04409 18.5121 5.21049C18.0389 5.63169 17.8673 6.19329 17.8257 6.81209ZM21.7829 7.44649C21.7517 7.48809 21.7101 7.51929 21.6945 7.56089C21.5177 8.03409 21.3409 8.51249 21.1745 8.99089C21.1433 9.07929 21.0965 9.18329 21.1745 9.29769C21.2265 9.26129 21.2733 9.23009 21.3097 9.19889C21.4241 9.10009 21.5385 9.00129 21.6529 8.90249C22.0429 8.57489 22.4745 8.28889 22.7345 7.83129C22.7605 7.78449 22.8125 7.75329 22.8437 7.70649C22.9477 7.54529 23.0517 7.38409 23.1713 7.19689C23.0361 7.18129 22.9321 7.19169 22.8541 7.15529C22.6409 7.04089 22.4797 7.13449 22.3393 7.26969C22.1833 7.42049 22.0065 7.49329 21.7829 7.44649Z" fill="#38312c"/>
<path d="M17.8257 6.81211C17.8673 6.19331 18.0337 5.63691 18.5173 5.20011C18.7045 5.03371 18.8865 4.88291 19.1413 4.84131C19.3285 4.81011 19.5053 4.87251 19.6717 4.93491C20.0409 5.08051 20.4153 5.22611 20.7117 5.49651C20.8469 5.62131 20.9665 5.78251 21.0497 5.94891C21.1953 6.24011 21.2629 6.57291 21.1745 6.87451C21.1017 7.12931 20.9041 7.34771 20.7637 7.58171C20.4621 7.70651 20.1761 7.86251 19.8381 7.87811C19.7029 7.88331 19.5677 7.89891 19.4377 7.90411C19.0529 7.93011 18.6889 7.86251 18.3457 7.68051C18.2001 7.60251 18.0493 7.53491 17.9609 7.37891C17.8569 7.20731 17.8257 7.01491 17.8257 6.81211Z" fill="#38312c"/>
<path d="M21.7828 7.4466C22.0064 7.4882 22.1832 7.4206 22.3444 7.2646C22.4796 7.1346 22.646 7.0358 22.8592 7.1502C22.932 7.1918 23.0412 7.1762 23.1764 7.1918C23.0568 7.3842 22.9528 7.5454 22.8488 7.7014C22.8176 7.7482 22.7656 7.7794 22.7396 7.8262C22.4796 8.289 22.048 8.5698 21.658 8.8974C21.5436 8.9962 21.4292 9.095 21.3148 9.1938C21.2732 9.2302 21.2316 9.2562 21.1796 9.2926C21.1016 9.1782 21.1484 9.0742 21.1796 8.9858C21.346 8.5074 21.5228 8.0342 21.6996 7.5558C21.71 7.5194 21.7516 7.4882 21.7828 7.4466Z" fill="#38312c"/>
<path d="M23.4262 12.2566C23.2962 12.241 23.1714 12.241 23.0674 12.1422C23.0206 12.0954 22.9374 12.0798 22.8698 12.0642C22.459 11.955 22.2406 11.6586 22.1106 11.279C22.0638 11.1438 22.0378 11.0034 22.017 10.863C22.0066 10.7954 22.0066 10.7122 22.0378 10.655C22.069 10.5926 22.1314 10.525 22.1938 10.499C22.2822 10.4626 22.329 10.551 22.3758 10.6186C22.4746 10.7694 22.5682 10.9254 22.6826 11.0658C22.7554 11.1542 22.8646 11.2166 22.9634 11.279C22.9998 11.305 23.0518 11.3258 23.0934 11.3258C23.3118 11.3206 23.5354 11.305 23.7538 11.2842C23.863 11.2738 23.9826 11.201 24.0658 11.3102C24.1594 11.435 24.2686 11.5598 24.253 11.7366C24.2322 11.981 24.097 12.1318 23.8578 12.1786C23.7174 12.1994 23.5718 12.2306 23.4262 12.2566Z" fill="#38312c"/>
<path d="M24.4505 8.77246C24.7209 8.95446 24.7677 9.21446 24.8197 9.45886C24.8665 9.69806 24.8769 9.94766 24.8925 10.1921C24.9133 10.5457 24.6377 10.8837 24.2841 10.9305C24.0553 10.9617 23.8941 10.8369 23.8733 10.6081C23.8421 10.2649 24.0241 10.0569 24.3725 10.0309C24.4037 10.0309 24.4349 10.0205 24.4869 10.0153C24.4609 9.80726 24.4349 9.60446 24.4193 9.39646C24.3985 9.19886 24.3361 8.99606 24.4505 8.77246Z" fill="#38312c"/>
<path d="M22.8124 9.40688C22.8436 9.43288 22.8644 9.44848 22.88 9.46408C23.062 9.69808 23.0932 9.69808 23.3324 9.51088C23.4208 9.44328 23.504 9.36528 23.6028 9.32368C23.7328 9.26128 23.8056 9.30288 23.8732 9.43288C23.9356 9.55248 23.9408 9.67208 23.8888 9.79688C23.8212 9.95808 23.7172 10.0829 23.5716 10.1765C23.3532 10.3117 23.1556 10.2233 22.9736 10.0985C22.7396 9.94248 22.6408 9.72928 22.698 9.53688C22.7084 9.50568 22.724 9.47968 22.7448 9.45368C22.7552 9.43288 22.7812 9.42768 22.8124 9.40688Z" fill="#38312c"/>
</g>
<defs>
<linearGradient id="paint0_linear_10375_10175" x1="14.1959" y1="23.8404" x2="34.2989" y2="23.8404" gradientUnits="userSpaceOnUse">
<stop stop-color="#5A8A5E"/>
<stop offset="1" stop-color="#9DC4A0"/>
</linearGradient>
<clipPath id="clip0_10375_10175">
<rect width="52" height="52" rx="12" fill="white"/>
</clipPath>
</defs>
</svg>
