<svg width="52" height="52" viewBox="0 0 52 52" fill="none" xmlns="http://www.w3.org/2000/svg">
<g clip-path="url(#clip0_10375_10180)">
<g clip-path="url(#clip1_10375_10180)">
<path d="M23.8005 13.8684C23.6861 13.9204 23.5873 13.9724 23.4833 14.014C23.0309 14.1908 21.2421 15.1008 20.7689 15.2256C20.6857 15.2464 20.6129 15.3088 20.5297 15.3348C20.3321 15.3972 20.1553 15.5168 19.9317 15.5116C19.8485 15.5116 19.7549 15.5532 19.6873 15.6052C19.4845 15.756 19.2505 15.8184 19.0165 15.8964C18.6317 16.0316 18.2521 16.1928 17.8673 16.3332C17.6073 16.4268 17.3265 16.4736 17.0821 16.5932C16.7077 16.7804 16.2969 16.8688 15.9329 17.0872C15.7405 17.2016 15.5118 17.2484 15.3038 17.3368C15.1114 17.4148 14.9241 17.5136 14.7266 17.5864C14.5082 17.6644 14.2794 17.7164 14.061 17.7944C13.8842 17.862 13.7178 17.9608 13.541 18.0336C13.3226 18.122 13.099 18.1896 12.8806 18.2676C12.6622 18.3456 12.449 18.4288 12.241 18.5068C12.215 18.6992 12.2513 18.8448 12.3865 18.954C12.4229 18.9852 12.4542 19.032 12.4802 19.0788C12.7141 19.552 13.0573 19.9576 13.2445 20.462C13.3173 20.6648 13.4733 20.8364 13.5929 21.0236C13.6241 21.0652 13.6657 21.1016 13.6866 21.1484C13.8061 21.4396 13.957 21.7048 14.1285 21.97C14.3001 22.2352 14.4041 22.5368 14.5445 22.8228C14.5757 22.8852 14.6278 22.9372 14.6642 22.9944C14.9398 23.4 15.2205 23.8056 15.4961 24.2164C15.7509 24.596 16.0005 24.9756 16.2449 25.3604C16.3333 25.5008 16.3854 25.662 16.4738 25.8024C16.6765 26.1196 16.9002 26.4212 17.1082 26.7384C17.2017 26.884 17.2641 27.0556 17.3473 27.2064C17.3993 27.3 17.4617 27.3832 17.5137 27.4716C17.7113 27.8148 17.9037 28.1632 18.1065 28.5012C18.3197 28.8548 18.5433 29.198 18.7669 29.5464C18.7721 29.5516 18.7825 29.562 18.7825 29.5672C18.8085 29.8376 19.0529 29.9936 19.1101 30.2484C19.1153 30.2744 19.1205 30.3056 19.1361 30.3212C19.3649 30.5136 19.4065 30.81 19.5469 31.0544C19.6353 31.2052 19.7393 31.3508 19.8329 31.4964C19.8849 31.5744 19.9265 31.6628 19.9733 31.746C20.0045 31.8084 20.0201 31.8916 20.0669 31.9332C20.3581 32.1724 20.4673 32.5312 20.6389 32.8484C20.7689 33.0876 20.8989 33.3268 21.0289 33.566C21.0549 33.6128 21.0757 33.6648 21.0809 33.7116C21.1017 33.8416 21.1589 33.9352 21.2525 34.0288C21.3357 34.112 21.3877 34.2316 21.445 34.3408C21.5854 34.606 21.7153 34.8764 21.8505 35.1416C21.9805 35.3912 21.9285 35.5576 21.6685 35.6616C21.2005 35.854 20.8989 35.7188 20.6805 35.2508C20.5557 34.9804 20.3685 34.7308 20.2645 34.45C20.1553 34.1484 19.9785 33.8936 19.8277 33.6232C19.6353 33.2748 19.4273 32.9316 19.2349 32.5832C19.1726 32.4688 19.1413 32.3388 19.0945 32.2192C19.0841 32.188 19.0789 32.1412 19.0529 32.1256C18.8397 31.9488 18.7721 31.6784 18.6265 31.46C18.5225 31.304 18.4081 31.1584 18.3041 31.0076C18.2417 30.914 18.1897 30.81 18.1325 30.7112C18.0857 30.628 18.0441 30.5448 18.0025 30.4616C17.9609 30.3784 17.9245 30.29 17.8829 30.2016C17.8725 30.1756 17.8673 30.1496 17.8517 30.1288C17.5658 29.822 17.4097 29.4268 17.1861 29.0836C16.8846 28.6208 16.6453 28.1164 16.3698 27.638C16.2397 27.4196 16.0785 27.2168 15.9486 26.9984C15.7717 26.6968 15.6105 26.3848 15.439 26.078C15.4285 26.0572 15.4233 26.0208 15.4077 26.0052C15.0385 25.636 14.8202 25.1628 14.5342 24.7312C14.321 24.4088 14.0869 24.0968 13.8997 23.7588C13.7021 23.3948 13.5098 23.0308 13.2601 22.7032C13.1614 22.5732 13.0781 22.4276 12.9897 22.2872C12.9741 22.2664 12.9481 22.2404 12.9481 22.2196C12.9534 21.9908 12.7766 21.866 12.6673 21.6996C12.5686 21.5488 12.5113 21.3668 12.4229 21.2056C12.3137 21.008 12.1941 20.8156 12.0798 20.618C11.9654 20.4204 11.8561 20.2228 11.747 20.0304C11.7002 19.9472 11.643 19.8692 11.5858 19.786C11.4869 19.6404 11.3933 19.5 11.2893 19.344C11.1489 19.4792 11.0398 19.6612 10.9513 19.8484C10.9305 19.8952 10.9201 19.9524 10.889 19.994C10.6342 20.3944 10.3741 20.7948 10.1193 21.1952C10.0673 21.2784 10.031 21.3668 9.97895 21.45C9.86975 21.6216 9.75535 21.7932 9.64615 21.9648C9.37055 22.3964 9.10535 22.8384 8.82455 23.2648C8.49175 23.7692 8.13815 24.2684 7.79495 24.7728C7.77935 24.7936 7.76375 24.8144 7.74815 24.8352C7.55575 25.1628 7.36855 25.4904 7.17095 25.818C7.06175 26 6.94735 26.1768 6.82775 26.3536C6.48975 26.858 6.14135 27.3624 5.80335 27.872C5.65775 28.0956 5.53815 28.3348 5.39775 28.5584C5.33535 28.6624 5.24175 28.7508 5.16895 28.8444C5.13255 28.8912 5.09615 28.9432 5.05975 28.9952C4.86735 29.3124 4.67495 29.6244 4.48255 29.9416C4.35255 30.16 4.23295 30.3888 4.09775 30.6072C3.80135 31.0856 3.50495 31.564 3.20335 32.0424C2.91735 32.4948 2.61575 32.942 2.32975 33.3996C2.14775 33.6856 1.98135 33.9716 1.80975 34.2628C1.62775 34.5644 1.45615 34.8764 1.27415 35.178C1.22735 35.2508 1.16495 35.3184 1.09215 35.3704C0.93095 35.4848 0.71255 35.3912 0.63975 35.1624C0.56695 34.9232 0.54615 34.6736 0.67615 34.4396C0.84775 34.1276 0.99855 33.8104 1.18575 33.5088C1.58615 32.864 2.00215 32.2296 2.40775 31.5848C2.79775 30.9556 3.17215 30.3108 3.57255 29.6816C3.84295 29.25 4.11335 28.808 4.44095 28.418C4.62295 28.1944 4.73215 27.9396 4.89335 27.7108C5.53295 26.78 6.06335 25.7712 6.76015 24.8716C6.98375 24.5856 7.14495 24.2476 7.33735 23.9304C7.35295 23.8992 7.37375 23.8732 7.39455 23.842C7.61815 23.4936 7.84175 23.14 8.06535 22.7968C8.29415 22.4484 8.52815 22.1104 8.76215 21.7672C8.99095 21.424 9.17815 21.0496 9.46935 20.748C9.51095 20.7064 9.52135 20.6336 9.55255 20.5816C9.67215 20.384 9.79695 20.1916 9.91655 19.9992C9.95815 19.9316 10.0258 19.8744 10.0518 19.8016C10.1298 19.5884 10.2285 19.396 10.3793 19.2244C10.4053 19.1984 10.4053 19.1516 10.4366 19.0684C10.3482 19.0996 10.2858 19.11 10.2442 19.136C10.0258 19.2764 9.78135 19.344 9.53695 19.4064C9.30295 19.4688 9.06375 19.526 8.83495 19.604C8.67895 19.656 8.53335 19.7288 8.38775 19.8016C8.12775 19.9316 7.85735 20.0044 7.57135 20.0408C7.47255 20.0564 7.38415 20.1292 7.28535 20.1708C6.82255 20.3632 6.35975 20.5556 5.89175 20.7324C5.70455 20.8 5.50695 20.8416 5.31455 20.878C5.14815 20.9092 4.98175 20.7636 4.94535 20.5712C4.88295 20.2592 5.02335 20.0148 5.28335 19.838C5.61095 19.6144 5.98015 19.5208 6.32855 19.37C6.66655 19.2244 7.02535 19.1516 7.36855 19.0268C7.46215 18.9904 7.54015 18.902 7.63375 18.8708C7.97175 18.7564 8.31495 18.6576 8.65295 18.5432C8.98055 18.4288 9.30295 18.2832 9.63055 18.1636C9.78655 18.1064 9.95295 18.0908 10.109 18.0388C10.3482 17.9608 10.5821 17.8672 10.8214 17.7788C10.9254 17.7424 11.0345 17.7112 11.1438 17.68C11.3518 17.6176 11.5546 17.5552 11.7626 17.4876C11.851 17.4564 11.9393 17.4148 12.0277 17.3784C12.4437 17.2276 12.8598 17.0716 13.2758 16.926C13.4578 16.8636 13.6449 16.8168 13.8217 16.7492C14.0297 16.6712 14.2378 16.5776 14.4458 16.4944C14.6069 16.4268 14.7681 16.3696 14.9345 16.3072C15.0541 16.2604 15.179 16.2188 15.2985 16.1772C15.6105 16.068 15.9225 15.9588 16.2345 15.8496C16.3177 15.8184 16.3958 15.782 16.4738 15.7508C16.5986 15.6936 16.7285 15.6416 16.8533 15.5844C17.0562 15.4908 17.2589 15.3868 17.4669 15.2984C17.7789 15.1684 18.0961 15.0436 18.4133 14.9188C18.5693 14.8616 18.7253 14.8096 18.8813 14.7576C19.1362 14.6744 19.3701 14.5288 19.6561 14.5236C19.7653 14.5184 19.8745 14.43 19.9837 14.378C20.0201 14.3572 20.0565 14.3208 20.0929 14.3104C20.4985 14.1804 20.8937 14.014 21.2941 13.8736C21.6009 13.7696 23.2597 12.9428 23.5821 12.8856C23.7901 12.8492 23.8317 12.7608 23.8317 12.5528C23.8265 12.168 23.7797 11.7832 23.8265 11.3932C23.8629 11.1176 23.8213 10.8316 23.8161 10.5508C23.8109 10.322 23.7849 10.088 23.8161 9.86439C23.8681 9.47439 23.8317 9.09479 23.8265 8.70479C23.8265 8.63199 23.8317 8.56439 23.8421 8.49159C23.8473 8.43959 23.8733 8.38759 23.8733 8.33559C23.8369 7.81039 23.9357 7.29559 24.0501 6.78599C24.0813 6.64039 24.1437 6.49999 24.1957 6.35959C24.2269 6.26599 24.2685 6.17759 24.2997 6.08919C24.4037 5.77719 24.4973 5.46519 24.6117 5.15839C24.6533 5.04399 24.7365 4.94519 24.8145 4.85159C25.0381 4.59159 25.3605 4.67479 25.4853 5.00239C25.5841 5.25719 25.6881 5.51199 25.8181 5.75639C25.9897 6.07359 26.0885 6.41159 26.1717 6.75999C26.2498 7.09279 26.4005 7.38919 26.5305 7.69599C26.5981 7.85719 26.7125 7.99759 26.7905 8.15359C26.8789 8.33559 26.9673 8.51759 27.0297 8.70999C27.0609 8.80359 27.0557 8.93879 27.0089 9.01679C26.8425 9.27159 26.8581 9.56279 26.8425 9.84359C26.8269 10.1452 26.8581 10.4468 26.8581 10.7536C26.8581 10.9928 26.8425 11.232 26.8321 11.4712C26.8321 11.5128 26.8425 11.5544 26.8477 11.6064C27.1337 11.518 27.4041 11.4348 27.6797 11.3464C27.7317 11.3308 27.7889 11.3204 27.8253 11.2892C27.9917 11.1488 28.1789 11.0864 28.3921 11.0552C28.5481 11.0292 28.6937 10.9304 28.8393 10.8576C29.4321 10.5716 30.0509 10.3636 30.6645 10.14C30.8361 10.0776 30.9921 9.98919 31.1585 9.92159C31.4341 9.80719 31.7097 9.70319 31.9853 9.59919C32.0997 9.55759 32.2193 9.52119 32.3337 9.48999C32.5209 9.44319 32.6925 9.37039 32.8537 9.24559C33.0721 9.07399 33.3477 9.04799 33.6026 8.95959C33.665 8.93879 33.7429 8.93359 33.8001 8.89719C34.0913 8.68919 34.4241 8.59039 34.7569 8.48639C34.8453 8.46039 34.9389 8.42919 35.0221 8.39279C35.6201 8.14839 36.1973 7.85719 36.8214 7.68039C36.9877 7.63359 37.1438 7.54519 37.2998 7.47239C37.6846 7.28519 38.0901 7.14999 38.4958 7.02519C38.7453 6.94719 38.9741 6.81719 39.2185 6.72359C39.4317 6.63519 39.6553 6.56239 39.8737 6.48439C39.9154 6.46879 39.9674 6.47399 39.9986 6.44799C40.451 6.15159 40.9865 6.05799 41.4753 5.86039C42.0578 5.62639 42.6558 5.44439 43.2486 5.24159C43.2797 5.23119 43.3214 5.21559 43.3526 5.22079C43.623 5.27279 43.8154 5.11679 44.0234 4.98679C44.1742 4.89319 44.3354 4.82039 44.5173 4.87759C44.5798 4.89839 44.6682 4.92959 44.6889 4.97639C44.7722 5.17399 44.8293 5.39759 44.7046 5.58999C44.5537 5.83439 44.3458 6.02159 44.039 6.06839C43.8206 6.09959 43.6073 6.13599 43.4409 6.30759C43.389 6.35959 43.3005 6.38039 43.2277 6.40639C42.8741 6.51559 42.5205 6.60919 42.1721 6.72359C41.881 6.81719 41.6001 6.93159 41.3141 7.04079C41.1009 7.11879 40.8878 7.19679 40.6798 7.27479C40.7682 7.73759 40.9762 8.11719 41.2466 8.46559C41.3089 8.54879 41.361 8.64759 41.4025 8.74119C41.5378 9.10519 41.7873 9.38599 42.0005 9.70319C42.3333 10.2024 42.6661 10.7068 42.9729 11.2216C43.1758 11.5648 43.4098 11.882 43.6334 12.2096C43.649 12.2356 43.6853 12.2512 43.701 12.2668C43.9557 12.0224 44.1898 11.7728 44.4498 11.5544C44.5642 11.4556 44.7201 11.3776 44.8657 11.3464C45.1777 11.2736 45.4949 11.2268 45.8121 11.1852C45.9889 11.1644 46.1345 11.258 46.2438 11.3984C46.2957 11.466 46.3425 11.544 46.3894 11.6168C46.5193 11.5544 46.6493 11.5076 46.7741 11.44C47.1433 11.2372 47.5438 11.1592 47.9598 11.1592C48.2509 11.1592 48.485 11.2788 48.5993 11.5752C48.6618 11.7312 48.7346 11.882 48.8125 12.0588C48.9893 12.1108 49.1765 12.1784 49.4002 12.1628C49.6653 12.1472 49.8786 12.3084 50.0398 12.5268C50.0658 12.5632 50.0761 12.6152 50.1073 12.636C50.5806 12.9844 50.5286 13.468 50.4662 13.9932C50.539 14.0868 50.6377 14.2168 50.7365 14.3364C51.1058 14.7784 51.1941 15.4128 50.9341 15.9224C50.8405 16.1044 50.8562 16.25 50.9445 16.4216C51.137 16.7804 51.2046 17.1548 51.1734 17.576C51.1318 18.2156 50.8041 18.6888 50.3726 19.084C50.0554 19.3752 49.6758 19.5936 49.2234 19.6872C48.9426 19.7444 48.7137 19.7132 48.4693 19.6092C48.459 19.604 48.4382 19.6144 48.3862 19.63C48.4226 19.7184 48.4381 19.8172 48.4902 19.8848C48.8281 20.2904 49.1089 20.7376 49.3429 21.216C49.3689 21.2732 49.4157 21.3148 49.4469 21.3668C49.5769 21.554 49.707 21.7412 49.7589 21.9804C49.785 22.0948 49.8577 22.204 49.9305 22.2976C50.0553 22.4588 50.1957 22.594 50.2529 22.8072C50.2789 22.9112 50.3986 22.984 50.4454 23.0828C50.5806 23.348 50.7001 23.6184 50.8302 23.8888C50.8457 23.92 50.8509 23.9616 50.8769 23.9824C51.1213 24.154 51.1421 24.4244 51.1369 24.6792C51.1265 25.298 51.1161 25.922 51.0485 26.5408C50.9965 26.9932 50.8926 27.456 50.7417 27.8824C50.4714 28.6312 50.1334 29.354 49.681 30.0092C49.4314 30.3732 49.1662 30.7268 48.9062 31.0856C48.615 31.4912 48.2354 31.8084 47.8661 32.1256C47.5802 32.37 47.2682 32.5832 46.9718 32.812C46.8106 32.9316 46.6598 33.0616 46.4934 33.176C46.1502 33.4152 45.8018 33.6544 45.4482 33.878C45.3233 33.956 45.1777 33.9924 45.0426 34.0496C44.6422 34.2264 44.2469 34.4032 43.8465 34.58C43.8309 34.5852 43.8102 34.6008 43.7998 34.5956C43.4202 34.5176 43.1341 34.814 42.7857 34.8556C42.5309 34.8816 42.2761 34.9388 42.0213 34.9752C41.7041 35.0168 41.387 35.0584 41.0646 35.0896C40.9346 35.1052 40.7942 35.1312 40.6745 35.1C40.4458 35.0376 40.2118 35.0896 39.9829 35.0636C39.7021 35.0376 39.4109 35.0688 39.1353 35.0168C38.5373 34.8972 37.9186 34.8972 37.3362 34.6892C36.941 34.5488 36.5249 34.4708 36.1505 34.268C36.0049 34.19 35.8645 34.0964 35.7241 34.0184C35.6721 33.9872 35.6202 33.956 35.563 33.9456C35.2406 33.8884 34.9442 33.774 34.679 33.5608C34.523 33.436 34.3358 33.3476 34.159 33.2644C33.8418 33.1136 33.6077 32.8588 33.3582 32.63C33.0774 32.37 32.8121 32.0944 32.5417 31.8188C32.4637 31.7356 32.3961 31.642 32.3233 31.5536C32.1569 31.3508 31.9853 31.148 31.8189 30.94C31.7721 30.888 31.7253 30.836 31.6889 30.7736C31.3665 30.1964 31.0181 29.6296 30.7373 29.0316C30.5449 28.626 30.4357 28.184 30.3109 27.7472C30.2017 27.3728 30.1029 26.988 30.0457 26.6032C29.9313 25.8284 29.9833 25.0588 30.1029 24.2892C30.1653 23.894 30.3317 23.5768 30.5709 23.27C30.6749 23.14 30.7425 22.9788 30.8205 22.8332C30.9869 22.5212 31.1325 22.1936 31.3093 21.892C31.5693 21.4552 31.8553 21.034 32.1257 20.5972C32.2505 20.3944 32.3493 20.1812 32.4637 19.9732C32.5105 19.89 32.5729 19.8172 32.625 19.734C32.8694 19.3284 33.1138 18.9176 33.3633 18.512C33.4258 18.4132 33.5037 18.33 33.5662 18.2364C33.9822 17.6176 34.4034 16.9988 34.8194 16.38C34.9077 16.25 34.9805 16.1044 35.0585 15.9692C35.0949 15.9068 35.1209 15.8392 35.173 15.7872C35.4381 15.5116 35.5681 15.1424 35.7865 14.8304C36.1661 14.3 36.4729 13.728 36.8057 13.1716C36.9149 12.9896 37.0294 12.8076 37.1646 12.6516C37.4869 12.2772 37.5702 11.7728 37.851 11.3724C38.0901 11.0292 38.2201 10.6184 38.4177 10.2492C38.6362 9.83839 38.9066 9.45359 39.1093 9.03759C39.3173 8.60599 39.6242 8.24719 39.8426 7.82599C39.8686 7.77399 39.8737 7.71679 39.8946 7.63359C39.749 7.66479 39.6241 7.67519 39.5149 7.71679C38.9325 7.95079 38.3501 8.19519 37.7677 8.42399C36.8993 8.77239 36.0257 9.11039 35.1521 9.45359C34.8246 9.58359 34.5126 9.74999 34.1849 9.85919C33.8158 9.97879 33.4725 10.1452 33.1241 10.3064C33.0669 10.3324 33.0097 10.3688 32.9525 10.3636C32.7237 10.348 32.5573 10.478 32.3649 10.5664C31.8761 10.8004 31.3925 11.0552 30.8569 11.1644C30.7373 11.1904 30.6281 11.2528 30.5137 11.2996C29.9105 11.5596 29.3125 11.8248 28.7041 12.0744C28.5429 12.142 28.3765 12.1888 28.2309 12.2876C28.2153 12.298 28.1997 12.3084 28.1841 12.3084C27.7161 12.3604 27.3261 12.6308 26.8581 12.7764C26.8529 12.896 26.8373 13.026 26.8425 13.156C26.8477 13.494 26.8685 13.8268 26.8737 14.1648C26.8841 15.0696 26.8945 15.9796 26.9049 16.8844C26.9049 17.082 26.8945 17.2744 26.8997 17.472C26.9049 17.7996 26.9205 18.122 26.9257 18.4496C26.9361 19.0476 26.9361 19.6404 26.9465 20.2384C26.9517 20.6492 26.9725 21.0548 26.9829 21.4656C26.9881 21.6684 26.9777 21.8712 26.9777 22.074C26.9881 22.6876 27.0245 23.296 26.9985 23.9096C26.9829 24.2632 26.9985 24.6116 27.0141 24.9652C27.0193 25.1732 26.9881 25.3864 26.9777 25.5944C26.9725 25.636 26.9829 25.6828 26.9829 25.7244C26.9881 26.13 27.0401 26.546 26.9881 26.9464C26.9465 27.2688 26.9829 27.5808 26.9933 27.8928C26.9985 28.1424 26.9673 28.3868 26.9621 28.6364C26.9569 28.8912 26.9933 29.1512 26.9777 29.406C26.9465 29.8844 27.0505 30.3628 26.9205 30.836C26.9101 30.8672 26.9101 30.9088 26.9153 30.94C27.0401 31.4652 26.9517 31.9904 26.9101 32.5156C26.8997 32.6196 26.9257 32.7288 26.9257 32.8328C26.9257 32.9368 26.9153 33.0408 26.9153 33.1448C26.9153 33.3268 26.9257 33.514 26.9257 33.696C26.9257 34.06 26.9205 34.424 26.9101 34.7828C26.9049 34.9128 26.8841 35.048 26.8685 35.178C26.8633 35.2196 26.8321 35.2716 26.8477 35.308C26.9777 35.7188 26.7957 36.1348 26.8529 36.5456C26.8841 36.7692 26.8009 37.0084 26.8477 37.2216C26.9257 37.57 26.8425 37.908 26.8685 38.246C26.8841 38.4124 26.8581 38.5788 26.8529 38.7504C26.8477 39.1144 26.8529 39.4784 26.8373 39.8372C26.8217 40.2168 26.8841 40.5912 26.8217 40.9708C26.8061 41.0644 26.8425 41.1632 26.8425 41.262C26.8425 41.5012 26.8373 41.7352 26.8217 41.9744C26.8009 42.3332 26.8165 42.6868 26.8113 43.0456C26.8061 43.2744 26.7697 43.498 26.7541 43.7268C26.7385 43.94 26.7385 44.148 26.7281 44.3612C26.7177 44.5952 26.7021 44.8344 26.6813 45.0944C26.8165 45.1308 26.9569 45.188 27.1025 45.1984C27.5029 45.2244 27.8617 45.37 28.2361 45.4896C28.8289 45.682 29.3333 46.02 29.8273 46.384C29.9989 46.514 30.1705 46.6544 30.3473 46.7792C30.3629 46.7896 30.3785 46.8 30.3889 46.8104C30.5241 47.0444 30.7373 47.1536 30.9661 47.2784C31.1325 47.372 31.2417 47.5644 31.3769 47.7152C31.4757 47.8244 31.5693 47.944 31.6837 48.0376C31.8137 48.1416 31.9281 48.2456 32.0061 48.412C32.0789 48.5628 32.2245 48.6772 32.3337 48.8124C32.5625 49.0984 32.7341 49.4104 32.8485 49.7588C32.8589 49.79 32.8693 49.8316 32.8953 49.8524C33.0773 49.9928 33.1085 50.2268 33.2229 50.4088C33.3165 50.5648 33.4361 50.7104 33.5609 50.8404C33.6337 50.9184 33.7481 50.9704 33.7273 51.09C33.6909 51.2928 33.7169 51.5268 33.5349 51.6828C33.3633 51.8284 33.1761 51.922 32.9317 51.8804C32.7705 51.8544 32.5989 51.8544 32.4377 51.8492C31.7149 51.8284 30.9921 51.8232 30.2693 51.7868C29.7961 51.7608 29.3229 51.8284 28.8549 51.7816C28.3557 51.7296 27.8669 51.8232 27.3677 51.8024C26.9881 51.7868 26.6033 51.7712 26.2185 51.766C26.0625 51.7608 25.9065 51.7816 25.7453 51.7868C25.2929 51.792 24.8353 51.8388 24.3933 51.7868C24.0813 51.7504 23.7953 51.8856 23.4885 51.8232C23.4365 51.8128 23.3845 51.8284 23.3325 51.8284C23.0153 51.8284 22.6929 51.8284 22.3757 51.8232C22.1625 51.818 21.9545 51.7972 21.7414 51.7972C21.4345 51.7972 21.1329 51.8076 20.8261 51.8128C20.5817 51.818 20.3426 51.8232 20.0982 51.818C19.8018 51.8128 19.5105 51.8076 19.2141 51.7972C18.8449 51.7816 18.4757 51.7608 18.1013 51.7504C17.9349 51.7452 17.7737 51.766 17.6073 51.7764C17.5969 51.7764 17.5917 51.7816 17.5814 51.7816C17.3473 51.7452 17.129 51.6568 16.8793 51.6672C16.7181 51.6724 16.6194 51.4592 16.6297 51.2824C16.6402 51.0848 16.5882 50.8768 16.6973 50.6844C16.8066 50.492 16.9002 50.2892 17.0301 50.1124C17.1966 49.8784 17.3785 49.6444 17.5761 49.4364C17.9869 49.0152 18.4133 48.6044 18.8501 48.204C19.1205 47.9544 19.4169 47.736 19.7029 47.5072C19.8641 47.372 20.0149 47.2108 20.1917 47.1016C20.6649 46.8052 21.1537 46.5296 21.6373 46.2488C21.8245 46.1396 22.0117 46.02 22.2093 45.9316C22.4537 45.8224 22.7137 45.7496 22.9685 45.6612C23.2545 45.5624 23.5405 45.4636 23.8214 45.37C23.7745 45.0112 23.7069 44.6576 23.6809 44.2988C23.6549 44.0128 23.6445 43.7216 23.7069 43.4304C23.7433 43.264 23.7017 43.0768 23.6861 42.9052C23.6549 42.536 23.6081 42.1668 23.7329 41.8028C23.7433 41.7716 23.7381 41.7352 23.7381 41.6988C23.7174 41.3764 23.6861 41.0488 23.6757 40.7264C23.6705 40.5548 23.7329 40.378 23.7225 40.2064C23.6861 39.65 23.7173 39.0936 23.7069 38.5372C23.7069 38.4748 23.6965 38.4072 23.7173 38.35C23.8161 38.0484 23.7121 37.7416 23.7485 37.44C23.7901 37.1332 23.7901 36.8212 23.7953 36.5092C23.8005 36.322 23.7693 36.14 23.7693 35.9528C23.7693 35.8332 23.8005 35.7084 23.8214 35.5888C23.8265 35.5472 23.8421 35.5056 23.8369 35.4588C23.8161 35.2144 23.7849 34.9648 23.7641 34.7204C23.7537 34.6164 23.7641 34.5072 23.7641 34.398C23.7641 34.1432 23.8629 33.8936 23.7745 33.6388C23.7694 33.6232 23.7797 33.6024 23.7797 33.5868C23.8525 32.8848 23.7589 32.1724 23.8265 31.4704C23.8837 30.8776 23.8109 30.29 23.8265 29.6972C23.8317 29.5204 23.8265 29.3384 23.8525 29.1668C23.9097 28.7768 23.8525 28.3868 23.8577 28.002C23.8629 27.7368 23.8317 27.456 23.8785 27.2012C23.9201 26.9516 23.8993 26.7176 23.8785 26.4732C23.8629 26.3016 23.9045 26.1196 23.9201 25.9428C23.9253 25.8908 23.9617 25.8232 23.9409 25.792C23.8161 25.584 23.8837 25.3604 23.8837 25.142C23.8733 24.6844 23.8577 24.2268 23.8629 23.764C23.8681 23.3324 23.8993 22.8956 23.9045 22.464C23.9045 22.1884 23.8681 21.9128 23.8681 21.6424C23.8681 21.4292 23.8993 21.216 23.9045 21.008C23.9097 20.8572 23.8837 20.7116 23.8837 20.5608C23.8785 20.2384 23.8733 19.9212 23.8733 19.5988C23.8733 19.2296 23.8785 18.8552 23.8889 18.486C23.8889 18.3976 23.9045 18.3092 23.9149 18.2208C23.9201 18.1792 23.9461 18.1272 23.9305 18.0908C23.8369 17.8256 23.9097 17.55 23.8681 17.2796C23.8577 17.2172 23.8577 17.1548 23.8629 17.0924C23.8837 16.8012 23.9045 16.5152 23.9253 16.224C23.9253 16.2084 23.9409 16.1876 23.9357 16.172C23.8005 15.8548 23.9877 15.522 23.8837 15.1996C23.8629 15.1268 23.8629 15.0384 23.8785 14.9604C23.9253 14.664 23.8733 14.3676 23.8889 14.0712C23.8525 13.9828 23.8213 13.9308 23.8005 13.8684ZM30.8049 25.272C30.7841 25.6984 30.8309 26.078 30.8881 26.4628C31.0129 27.326 31.3145 28.132 31.7149 28.8964C31.9541 29.3488 32.2297 29.7804 32.4949 30.2224C32.5209 30.2692 32.5573 30.3108 32.5938 30.3472C32.7237 30.4772 32.8745 30.5916 32.9785 30.7424C33.1865 31.044 33.4725 31.2676 33.7169 31.5276C33.7949 31.6108 33.8677 31.6992 33.9613 31.7668C34.2733 31.9904 34.5854 32.2088 34.9025 32.4272C34.9442 32.4584 34.9962 32.4792 35.0481 32.4896C35.3237 32.5624 35.563 32.7132 35.7865 32.89C35.8386 32.9316 35.9114 32.9784 35.9685 32.9732C36.1661 32.9472 36.3221 33.046 36.4885 33.1188C36.8473 33.28 37.2114 33.436 37.5962 33.514C37.825 33.5608 38.0538 33.6284 38.2826 33.6804C38.553 33.7428 38.813 33.852 39.0989 33.8104C39.1406 33.8052 39.1926 33.8052 39.229 33.826C39.359 33.9092 39.4994 33.8676 39.6346 33.8624C39.7281 33.8624 39.8217 33.8884 39.9205 33.8832C40.1493 33.8728 40.3729 33.9456 40.6121 33.8884C40.7785 33.8468 40.9605 33.8676 41.1321 33.8624C41.1945 33.8624 41.2517 33.8832 41.3141 33.878C41.6053 33.8468 41.9017 33.8156 42.193 33.774C42.4426 33.7376 42.6973 33.7064 42.9417 33.6388C43.1861 33.5764 43.4721 33.6492 43.6646 33.4048C43.6906 33.3736 43.7634 33.384 43.8153 33.3632C44.1534 33.2488 44.507 33.1864 44.819 32.994C44.975 32.8952 45.1153 32.76 45.2817 32.708C45.6874 32.5884 45.9577 32.2556 46.3166 32.0632C46.4517 31.9904 46.5817 31.902 46.7013 31.8032C46.8781 31.6628 47.0393 31.4964 47.2213 31.3612C47.7934 30.9296 48.2873 30.4148 48.7449 29.8688C48.7917 29.8168 48.8386 29.7596 48.8698 29.6972C49.109 29.2656 49.3585 28.834 49.5821 28.392C49.8526 27.8616 50.0918 27.3156 50.1646 26.7124C50.2062 26.3952 50.2529 26.078 50.2738 25.7556C50.2893 25.4748 50.2789 25.194 50.2789 24.9132C50.1282 24.9132 50.0086 24.9444 49.9098 24.908C49.7486 24.8456 49.5873 24.8456 49.421 24.8508C49.3429 24.8508 49.2649 24.8248 49.1869 24.8196C49.0933 24.8144 48.9997 24.8092 48.9113 24.8144C48.7761 24.8248 48.6357 24.8612 48.5005 24.8612C48.1729 24.856 47.8454 24.8144 47.5126 24.8196C47.0758 24.8248 46.639 24.856 46.2074 24.8768C45.8433 24.8924 45.4742 24.9028 45.1101 24.9236C44.6838 24.9496 44.2574 24.9808 43.831 25.012C43.6489 25.0276 43.4669 25.0432 43.285 25.0588C43.1653 25.0692 43.0302 25.116 42.921 25.0848C42.7442 25.0328 42.5778 25.0744 42.4062 25.0848C42.2502 25.0952 42.089 25.1108 41.9329 25.0952C41.3089 25.0224 40.6849 25.1212 40.0557 25.0796C39.7126 25.0536 39.3642 25.1056 39.021 25.116C38.969 25.116 38.9221 25.1004 38.8702 25.09C38.813 25.0796 38.7454 25.0588 38.6934 25.0692C38.2826 25.1732 37.8665 25.1472 37.4506 25.116C37.2477 25.1004 37.0345 25.0588 36.8318 25.1472C36.7537 25.1784 36.6602 25.1732 36.5718 25.1732C36.0778 25.194 35.5837 25.116 35.0949 25.2044C35.0533 25.2096 35.0117 25.1888 34.9701 25.1836C34.887 25.1732 34.8037 25.1524 34.7205 25.1576C34.4813 25.1784 34.2473 25.2876 34.0029 25.1628C33.9717 25.1472 33.9146 25.1628 33.873 25.1732C33.639 25.2304 33.4049 25.2304 33.1709 25.168C33.1138 25.1524 33.0513 25.1732 32.9889 25.1732C32.6509 25.1888 32.3077 25.2408 31.9697 25.2044C31.6681 25.1732 31.3821 25.2356 31.0857 25.2304C30.9921 25.2252 30.9089 25.2564 30.8049 25.272ZM42.4321 15.5012C42.3386 15.4336 42.2657 15.4024 42.2085 15.3452C42.1149 15.2516 42.0057 15.1632 41.9538 15.0488C41.6626 14.3728 41.7094 13.6968 42.0317 13.0416C42.0786 12.9532 42.1618 12.8804 42.2346 12.8076C42.3646 12.688 42.4998 12.5736 42.6454 12.4436C42.5362 12.2928 42.4269 12.168 42.3386 12.0276C42.0109 11.492 41.6833 10.9564 41.3661 10.4208C41.2466 10.218 41.1425 9.99959 41.0177 9.79679C40.8565 9.53679 40.6798 9.28199 40.5082 9.02719C40.4354 8.92319 40.3573 8.82439 40.2741 8.70999C40.1857 8.82959 40.1129 8.90759 40.061 9.00119C39.6086 9.82279 39.1562 10.6496 38.7038 11.4712C38.5373 11.7728 38.3865 12.0848 38.215 12.3864C38.0434 12.6932 37.8561 12.9948 37.6793 13.3016C37.5025 13.598 37.331 13.8996 37.149 14.1908C37.0345 14.378 36.9098 14.5652 36.7954 14.7524C36.5874 15.0904 36.3897 15.4388 36.1713 15.7716C35.875 16.2344 35.5681 16.6868 35.2613 17.1444C34.9701 17.5812 34.679 18.0128 34.3929 18.4496C34.2421 18.6784 34.1069 18.9124 33.9458 19.1828C34.7673 19.1932 35.3446 19.6144 35.8698 20.1552C36.0102 20.0304 36.1506 19.9212 36.2754 19.7964C36.7278 19.3336 37.305 19.1776 37.9081 19.1152C38.1058 19.0944 38.3138 19.188 38.5165 19.2244C39.0106 19.3232 39.4422 19.5312 39.7438 19.9576C39.853 20.1136 39.983 20.2592 40.0818 20.4256C40.2118 20.644 40.3261 20.8728 40.4405 21.1016C40.4873 21.1952 40.5186 21.2888 40.5653 21.4032C41.2726 21.1744 41.959 20.9508 42.6765 20.7116C42.5518 20.5608 42.4529 20.4412 42.3541 20.3216C42.0681 19.9784 41.7873 19.6404 41.7977 19.1516C41.7977 19.136 41.7925 19.1152 41.7873 19.0996C41.6157 18.6732 41.6261 18.2312 41.7041 17.784C41.7925 17.264 41.8965 16.7492 42.0993 16.2656C42.2137 16.0316 42.3177 15.782 42.4321 15.5012ZM17.7582 50.544C17.7685 50.5596 17.7789 50.5804 17.7893 50.596C18.1117 50.596 18.4341 50.5908 18.7565 50.596C19.0581 50.6012 19.3649 50.622 19.6665 50.6324C20.0929 50.6428 20.5194 50.648 20.9509 50.6584C21.4085 50.6688 21.8713 50.6844 22.3289 50.6948C22.5161 50.7 22.7085 50.6948 22.8957 50.6896C23.1609 50.6844 23.4313 50.6636 23.6965 50.6584C23.8369 50.6532 23.9877 50.6324 24.1125 50.674C24.3829 50.7624 24.6481 50.6792 24.9133 50.6948C25.1785 50.7104 25.4541 50.622 25.7141 50.6688C26.2549 50.7624 26.7905 50.6584 27.3313 50.6844C27.6173 50.7 27.9033 50.6584 28.1893 50.6428C28.2673 50.6376 28.3453 50.6584 28.4233 50.6636C28.5325 50.674 28.6469 50.6792 28.7561 50.6844C29.0265 50.6844 29.2917 50.7 29.5621 50.674C29.7961 50.6532 30.0301 50.622 30.2589 50.7C30.2797 50.7052 30.3109 50.6844 30.3369 50.6844C30.4409 50.6792 30.5449 50.6636 30.6437 50.6688C31.0077 50.6948 31.3665 50.7364 31.7305 50.7624C31.8397 50.7728 31.9541 50.752 32.0737 50.7468C32.0581 50.596 32.0321 50.4764 31.9333 50.3672C31.8189 50.2372 31.7253 50.0812 31.6421 49.9304C31.3977 49.4988 31.0805 49.1192 30.7789 48.7292C30.7425 48.6824 30.6905 48.6408 30.6489 48.5992C30.4409 48.386 30.2277 48.178 30.0197 47.9648C29.9937 47.9388 29.9729 47.9076 29.9417 47.8972C29.7077 47.814 29.5361 47.632 29.3333 47.4916C28.9537 47.2264 28.5585 46.9924 28.1737 46.7324C27.8409 46.5036 27.4457 46.4672 27.0869 46.3216C26.9361 46.2592 26.7697 46.2332 26.6137 46.202C26.4369 46.1656 26.2497 46.228 26.0833 46.124C26.0521 46.1032 26.0001 46.1292 25.9585 46.1344C25.7349 46.1604 25.5061 46.1916 25.2825 46.2124C25.1525 46.2228 25.0225 46.2072 24.8925 46.228C24.5909 46.2748 24.2893 46.332 23.9877 46.3944C23.4937 46.4984 23.0205 46.67 22.5525 46.878C22.0793 47.086 21.6217 47.3252 21.1745 47.5852C20.9769 47.6996 20.7845 47.8244 20.5973 47.9492C20.4205 48.0636 20.2489 48.1884 20.0825 48.3184C19.8433 48.5056 19.5937 48.6928 19.3701 48.9008C19.0269 49.218 18.6941 49.5456 18.3665 49.8784C18.1637 50.0916 17.9662 50.3204 17.7582 50.544ZM17.7582 50.544C17.7685 50.5596 17.7789 50.5804 17.7893 50.596C18.1117 50.596 18.4341 50.5908 18.7565 50.596C19.0581 50.6012 19.3649 50.622 19.6665 50.6324C20.0929 50.6428 20.5194 50.648 20.9509 50.6584C21.4085 50.6688 21.8713 50.6844 22.3289 50.6948C22.5161 50.7 22.7085 50.6948 22.8957 50.6896C23.1609 50.6844 23.4313 50.6636 23.6965 50.6584C23.8369 50.6532 23.9877 50.6324 24.1125 50.674C24.3829 50.7624 24.6481 50.6792 24.9133 50.6948C25.1785 50.7104 25.4541 50.622 25.7141 50.6688C26.2549 50.7624 26.7905 50.6584 27.3313 50.6844C27.6173 50.7 27.9033 50.6584 28.1893 50.6428C28.2673 50.6376 28.3453 50.6584 28.4233 50.6636C28.5325 50.674 28.6469 50.6792 28.7561 50.6844C29.0265 50.6844 29.2917 50.7 29.5621 50.674C29.7961 50.6532 30.0301 50.622 30.2589 50.7C30.2797 50.7052 30.3109 50.6844 30.3369 50.6844C30.4409 50.6792 30.5449 50.6636 30.6437 50.6688C31.0077 50.6948 31.3665 50.7364 31.7305 50.7624C31.8397 50.7728 31.9541 50.752 32.0737 50.7468C32.0581 50.596 32.0321 50.4764 31.9333 50.3672C31.8189 50.2372 31.7253 50.0812 31.6421 49.9304C31.3977 49.4988 31.0805 49.1192 30.7789 48.7292C30.7425 48.6824 30.6905 48.6408 30.6489 48.5992C30.4409 48.386 30.2277 48.178 30.0197 47.9648C29.9937 47.9388 29.9729 47.9076 29.9417 47.8972C29.7077 47.814 29.5361 47.632 29.3333 47.4916C28.9537 47.2264 28.5585 46.9924 28.1737 46.7324C27.8409 46.5036 27.4457 46.4672 27.0869 46.3216C26.9361 46.2592 26.7697 46.2332 26.6137 46.202C26.4369 46.1656 26.2497 46.228 26.0833 46.124C26.0521 46.1032 26.0001 46.1292 25.9585 46.1344C25.7349 46.1604 25.5061 46.1916 25.2825 46.2124C25.1525 46.2228 25.0225 46.2072 24.8925 46.228C24.5909 46.2748 24.2893 46.332 23.9877 46.3944C23.4937 46.4984 23.0205 46.67 22.5525 46.878C22.0793 47.086 21.6217 47.3252 21.1745 47.5852C20.9769 47.6996 20.7845 47.8244 20.5973 47.9492C20.4205 48.0636 20.2489 48.1884 20.0825 48.3184C19.8433 48.5056 19.5937 48.6928 19.3701 48.9008C19.0269 49.218 18.6941 49.5456 18.3665 49.8784C18.1637 50.0916 17.9662 50.3204 17.7582 50.544ZM24.8665 8.63719C24.8665 8.84519 24.8665 9.01159 24.8665 9.18319C24.8561 9.80719 24.8405 10.426 24.8301 11.05C24.8249 11.2736 24.8197 11.4972 24.8249 11.7156C24.8354 12.0588 24.8613 12.4072 24.8717 12.7504C24.8821 13.2548 24.8873 13.7644 24.8977 14.274C24.9029 14.4612 24.9497 14.6432 24.8717 14.8252C25.0225 15.262 24.8093 15.7092 24.9185 16.1512C24.9237 16.1772 24.9289 16.2084 24.9185 16.2292C24.8041 16.5256 24.9289 16.822 24.8977 17.1184C24.8769 17.3004 24.8873 17.4876 24.8925 17.6748C24.8977 17.8932 24.9237 18.1116 24.8353 18.3248C24.8197 18.3612 24.8457 18.4132 24.8457 18.4548C24.8717 18.8292 24.9133 19.1984 24.9185 19.5728C24.9341 20.2748 24.9289 20.9768 24.9237 21.6788C24.9237 22.0168 24.8977 22.3548 24.8977 22.6876C24.9029 23.166 24.9289 23.6444 24.9289 24.128C24.9289 24.3308 24.8873 24.5336 24.8821 24.7364C24.8769 24.9548 24.8821 25.1784 24.9133 25.3968C24.9653 25.7452 24.8353 26.0936 24.9133 26.4472C24.9497 26.6292 24.8874 26.8268 24.8717 27.0192C24.8665 27.0764 24.8561 27.144 24.8769 27.196C25.0017 27.5392 24.7937 27.898 24.9341 28.2412C24.9445 28.2672 24.9029 28.3036 24.9029 28.34C24.8977 28.5792 24.8873 28.8184 24.8925 29.0576C24.9029 29.4996 24.9237 29.9416 24.9289 30.3836C24.9341 30.55 24.9133 30.7164 24.9081 30.8828C24.8977 31.0648 24.8769 31.252 24.8769 31.434C24.8821 31.9436 24.9029 32.4584 24.9133 32.968C24.9133 32.994 24.9029 33.02 24.8925 33.0408C24.8041 33.1916 24.8457 33.3476 24.8561 33.5036C24.8665 33.6492 24.8457 33.8 24.8353 33.9456C24.8301 34.0184 24.8197 34.086 24.8249 34.1588C24.851 34.4916 24.9289 34.8244 24.8249 35.1624C24.8145 35.204 24.8301 35.2508 24.8301 35.2924C24.8301 35.3912 24.8249 35.4848 24.8249 35.5836C24.8249 35.6616 24.8249 35.7344 24.8353 35.8124C24.8457 35.9268 24.8769 36.0412 24.8769 36.1504C24.8769 36.3064 24.8561 36.4624 24.8353 36.6184C24.7833 37.0084 24.8977 37.3932 24.8353 37.7832C24.8145 37.9236 24.8665 38.0744 24.7885 38.22C24.7625 38.2616 24.7989 38.3396 24.8041 38.3968C24.8145 38.4748 24.8301 38.5528 24.8301 38.6308C24.8301 38.9896 24.8301 39.3536 24.8249 39.7124C24.8249 39.78 24.8041 39.8476 24.7885 39.9204C24.7417 40.1804 24.7209 40.4404 24.7885 40.7004C24.8093 40.7784 24.8197 40.8564 24.8145 40.9344C24.7885 41.2412 24.7573 41.5428 24.7313 41.8444C24.7261 41.886 24.7209 41.938 24.7313 41.9744C24.8249 42.3176 24.7521 42.6556 24.7313 42.9988C24.7209 43.1912 24.7001 43.3888 24.7365 43.576C24.7885 43.8776 24.8353 44.1792 24.8041 44.486C24.7833 44.7044 24.7521 44.928 24.8509 45.1516C25.2149 45.1932 25.5477 45.0268 25.9014 45.032C25.9014 44.7096 25.8961 44.4184 25.9014 44.1272C25.9065 43.836 25.9169 43.5396 25.9221 43.2484C25.9221 43.1236 25.9117 42.9988 25.9221 42.8792C25.9533 42.536 25.9273 42.1928 25.9169 41.8496C25.9117 41.6208 25.8857 41.3868 25.8805 41.158C25.8701 40.768 25.8649 40.3832 25.8545 39.9932C25.8441 39.6396 25.8597 39.2808 25.8129 38.9324C25.7453 38.428 25.7713 37.9236 25.7349 37.4192C25.7297 37.3412 25.7401 37.258 25.7453 37.18C25.7609 36.9616 25.7921 36.7432 25.7973 36.5248C25.8129 36.0412 25.6777 35.5576 25.7817 35.0688C25.7921 35.0116 25.7765 34.944 25.7713 34.8816C25.761 34.7776 25.7453 34.6736 25.7453 34.5644C25.7505 34.2004 25.7661 33.8416 25.7713 33.4776C25.7765 33.1968 25.7765 32.9108 25.7921 32.63C25.8181 32.2192 25.8285 31.8136 25.8181 31.408C25.813 31.2208 25.8025 31.0284 25.8493 30.8516C25.8961 30.6696 25.8857 30.5032 25.8597 30.3264C25.8441 30.2016 25.8285 30.0768 25.8337 29.952C25.8441 29.3644 25.8649 28.782 25.8753 28.1944C25.8805 28.002 25.8181 27.7992 25.8493 27.612C25.9221 27.17 25.8545 26.7332 25.8753 26.2912C25.8909 25.8856 25.8961 25.48 25.9014 25.0744C25.9065 24.8196 25.9065 24.5648 25.9221 24.31C25.9377 24.0708 25.9533 23.8368 25.8805 23.6028C25.8753 23.5768 25.8753 23.5508 25.8753 23.5248C25.8857 23.348 25.9065 23.1712 25.9065 22.9944C25.9065 22.6148 25.9013 22.2352 25.8857 21.8556C25.8805 21.6372 25.8805 21.4188 25.8545 21.1952C25.8181 20.8676 25.8753 20.5244 25.8753 20.1916C25.8805 19.5572 25.8753 18.9176 25.8753 18.2832C25.8753 18.1324 25.8805 17.9816 25.8753 17.836C25.8649 17.5448 25.8337 17.2588 25.8337 16.9676C25.8285 16.6504 25.8545 16.328 25.8493 16.0108C25.8441 15.47 25.8181 14.9344 25.8129 14.3936C25.8077 13.8528 25.8181 13.312 25.8181 12.7712C25.8181 12.4436 25.8129 12.1212 25.8077 11.7936C25.8025 11.362 25.7817 10.9304 25.7817 10.4988C25.7817 10.1348 25.8181 9.77079 25.8285 9.40679C25.8337 9.20399 25.8181 9.00639 25.8129 8.79319C25.4853 8.74119 25.1785 8.68919 24.8665 8.63719ZM47.8557 15.5844C47.9129 15.5896 47.9546 15.5896 47.9962 15.5896C48.173 15.5844 48.277 15.6572 48.3601 15.8288C48.4745 16.0732 48.4797 16.2916 48.3186 16.5048C48.2197 16.6296 48.2042 16.77 48.2354 16.9052C48.2822 17.0976 48.3601 17.2692 48.563 17.3628C48.6982 17.4304 48.8489 17.5188 48.9321 17.6384C49.0725 17.8308 49.0985 18.0544 48.9529 18.2832C48.8489 18.4392 48.9269 18.5536 49.1141 18.564C49.1713 18.5692 49.2337 18.5588 49.291 18.538C49.5925 18.4288 49.8422 18.2416 50.0762 18.018C50.2113 17.888 50.2738 17.732 50.2946 17.5448C50.3153 17.3576 50.2477 17.2224 50.1073 17.108C49.8941 16.926 49.811 16.6816 49.8734 16.4112C49.9202 16.2136 49.993 16.0212 50.0865 15.8444C50.1749 15.678 50.2113 15.5324 50.1541 15.34C50.0969 15.1424 49.9617 15.0384 49.8005 14.9812C49.4729 14.8668 49.3949 14.5756 49.4677 14.2948C49.5093 14.1336 49.5561 13.9672 49.5873 13.8008C49.6237 13.5876 49.5873 13.52 49.3949 13.416C49.2701 13.3484 49.1453 13.2808 49.0205 13.2236C48.9685 13.2028 48.9061 13.1924 48.8541 13.1976C48.7449 13.2132 48.6357 13.2444 48.5266 13.2704C48.2249 13.3432 47.9494 13.1404 47.9234 12.8232C47.9182 12.7348 47.9234 12.6464 47.9338 12.558C47.9493 12.4176 47.8661 12.35 47.7569 12.35C47.5957 12.35 47.4189 12.35 47.2682 12.4072C46.9665 12.5164 46.6754 12.662 46.379 12.7972C46.093 12.9272 45.9058 12.87 45.7862 12.5736C45.7134 12.402 45.6198 12.3292 45.4326 12.3292C45.3234 12.3292 45.2297 12.3448 45.1413 12.402C45.0113 12.4904 44.8813 12.5892 44.7357 12.6412C44.4497 12.74 44.3717 12.9636 44.3145 13.2236C44.2834 13.3692 44.2365 13.5148 44.169 13.6448C44.0597 13.8528 43.9038 13.9048 43.6854 13.8216C43.5814 13.78 43.4826 13.7124 43.3838 13.6552C43.1133 13.4992 42.7649 13.6188 42.6454 13.9048C42.5257 14.2012 42.6922 14.4196 42.8221 14.716C42.9678 14.4196 43.1706 14.2688 43.4098 14.1492C43.5502 14.0764 43.6906 14.0712 43.7374 14.1752C43.8153 14.352 43.9037 14.5288 43.7893 14.7316C43.6905 14.9136 43.6073 15.1112 43.5137 15.3192C43.6385 15.3088 43.7374 15.2828 43.8153 15.1788C43.9506 14.9968 44.0805 14.8044 44.2313 14.638C44.3717 14.4768 44.4497 14.4768 44.6474 14.5704C44.9906 14.7316 45.313 14.6796 45.5834 14.4144C45.7186 14.2792 45.8486 14.1336 45.9734 13.988C46.171 13.7592 46.3633 13.7748 46.5089 14.0348C46.5453 14.0972 46.5765 14.1596 46.6129 14.222C46.6961 14.3832 46.8885 14.4664 47.0446 14.3936C47.2942 14.2844 47.5385 14.17 47.7829 14.0608C47.9753 13.9776 48.0845 14.0192 48.1885 14.2064C48.3965 14.586 48.381 14.7576 48.1054 15.0956C47.9962 15.2464 47.9025 15.3972 47.8557 15.5844ZM40.243 24.0032C40.2221 23.7276 40.2066 23.5092 40.1909 23.2856C40.1805 23.1712 40.1857 23.0516 40.1545 22.9424C40.0194 22.4588 39.8789 21.9804 39.6241 21.5332C39.4265 21.1848 39.1978 20.8936 38.9118 20.6284C38.5218 20.2696 38.0485 20.2956 37.5858 20.3372C37.3257 20.3632 37.0813 20.514 36.8577 20.6648C36.4002 20.9716 36.1401 21.4292 35.9269 21.918C35.6825 22.4848 35.4538 23.062 35.2198 23.634C35.1574 23.7848 35.0949 23.9408 35.0169 24.1384C35.1521 24.102 35.2561 24.0344 35.3446 24.05C35.563 24.0968 35.771 24.0708 35.9893 24.0552C36.1973 24.0344 36.4053 24.0344 36.6185 24.0344C36.785 24.0344 36.9566 24.0032 37.1073 24.05C37.3205 24.1176 37.5233 24.0656 37.7262 24.0604C38.0018 24.05 38.2826 24.024 38.5582 23.998C38.8286 23.972 39.1041 24.0968 39.3745 23.998C39.3797 23.9928 39.3901 23.998 39.4005 23.998C39.6709 24.0032 39.9465 24.0032 40.243 24.0032ZM42.9262 16.4892C42.8482 16.7284 42.7805 16.9468 42.7129 17.1652C42.5882 17.5552 42.5361 17.9556 42.5049 18.3664C42.4893 18.5328 42.4945 18.6836 42.5621 18.8344C42.7129 19.1776 42.8741 19.5052 43.2018 19.7236C43.4254 19.8692 43.6282 20.0356 43.8829 20.1344C44.0546 20.202 44.221 20.2488 44.403 20.2644C44.4706 20.2696 44.5382 20.2956 44.6057 20.306C44.7253 20.3216 44.8502 20.3372 44.9698 20.3476C45.3598 20.3736 45.7029 20.2228 46.041 20.0512C46.2697 19.9368 46.5349 19.864 46.6805 19.6144C46.6909 19.5936 46.7221 19.5832 46.743 19.5676C47.0497 19.3388 47.3618 19.11 47.6217 18.824C47.6581 18.7876 47.6945 18.7356 47.7413 18.72C47.9077 18.6784 47.965 18.5328 48.069 18.3924C48.017 18.3508 47.9598 18.3196 47.9234 18.2728C47.7257 18.0596 47.5177 17.8464 47.4657 17.5396C47.4293 17.3212 47.3929 17.1028 47.3773 16.8792C47.367 16.77 47.3618 16.6712 47.2837 16.588C47.0757 16.3644 47.0289 16.0888 47.0446 15.7976C47.0498 15.7144 47.055 15.6312 47.0653 15.5064C46.7586 15.6104 46.5141 15.5792 46.2802 15.418C46.2021 15.3608 46.1241 15.4024 46.0357 15.4492C45.8069 15.574 45.5989 15.7508 45.3338 15.7872C45.0789 15.8236 44.8242 15.8548 44.5226 15.8964C44.1637 16.4112 43.6698 16.718 42.9262 16.4892ZM31.2105 24.1748C31.5693 24.1072 31.8813 24.1852 32.1881 24.0968C32.3597 24.05 32.5521 24.0656 32.7289 24.076C33.0669 24.102 33.3997 24.1228 33.7429 24.0812C33.9561 24.0552 34.0965 23.9304 34.159 23.7692C34.2838 23.4572 34.4501 23.1608 34.5957 22.8592C34.8401 22.3496 35.0378 21.8192 35.2509 21.294C35.277 21.2316 35.303 21.1276 35.2718 21.0912C35.1418 20.93 35.0065 20.7636 34.8401 20.644C34.7102 20.5504 34.5229 20.54 34.3773 20.4672C34.0289 20.2904 33.7221 20.41 33.4153 20.5764C33.3425 20.618 33.2645 20.67 33.2125 20.7324C32.9421 21.0808 32.6353 21.398 32.4533 21.8088C32.4117 21.9076 32.3545 22.0012 32.2921 22.0792C31.9229 22.5524 31.7097 23.1036 31.4601 23.6392C31.3821 23.8056 31.3093 23.9616 31.2105 24.1748ZM45.7549 21.424C45.7445 21.4084 45.7341 21.3876 45.7238 21.372C45.5938 21.4084 45.4637 21.4708 45.3285 21.476C44.8397 21.4864 44.3405 21.5592 43.8674 21.3512C43.7738 21.3096 43.6646 21.2784 43.5762 21.372C43.3265 21.6372 42.9989 21.7568 42.6713 21.8712C42.4269 21.9596 42.1773 22.0428 41.9329 22.126C41.7249 22.1988 41.5221 22.2768 41.3141 22.3288C41.1737 22.3652 41.0541 22.4224 40.945 22.5264C40.9762 22.7656 41.0333 23.0048 41.0229 23.2388C41.0126 23.4832 40.9397 23.7172 40.8877 23.972C41.1997 24.0812 41.5325 24.0136 41.8549 24.0084C42.2137 24.0032 42.5674 23.9616 42.9262 24.024C43.1394 24.0656 43.337 24.0188 43.4618 23.7952C43.493 23.738 43.5606 23.6964 43.6073 23.6444C43.6749 23.5768 43.753 23.5196 43.7998 23.4416C44.013 23.1036 44.273 22.802 44.5798 22.5524C44.7618 22.4068 44.9282 22.2612 45.0529 22.0688C45.0737 22.0428 45.1049 22.022 45.131 21.996C45.3338 21.814 45.5469 21.6216 45.7549 21.424ZM48.0326 22.1988C47.8974 22.1728 47.7726 22.1364 47.6426 22.126C47.4137 22.1 47.1797 22.074 46.9457 22.074C46.8313 22.074 46.7118 22.1156 46.6234 22.2144C46.5506 22.2924 46.457 22.3392 46.3633 22.3964C45.781 22.7604 45.2609 23.2024 44.8293 23.7484C44.7929 23.7952 44.7565 23.8524 44.7149 23.9096C45.0633 23.8888 45.3806 23.8732 45.7029 23.8472C45.9629 23.8264 46.2229 23.868 46.4777 23.7796C46.5401 23.7588 46.6181 23.764 46.6857 23.764C46.9457 23.7588 47.2109 23.7536 47.471 23.7536C47.5802 23.7536 47.6945 23.7848 47.8037 23.7796C48.0845 23.7692 48.3705 23.894 48.6513 23.7588C48.6773 23.1504 48.5681 22.5888 48.0326 22.1988ZM25.0849 6.41159C25.0641 6.41159 25.0433 6.41159 25.0225 6.41159C24.9705 6.60919 24.9341 6.81719 24.8613 7.00959C24.7885 7.21239 24.6793 7.39959 24.5753 7.61799C24.9185 7.64399 25.2097 7.77919 25.5373 7.76879C25.3813 7.30599 25.2305 6.85879 25.0849 6.41159ZM47.9285 20.956C47.9389 20.9404 47.9494 20.9196 47.9598 20.904C47.8246 20.6856 47.6894 20.4724 47.5645 20.2696C47.2733 20.4672 46.9873 20.6648 46.7013 20.8624C46.6181 20.9196 46.535 20.9716 46.535 21.1068C46.7221 21.0496 46.899 21.0132 47.0653 20.9456C47.2369 20.878 47.4033 20.8676 47.5749 20.9092C47.6894 20.9404 47.8089 20.9456 47.9285 20.956ZM49.4938 23.8368C49.6601 23.7328 49.6601 23.7328 49.5093 23.5976C49.5042 23.6756 49.499 23.738 49.4938 23.8368Z" fill="#38312c"/>
<path d="M44.5955 17.966C44.6163 17.9036 44.6319 17.7892 44.6787 17.6852C44.8399 17.3264 45.0375 16.9936 45.2975 16.6972C45.4119 16.562 45.5211 16.4268 45.6407 16.2916C45.7603 16.1564 45.9007 16.0576 46.0983 16.094C46.2023 16.12 46.2803 16.1824 46.2803 16.2968C46.2803 16.51 46.2855 16.718 46.1399 16.9052C45.9527 17.16 45.7811 17.4252 45.6199 17.7008C45.5523 17.8204 45.5003 17.9608 45.4899 18.096C45.4639 18.3612 45.3027 18.5068 45.0895 18.6108C44.9075 18.6992 44.7151 18.5952 44.6631 18.3924C44.6267 18.2676 44.6215 18.1428 44.5955 17.966Z" fill="#38312c"/>
<path d="M45.3961 19.4481C45.3909 19.7133 45.0841 20.0409 44.8293 20.0045C44.5589 19.9681 44.2885 19.8849 44.0233 19.8069C43.9037 19.7705 43.4929 19.1621 43.5137 19.0477C43.5397 18.9021 43.5761 18.7461 43.6541 18.6265C43.7737 18.4445 43.9193 18.4445 44.1065 18.5641C44.1741 18.6057 44.2625 18.6109 44.3405 18.6369C44.4289 18.6681 44.5433 18.6785 44.5953 18.7357C44.6993 18.8553 44.8345 18.9021 44.9645 18.9073C45.3129 18.9229 45.3493 19.0321 45.3961 19.4481Z" fill="#38312c"/>
<path d="M46.7585 17.9244C46.7741 18.4392 46.5037 18.7044 46.1605 18.9072C45.9473 19.032 45.7445 18.902 45.7081 18.6472C45.7029 18.6056 45.6925 18.5588 45.7029 18.5172C45.7809 18.1792 45.9317 17.8932 46.2229 17.6852C46.3581 17.5864 46.4933 17.5656 46.6337 17.6384C46.7793 17.7164 46.7637 17.8568 46.7585 17.9244Z" fill="#38312c"/>
<path d="M44.7981 16.7752C44.7669 17.0664 44.6889 17.3784 44.3717 17.576C44.1013 17.7424 43.8777 17.5916 43.8361 17.3264C43.7893 17.0092 44.0129 16.5256 44.2833 16.3696C44.5797 16.198 44.7877 16.3176 44.7929 16.6712C44.7877 16.6868 44.7929 16.7024 44.7981 16.7752Z" fill="#38312c"/>
<path d="M0.182064 36.2595C0.161264 36.1139 0.145664 35.9735 0.119664 35.8331C0.0780644 35.6043 0.0780644 35.3703 0.0104644 35.1415C-0.0727356 34.8503 0.208064 34.5279 0.488864 34.4135C0.821664 34.2731 1.15966 34.3667 1.49246 34.3355C1.61726 34.3199 1.74206 34.3251 1.86686 34.3199C1.94486 34.3199 2.02806 34.3095 2.10606 34.3095C2.38166 34.3147 2.65726 34.3199 2.93286 34.3303C3.14606 34.3407 3.35926 34.3615 3.57246 34.3771C3.64526 34.3823 3.71286 34.3927 3.78566 34.3927C4.21726 34.4031 4.65406 34.4239 5.08566 34.4291C5.49646 34.4343 5.90206 34.4239 6.31286 34.4187C6.38566 34.4187 6.45846 34.4135 6.52606 34.4395C6.65086 34.4811 6.76526 34.4603 6.89006 34.4343C7.07726 34.3979 7.28006 34.4239 7.47246 34.4239C7.72206 34.4187 7.96646 34.4135 8.21607 34.4083C8.28887 34.4083 8.35647 34.3927 8.42927 34.3927C8.84007 34.4187 9.25607 34.4967 9.65647 34.4551C9.95287 34.4239 10.2545 34.4395 10.5457 34.4031C10.5873 34.3979 10.6341 34.3771 10.6757 34.3875C11.0501 34.4759 11.4193 34.3719 11.7885 34.3407C11.9393 34.3251 12.0901 34.3615 12.2461 34.3563C12.6881 34.3303 13.1301 34.2835 13.5773 34.2679C14.4561 34.2315 15.3349 34.1119 16.2189 34.1639C16.3957 34.1743 16.5777 34.1483 16.7545 34.1275C16.9365 34.1067 17.1081 34.0911 17.2797 34.1847C17.3213 34.2055 17.3941 34.2211 17.4305 34.2003C17.6021 34.1015 17.7841 34.1483 17.9557 34.1535C18.3041 34.1691 18.6473 34.2055 18.9957 34.1223C19.0893 34.1015 19.1933 34.1015 19.2869 34.1223C19.7289 34.2159 20.1605 34.0859 20.5973 34.0963C20.8989 34.1015 21.2057 34.0911 21.5125 34.1015C21.8349 34.1119 22.0169 34.3095 22.0377 34.6423C22.0533 34.8867 22.0065 35.1051 21.8765 35.3183C21.7101 35.5939 21.6685 35.9111 21.6113 36.2231C21.5333 36.6131 21.4865 37.0135 21.4189 37.4035C21.3721 37.6687 21.3201 37.9391 21.2369 38.1991C21.1381 38.5163 21.0341 38.8439 20.8781 39.1403C20.6701 39.5407 20.4101 39.9099 20.1761 40.2947C19.9733 40.6223 19.7965 40.9759 19.5573 41.2775C19.2453 41.6727 18.9125 42.0575 18.5485 42.4007C18.0753 42.8583 17.5657 43.2743 17.0665 43.7059C16.8325 43.9035 16.6037 44.1219 16.3385 44.2623C16.0473 44.4183 15.7821 44.6315 15.4805 44.7459C15.0333 44.9227 14.5653 45.0527 14.0973 45.1723C13.7541 45.2607 13.4057 45.3231 13.0573 45.3595C12.8753 45.3803 12.6933 45.3647 12.5113 45.4011C12.3137 45.4375 12.1109 45.4271 11.9081 45.4271C11.5805 45.4271 11.2529 45.4219 10.9253 45.4167C10.6913 45.4115 10.4521 45.4011 10.2181 45.3855C10.1557 45.3803 10.0985 45.3543 10.0361 45.3387C9.97367 45.3231 9.90607 45.2867 9.85407 45.3075C9.60967 45.3855 9.38087 45.2919 9.15207 45.2451C8.86607 45.1827 8.59046 45.0631 8.30966 44.9799C8.07046 44.9123 7.82086 44.8811 7.58166 44.7979C7.34766 44.7147 7.12926 44.5951 6.90047 44.4911C6.82766 44.4599 6.75486 44.4339 6.68207 44.4079C6.62487 44.3871 6.55726 44.3819 6.50526 44.3559C6.11006 44.1687 5.70966 43.9867 5.33006 43.7735C4.97646 43.5811 4.61246 43.3887 4.31086 43.1287C4.10286 42.9519 3.86886 42.8271 3.66606 42.6555C3.39566 42.4215 3.15126 42.1563 2.89126 41.9067C2.81326 41.8287 2.73526 41.7559 2.65206 41.6831C2.08006 41.1579 1.61726 40.5391 1.17006 39.9047C0.852865 39.4523 0.634464 38.9583 0.494064 38.4279C0.416064 38.1315 0.395264 37.8195 0.343264 37.5127C0.301664 37.2631 0.244464 37.0135 0.202864 36.7639C0.176864 36.6027 0.156064 36.4415 0.130064 36.2855C0.150864 36.2647 0.166464 36.2595 0.182064 36.2595Z" fill="url(#paint0_linear_10375_10180)"/>
</g>
</g>
<defs>
<linearGradient id="paint0_linear_10375_10180" x1="6.44025e-05" y1="39.7522" x2="22.0427" y2="39.7522" gradientUnits="userSpaceOnUse">
<stop stop-color="#FF6600"/>
<stop offset="1" stop-color="#F4AC2B"/>
</linearGradient>
<clipPath id="clip0_10375_10180">
<rect width="52" height="52" rx="12" fill="white"/>
</clipPath>
<clipPath id="clip1_10375_10180">
<rect width="52" height="52" fill="white"/>
</clipPath>
</defs>
</svg>
