<svg width="52" height="52" viewBox="0 0 52 52" fill="none" xmlns="http://www.w3.org/2000/svg">
<g clip-path="url(#clip0_10380_10369)">
<path fill-rule="evenodd" clip-rule="evenodd" d="M25 49.541C37.449 49.541 47.541 39.449 47.541 27C47.541 14.551 37.449 4.45902 25 4.45902C12.551 4.45902 2.45902 14.551 2.45902 27C2.45902 39.449 12.551 49.541 25 49.541ZM25 52C38.8071 52 50 40.8071 50 27C50 13.1929 38.8071 2 25 2C11.1929 2 0 13.1929 0 27C0 40.8071 11.1929 52 25 52Z" fill="#B6A9C7"/>
<path fill-rule="evenodd" clip-rule="evenodd" d="M40.0725 10.1347C36.223 6.69433 31.3221 4.6825 26.19 4.41226C25.5334 4.37768 25 3.84796 25 3.19047C25 2.53299 25.5333 1.99704 26.1901 2.02832C31.9078 2.30066 37.373 4.52892 41.6591 8.35935C46.2417 12.4548 49.1551 18.0948 49.8429 24.2021C50.5307 30.3094 48.9447 36.4561 45.3879 41.4683C41.831 46.4804 36.5526 50.0067 30.5606 51.3737C24.5686 52.7407 18.283 51.8526 12.9043 48.879C7.52559 45.9055 3.4307 41.0548 1.40169 35.2534C-0.627325 29.4521 -0.448262 23.1066 1.90468 17.4289C4.10536 12.1186 8.06344 7.74049 13.0973 5.01529C13.6755 4.70227 14.3885 4.95388 14.6737 5.5463C14.9588 6.13873 14.7079 6.84741 14.1313 7.16332C9.62422 9.63263 6.08078 13.5709 4.10423 18.3404C1.97538 23.4774 1.81337 29.2185 3.64914 34.4674C5.48491 39.7162 9.18982 44.1049 14.0563 46.7953C18.9227 49.4857 24.6097 50.2892 30.031 49.0524C35.4523 47.8156 40.2281 44.6251 43.4462 40.0903C46.6643 35.5555 48.0992 29.9942 47.4769 24.4686C46.8546 18.9429 44.2186 13.8401 40.0725 10.1347Z" fill="#38312c"/>
<path d="M14.248 30.5C13.6214 30.5 13.0147 30.3667 12.428 30.1C11.8547 29.8333 11.348 29.48 10.908 29.04C10.468 28.5867 10.1147 28.0667 9.84805 27.48C9.58138 26.88 9.44805 26.2533 9.44805 25.6C9.44805 24.92 9.57471 24.2867 9.82805 23.7C10.0947 23.1 10.4614 22.58 10.928 22.14C11.408 21.7 11.968 21.3533 12.608 21.1C13.2614 20.8333 13.9747 20.7 14.748 20.7C15.5214 20.7 16.228 20.8333 16.868 21.1C17.5214 21.3533 18.0814 21.7 18.548 22.14C19.028 22.58 19.3947 23.1 19.648 23.7C19.9147 24.2867 20.048 24.92 20.048 25.6C20.048 26.08 19.9814 26.5267 19.848 26.94C19.728 27.3533 19.5947 27.7133 19.448 28.02C19.2747 28.38 19.0747 28.7067 18.848 29L14.948 35H11.848L14.848 30.4C14.7814 30.4267 14.7214 30.4467 14.668 30.46C14.5347 30.4867 14.3947 30.5 14.248 30.5ZM12.348 25.6C12.348 26.2533 12.568 26.8 13.008 27.24C13.4614 27.68 14.0414 27.9 14.748 27.9C15.4547 27.9 16.028 27.68 16.468 27.24C16.9214 26.8 17.148 26.2533 17.148 25.6C17.148 24.9467 16.9214 24.4 16.468 23.96C16.028 23.52 15.4547 23.3 14.748 23.3C14.0414 23.3 13.4614 23.52 13.008 23.96C12.568 24.4 12.348 24.9467 12.348 25.6ZM24.3527 28C24.3527 28.7733 24.4394 29.4533 24.6127 30.04C24.7861 30.6133 25.0127 31.0933 25.2927 31.48C25.5727 31.8533 25.8927 32.1333 26.2527 32.32C26.6127 32.5067 26.9794 32.6 27.3527 32.6C27.7261 32.6 28.0927 32.5067 28.4527 32.32C28.8127 32.1333 29.1327 31.8533 29.4127 31.48C29.6927 31.0933 29.9194 30.6133 30.0927 30.04C30.2661 29.4533 30.3527 28.7733 30.3527 28C30.3527 27.2267 30.2661 26.5533 30.0927 25.98C29.9194 25.3933 29.6927 24.9133 29.4127 24.54C29.1327 24.1533 28.8127 23.8667 28.4527 23.68C28.0927 23.4933 27.7261 23.4 27.3527 23.4C26.9794 23.4 26.6127 23.4933 26.2527 23.68C25.8927 23.8667 25.5727 24.1533 25.2927 24.54C25.0127 24.9133 24.7861 25.3933 24.6127 25.98C24.4394 26.5533 24.3527 27.2267 24.3527 28ZM33.3527 28C33.3527 29.12 33.1861 30.1333 32.8527 31.04C32.5327 31.9467 32.0994 32.7133 31.5527 33.34C31.0061 33.9667 30.3661 34.4533 29.6327 34.8C28.9127 35.1333 28.1527 35.3 27.3527 35.3C26.5527 35.3 25.7861 35.1333 25.0527 34.8C24.3327 34.4533 23.6994 33.9667 23.1527 33.34C22.6061 32.7133 22.1661 31.9467 21.8327 31.04C21.5127 30.1333 21.3527 29.12 21.3527 28C21.3527 26.88 21.5127 25.8667 21.8327 24.96C22.1661 24.0533 22.6061 23.2867 23.1527 22.66C23.6994 22.0333 24.3327 21.5533 25.0527 21.22C25.7861 20.8733 26.5527 20.7 27.3527 20.7C28.1527 20.7 28.9127 20.8733 29.6327 21.22C30.3661 21.5533 31.0061 22.0333 31.5527 22.66C32.0994 23.2867 32.5327 24.0533 32.8527 24.96C33.1861 25.8667 33.3527 26.88 33.3527 28Z" fill="#38312c"/>
<path d="M35.9272 22.5822C35.9272 22.774 35.989 22.9338 36.1126 23.0616C36.2362 23.1895 36.3907 23.2534 36.5762 23.2534C36.7616 23.2534 36.9161 23.1895 37.0397 23.0616C37.1634 22.9338 37.2252 22.774 37.2252 22.5822C37.2252 22.3904 37.1634 22.2306 37.0397 22.1027C36.9161 21.9749 36.7616 21.911 36.5762 21.911C36.3907 21.911 36.2362 21.9749 36.1126 22.1027C35.989 22.2306 35.9272 22.3904 35.9272 22.5822ZM39.9603 21.1438H41.1192L37.0397 27.8562H35.8808L39.9603 21.1438ZM38.1523 22.5822C38.1523 22.7868 38.1121 22.9849 38.0318 23.1767C37.9514 23.3621 37.8402 23.5283 37.698 23.6753C37.5558 23.8224 37.389 23.9406 37.1974 24.0301C37.0057 24.1196 36.7987 24.1644 36.5762 24.1644C36.3536 24.1644 36.1466 24.1196 35.955 24.0301C35.7634 23.9406 35.5965 23.8224 35.4543 23.6753C35.3121 23.5283 35.2009 23.3621 35.1205 23.1767C35.0402 22.9849 35 22.7868 35 22.5822C35 22.3776 35.0402 22.1826 35.1205 21.9973C35.2009 21.8055 35.3121 21.6361 35.4543 21.489C35.5965 21.342 35.7634 21.2237 35.955 21.1342C36.1466 21.0447 36.3536 21 36.5762 21C36.7987 21 37.0057 21.0447 37.1974 21.1342C37.389 21.2237 37.5558 21.342 37.698 21.489C37.8402 21.6361 37.9514 21.8055 38.0318 21.9973C38.1121 22.1826 38.1523 22.3776 38.1523 22.5822ZM41.0728 26.4178C41.0728 26.226 41.011 26.0662 40.8874 25.9384C40.7638 25.8105 40.6093 25.7466 40.4238 25.7466C40.2384 25.7466 40.0839 25.8105 39.9603 25.9384C39.8366 26.0662 39.7748 26.226 39.7748 26.4178C39.7748 26.6096 39.8366 26.7694 39.9603 26.8973C40.0839 27.0251 40.2384 27.089 40.4238 27.089C40.6093 27.089 40.7638 27.0251 40.8874 26.8973C41.011 26.7694 41.0728 26.6096 41.0728 26.4178ZM38.8477 26.4178C38.8477 26.2132 38.8879 26.0183 38.9682 25.8329C39.0486 25.6411 39.1598 25.4717 39.302 25.3247C39.4441 25.1776 39.611 25.0594 39.8026 24.9699C39.9943 24.8804 40.2013 24.8356 40.4238 24.8356C40.6464 24.8356 40.8534 24.8804 41.045 24.9699C41.2366 25.0594 41.4035 25.1776 41.5457 25.3247C41.6879 25.4717 41.7991 25.6411 41.8795 25.8329C41.9598 26.0183 42 26.2132 42 26.4178C42 26.6224 41.9598 26.8205 41.8795 27.0123C41.7991 27.1977 41.6879 27.3639 41.5457 27.511C41.4035 27.658 41.2366 27.7763 41.045 27.8658C40.8534 27.9553 40.6464 28 40.4238 28C40.2013 28 39.9943 27.9553 39.8026 27.8658C39.611 27.7763 39.4441 27.658 39.302 27.511C39.1598 27.3639 39.0486 27.1977 38.9682 27.0123C38.8879 26.8205 38.8477 26.6224 38.8477 26.4178Z" fill="#38312c"/>
</g>
<defs>
<clipPath id="clip0_10380_10369">
<rect width="52" height="52" fill="white"/>
</clipPath>
</defs>
</svg>
