<svg width="52" height="52" viewBox="0 0 52 52" fill="none" xmlns="http://www.w3.org/2000/svg">
<g clip-path="url(#clip0_10375_10170)">
<path d="M37.5867 20.7973C36.1503 20.7677 36.1883 18.9128 34.9794 18.3835C33.3653 17.6749 33.1189 18.335 32.3866 16.7124C31.7539 15.31 28.2633 16.9678 28.2749 15.4126C28.2882 13.7177 28.5422 11.3317 29.3709 9.85052C29.6631 9.32609 30.1348 8.94633 30.5067 8.48438C31.0165 7.85309 31.5861 7.30893 32.3865 7.04425C33.4709 6.68422 34.5702 6.49516 35.726 6.50009C36.8004 6.50503 37.8566 6.60038 38.8945 6.83547C40.5235 7.20536 41.8703 8.05037 42.9513 9.31952C44.1138 10.6857 44.6817 12.277 44.8295 14.0328C44.8893 14.7545 44.8162 15.4779 44.6319 16.17C44.3745 17.1333 44.1436 18.1082 43.7119 19.0206C42.9098 20.7205 41.6943 22.011 39.9191 22.7015C38.853 23.1158 38.6047 20.7381 37.5867 20.7973Z" fill="url(#paint0_linear_10375_10170)"/>
<path d="M36.718 15.6928C36.6637 15.7394 36.5963 15.8015 36.5264 15.8584C36.3632 15.993 36.0757 15.9024 35.9462 15.773C35.7519 15.5815 35.726 15.1934 35.9151 15.0045C35.9876 14.932 36.0394 14.8414 36.1353 14.7897C36.156 14.7793 36.1638 14.7224 36.1612 14.6888C36.1482 14.5697 36.1249 14.4507 36.1094 14.3291C36.099 14.2566 36.099 14.1842 36.0912 14.1117C36.0809 14.0108 36.0679 13.9073 36.055 13.8064C36.0342 13.6174 36.0109 13.4285 35.9928 13.2396C35.985 13.1672 36.0006 13.0896 35.985 13.0197C35.9488 12.8541 35.9591 12.6885 35.941 12.5228C35.9255 12.3857 35.9177 12.2486 35.9021 12.1114C35.8918 12.0079 35.8685 11.907 35.8607 11.8035C35.84 11.5835 35.827 11.3636 35.8063 11.1436C35.7908 10.9754 35.7726 10.8098 35.7571 10.6416C35.7442 10.5122 35.7442 10.3802 35.7985 10.2586C35.8244 10.2017 35.8633 10.1447 35.9125 10.1059C35.985 10.0438 36.0964 10.08 36.1223 10.1706C36.1508 10.2871 36.1715 10.4061 36.1819 10.5277C36.1948 10.683 36.1897 10.8382 36.2052 10.9909C36.2259 11.2316 36.2596 11.4722 36.2855 11.7103C36.3062 11.9277 36.3218 12.1476 36.3399 12.3676C36.3451 12.4271 36.3477 12.4892 36.3632 12.5461C36.3865 12.6315 36.3995 12.7143 36.3813 12.8023C36.3761 12.8256 36.3813 12.8541 36.3839 12.88C36.3995 13.0093 36.4228 13.1361 36.4357 13.2655C36.4539 13.4881 36.4564 13.7132 36.4823 13.9357C36.5186 14.2359 36.5678 14.5335 36.6144 14.8311C36.6352 14.9527 36.6585 14.9734 36.7854 14.9786C36.8968 14.9812 37.0081 14.976 37.1195 14.9734C37.1532 14.9734 37.1946 14.9656 37.2231 14.9786C37.3034 15.0174 37.3759 14.9993 37.4588 14.9889C37.7334 14.9527 38.0105 14.9734 38.2877 14.9863C38.412 14.9915 38.5363 14.9967 38.6607 15.0019C38.7824 15.0071 38.9015 15.0071 39.0233 15.0148C39.347 15.0355 39.6708 15.0562 39.992 15.0847C40.1888 15.1028 40.3857 15.1338 40.5825 15.1571C40.6162 15.1623 40.6525 15.1701 40.6862 15.1649C40.8623 15.1364 41.028 15.1985 41.199 15.2167C41.2171 15.2192 41.2327 15.227 41.2482 15.2244C41.4036 15.2192 41.5564 15.2141 41.7118 15.2115C41.8595 15.2089 41.8957 15.2477 41.9191 15.3978C41.945 15.5505 41.888 15.6462 41.7118 15.7575C41.5616 15.8532 41.4166 15.8895 41.2456 15.8688C41.1576 15.8584 41.0669 15.8584 40.9762 15.8532C40.9348 15.8506 40.8934 15.8506 40.8519 15.8506C40.7794 15.8506 40.7043 15.8636 40.6369 15.8481C40.5592 15.8274 40.4841 15.8222 40.4064 15.8429C40.3935 15.8455 40.3805 15.8506 40.3676 15.8481C40.1966 15.8015 40.0205 15.817 39.8444 15.8144C39.7511 15.8118 39.6605 15.7885 39.5672 15.773C39.5543 15.7704 39.5413 15.7627 39.5284 15.7653C39.3704 15.8015 39.2124 15.7704 39.0569 15.7471C38.9197 15.7264 38.7824 15.7238 38.6477 15.7213C38.5104 15.7187 38.3757 15.7083 38.2411 15.6954C38.197 15.6902 38.1478 15.7213 38.1012 15.7213C37.9613 15.7187 37.8214 15.7083 37.6816 15.7031C37.5624 15.7006 37.4407 15.698 37.3215 15.7006C37.2257 15.7031 37.1325 15.7161 37.0392 15.6799C37.0211 15.6721 36.9978 15.6824 36.9745 15.6824C36.8994 15.6799 36.8191 15.685 36.718 15.6928Z" fill="#38312c"/>
<path d="M33.1499 8.08261C33.17 8.0167 33.18 7.94552 33.2127 7.88489C33.2679 7.77681 33.396 7.77153 33.4588 7.87171C33.5618 8.03779 33.6446 8.21442 33.6898 8.4095C33.6949 8.43587 33.6999 8.46223 33.7099 8.48595C33.7953 8.68631 33.8857 8.88403 33.9711 9.08438C34.0163 9.18719 34.0615 9.29264 34.1042 9.39546C34.1494 9.50091 34.1143 9.59318 34.059 9.68017C33.9962 9.77771 33.8958 9.7619 33.843 9.70126C33.735 9.56945 33.612 9.45082 33.5643 9.26892C33.5367 9.16083 33.4814 9.05802 33.4412 8.95257C33.4262 8.91303 33.4161 8.86821 33.401 8.82867C33.3734 8.75749 33.3383 8.68631 33.3131 8.61249C33.2579 8.4385 33.1599 8.27769 33.1499 8.08261Z" fill="#38312c"/>
<path d="M28.9252 11.6985C28.9275 11.6005 28.9484 11.5128 29.0109 11.438C29.0642 11.3761 29.129 11.3581 29.1985 11.3916C29.3166 11.4509 29.4371 11.5102 29.5552 11.567C29.5737 11.5747 29.5899 11.5928 29.6085 11.5928C29.7937 11.5876 29.9281 11.732 30.0879 11.7991C30.2014 11.8455 30.2199 11.9744 30.2245 12.0879C30.2292 12.1962 30.1759 12.2891 30.0856 12.3355C30.0485 12.3561 29.9929 12.3535 29.9535 12.3355C29.7961 12.2633 29.6455 12.1833 29.4903 12.106C29.4718 12.0982 29.4556 12.0853 29.4371 12.0802C29.3143 12.0338 29.1893 11.9873 29.0665 11.9383C28.953 11.8945 28.9206 11.8352 28.9252 11.6985Z" fill="#38312c"/>
<path d="M42.2 18.2C42.2206 18.2123 42.267 18.2247 42.2979 18.2557C42.3752 18.3331 42.455 18.3919 42.5478 18.4384C42.6199 18.4755 42.6792 18.5499 42.7487 18.5994C42.7796 18.6242 42.8183 18.6335 42.8518 18.6551C42.9007 18.683 42.9497 18.714 42.996 18.748C43.0295 18.7728 43.0527 18.81 43.0862 18.8317C43.1892 18.906 43.2562 19.1289 43.2098 19.2621C43.1944 19.3054 43.1738 19.3457 43.1506 19.3828C43.063 19.5253 42.9857 19.5315 42.8672 19.4355C42.7667 19.3519 42.6637 19.2621 42.5504 19.2094C42.3675 19.1258 42.2206 18.971 42.0506 18.8657C41.9373 18.7945 41.8986 18.6025 41.9424 18.4229C41.9759 18.2867 42.0557 18.2092 42.1639 18.203C42.1717 18.2061 42.1742 18.203 42.2 18.2Z" fill="#38312c"/>
<path d="M43.55 11.9697C43.5408 11.9973 43.527 12.0526 43.5039 12.0968C43.4371 12.2267 43.3289 12.3095 43.2206 12.3703C43.1169 12.4256 43.0294 12.5057 42.9373 12.5776C42.7967 12.6881 42.6631 12.8124 42.5249 12.9312C42.5065 12.9478 42.4858 12.9588 42.465 12.9727C42.4143 13.0086 42.3614 13.0113 42.313 12.9671C42.2623 12.9229 42.2416 12.8566 42.2531 12.7848C42.2738 12.6356 42.3222 12.5002 42.4305 12.409C42.5963 12.2681 42.753 12.1051 42.9303 11.989C43.057 11.9062 43.163 11.7873 43.3035 11.7293C43.4602 11.6685 43.5154 11.6934 43.5408 11.8868C43.5431 11.9061 43.5454 11.9255 43.55 11.9697Z" fill="#38312c"/>
<path d="M38.0275 8.84636C38.0275 8.83617 38.0275 8.80559 38.0355 8.77756C38.1149 8.43098 38.1916 8.08696 38.271 7.74293C38.2922 7.65374 38.3319 7.57474 38.4086 7.51613C38.5092 7.43968 38.615 7.47281 38.6521 7.59258C38.6812 7.69197 38.6838 7.7888 38.6521 7.89329C38.6071 8.05128 38.5859 8.21692 38.5515 8.38002C38.5224 8.52018 38.4906 8.66288 38.4642 8.80304C38.4483 8.88968 38.406 8.96104 38.3425 9.02475C38.2922 9.07571 38.2392 9.11649 38.1572 9.09355C38.0672 9.06807 38.0355 9.00181 38.0249 8.92026C38.0249 8.89988 38.0275 8.88204 38.0275 8.84636Z" fill="#38312c"/>
<path d="M39.3248 22.4649C39.3024 22.5208 39.2777 22.6148 39.235 22.6913C39.1923 22.7648 39.116 22.7677 39.0532 22.7089C39.0195 22.6766 38.9881 22.6384 38.9701 22.5913C38.9095 22.4444 38.8533 22.2974 38.8017 22.1475C38.7523 22.0005 38.6872 21.8594 38.6827 21.6918C38.6805 21.589 38.6693 21.4861 38.6782 21.3832C38.6827 21.3185 38.7052 21.2509 38.7321 21.1951C38.7838 21.0951 38.8713 21.1039 38.9229 21.2098C38.997 21.3597 39.0442 21.5243 39.0666 21.7007C39.0868 21.8506 39.1407 21.974 39.2036 22.0975C39.2575 22.1974 39.3091 22.3003 39.3248 22.4649Z" fill="#38312c"/>
<path d="M36.6926 18.3932C35.5085 17.2503 34.1097 16.3533 32.577 15.7542C30.425 15.0159 28.6499 15.5342 25.4925 15.4557C23.6962 15.5183 21.9193 15.0659 20.3716 14.1519C19.6689 13.6291 19.1091 12.9378 18.7439 12.1416C18.3788 11.3455 18.2201 10.4702 18.2824 9.59649C18.2825 9.47419 18.235 9.35664 18.15 9.2687C18.065 9.18076 17.9491 9.12932 17.8269 9.12524C17.7061 9.12524 17.5902 9.17324 17.5048 9.25867C17.4193 9.3441 17.3713 9.45997 17.3713 9.58079C17.2703 10.6184 17.435 11.6646 17.85 12.621C18.2649 13.5773 18.9165 14.4123 19.7433 15.0473C21.4361 16.1624 23.4183 16.7576 25.4454 16.7595C27.3266 16.7125 29.209 16.7649 31.0847 16.9166C32.8149 17.3589 34.3804 18.2917 35.593 19.6027C37.1964 21.0274 38.3481 22.8899 38.9063 24.9608C39.4645 27.0318 39.4048 29.2208 38.7347 31.2583C38.1204 33.3331 37.0637 35.2501 35.6373 36.8772C34.2108 38.5043 32.4486 39.8028 30.4721 40.6833C27.2423 41.7335 23.8287 42.0974 20.4502 41.7515C18.406 41.6501 16.4217 41.0282 14.6852 39.945C14.9361 39.5193 15.2484 39.1329 15.612 38.7983C15.7141 38.7316 15.7855 38.6272 15.8105 38.5078C15.8356 38.3885 15.8122 38.2642 15.7455 38.1621C15.6789 38.06 15.5744 37.9886 15.4551 37.9636C15.3358 37.9385 15.2114 37.9619 15.1093 38.0286C14.2879 38.3923 13.5541 38.928 12.9573 39.5994C12.7101 39.8981 12.4991 40.225 12.329 40.5733C12.1587 40.9191 12.0271 41.2826 11.9362 41.6572C11.7093 42.5387 11.6401 43.4534 11.732 44.359C11.732 44.4965 11.7866 44.6284 11.8839 44.7256C11.9811 44.8228 12.1129 44.8774 12.2504 44.8774C12.3879 44.8774 12.5197 44.8228 12.617 44.7256C12.7142 44.6284 12.7688 44.4965 12.7688 44.359C12.8956 43.6214 13.1173 42.9034 13.4285 42.2227C13.5542 41.94 13.6956 41.6729 13.8212 41.4059L14.104 40.8875C15.9558 42.0775 18.0689 42.7999 20.2617 42.9924C23.8518 43.4476 27.4976 43.1371 30.959 42.0813C33.2 41.1595 35.2082 39.7512 36.8382 37.9582C38.4682 36.1652 39.6793 34.0323 40.384 31.7138C41.1381 29.3757 41.1904 26.8678 40.5343 24.5004C39.8782 22.1329 38.5426 20.0096 36.6926 18.3932Z" fill="#38312c"/>
<path d="M18.361 31.5409C19.2737 30.2268 19.8163 28.6913 19.9318 27.0955C20.0734 25.0522 19.9573 22.9992 19.5862 20.9849C22.552 21.8028 25.6927 21.7318 28.6185 20.7807C28.6856 20.758 28.7475 20.7223 28.8007 20.6757C28.854 20.6291 28.8975 20.5725 28.9289 20.509C28.9603 20.4456 28.9788 20.3765 28.9835 20.3059C28.9882 20.2353 28.9789 20.1644 28.9562 20.0974C28.9336 20.0304 28.8979 19.9684 28.8513 19.9152C28.8046 19.8619 28.748 19.8184 28.6845 19.787C28.6211 19.7557 28.5521 19.7371 28.4815 19.7324C28.4108 19.7277 28.34 19.737 28.2729 19.7597C25.4974 20.4398 22.5845 20.3034 19.8847 19.367C18.3786 18.8372 17.0582 17.8824 16.0833 16.618C15.4324 15.738 14.9577 14.7406 14.6852 13.6805C14.4833 12.9333 14.4405 12.152 14.5596 11.3871C14.7166 10.1619 15.1093 8.93663 15.345 7.75851C15.3663 7.69863 15.3749 7.63495 15.3702 7.57156C15.3655 7.50816 15.3475 7.44646 15.3175 7.39042C15.2875 7.33438 15.2461 7.28524 15.196 7.24616C15.1458 7.20708 15.0881 7.17892 15.0264 7.1635C14.9647 7.14809 14.9005 7.14575 14.8379 7.15664C14.7753 7.16752 14.7156 7.1914 14.6627 7.22673C14.6099 7.26206 14.565 7.30806 14.531 7.36177C14.497 7.41548 14.4746 7.47571 14.4653 7.53859C14.104 8.76384 13.6171 9.94196 13.3029 11.1829C13.1226 12.0904 13.1226 13.0244 13.3029 13.9319C13.5301 15.2156 14.0165 16.4395 14.7323 17.5291C15.4563 18.6115 16.418 19.5142 17.5441 20.1681C17.8615 20.3503 18.1923 20.5078 18.5338 20.6393C18.793 22.7258 18.793 24.8363 18.5338 26.9227C18.3319 28.238 17.7905 29.4778 16.9629 30.5199C15.9594 31.7055 14.7107 32.6595 13.3029 33.316C11.7036 34.0835 10.2849 35.181 9.14018 36.5362C8.21138 37.8066 7.66624 39.3166 7.56935 40.8874C7.56935 41.4843 7.4751 42.1283 7.4751 42.7724V44.0448C7.48101 44.1129 7.50037 44.1793 7.53205 44.2399C7.56373 44.3006 7.6071 44.3544 7.65968 44.3982C7.71225 44.442 7.77298 44.475 7.83836 44.4952C7.90373 44.5154 7.97247 44.5225 8.0406 44.516C8.10809 44.5121 8.17409 44.4946 8.23466 44.4646C8.29524 44.4346 8.34913 44.3926 8.39313 44.3413C8.43712 44.29 8.47031 44.2303 8.49071 44.1659C8.51111 44.1014 8.5183 44.0335 8.51185 43.9662C8.4884 43.5791 8.4884 43.1909 8.51185 42.8038C8.51185 42.2069 8.63751 41.5943 8.71606 41.0288C8.86258 39.7276 9.36842 38.4929 10.1769 37.463C11.3297 36.3299 12.6968 35.4381 14.1983 34.8397C15.8148 34.0648 17.2372 32.9376 18.361 31.5409Z" fill="#38312c"/>
<path d="M24.7372 30.4997C25.8681 30.1479 26.9142 29.9031 27.9454 29.8517C29.3226 29.7839 29.5946 29.7374 31.2196 30.2249C32.1355 30.4997 33.5835 31.2553 33.8196 32.0124C34.0763 32.8377 33.3126 34.1249 32.5784 35.1143C32.4319 35.4431 32.122 35.7474 31.9032 36.0662C31.603 36.5023 31.2422 36.9113 30.6564 37.2437C29.863 37.6946 29.0309 38.0665 28.124 38.3587C27.2809 38.6301 26.4378 38.853 25.587 39.0035C24.2515 39.2394 23.0625 39.1728 22.0148 38.8329C20.8881 38.4667 20.192 37.8397 19.7994 37.026C19.6387 36.6912 19.582 36.3218 19.6174 35.9392C19.6673 35.4065 19.6946 34.8749 19.8893 34.3224C20.2502 33.2937 20.9998 32.3581 22.2827 31.5708C23.0532 31.0982 23.9485 30.7878 24.7372 30.4997Z" fill="url(#paint1_linear_10375_10170)"/>
<path d="M32.4827 34.5727C32.5359 34.6169 32.5975 34.6499 32.6637 34.6699C32.73 34.6899 32.7996 34.6964 32.8684 34.6891C32.9372 34.6818 33.0038 34.6608 33.0644 34.6273C33.1249 34.5938 33.1782 34.5485 33.221 34.4942C33.6913 34.0821 34 33.5163 34.0921 32.8978C34.1842 32.2792 34.0536 31.6481 33.7236 31.1169C32.9644 30.2498 31.9138 29.6909 30.7705 29.546C28.704 29.1031 26.5731 29.0499 24.4871 29.389C23.0489 29.6157 21.6769 30.1516 20.4658 30.9598C19.3045 31.8144 18.4992 33.0672 18.2038 34.4785C18.0445 35.2377 18.0997 36.0264 18.3633 36.756C18.6268 37.4857 19.0883 38.1276 19.6961 38.6097C20.0848 38.9233 20.534 39.1532 21.0156 39.2852C21.6309 39.4571 22.2628 39.5624 22.9006 39.5994C24.4469 39.7229 26.0008 39.4863 27.4403 38.9082C29.4505 38.0518 31.3493 36.9546 33.0953 35.6409C33.1475 35.6104 33.1929 35.5696 33.2286 35.5208C33.2643 35.472 33.2895 35.4164 33.3028 35.3575C33.3161 35.2985 33.317 35.2375 33.3057 35.1781C33.2943 35.1188 33.2708 35.0624 33.2367 35.0125C33.1696 34.9131 33.066 34.8441 32.9483 34.8206C32.8307 34.797 32.7085 34.8209 32.6083 34.8869C30.8728 36.0469 28.9996 36.9861 27.0319 37.683C25.7775 38.0978 24.444 38.216 23.1362 38.0285C22.6859 37.9683 22.2399 37.8791 21.801 37.7615C21.4455 37.67 21.1136 37.504 20.8271 37.2745C20.4834 36.9744 20.2285 36.5859 20.09 36.1511C19.9515 35.7163 19.9348 35.2519 20.0417 34.8083C20.2365 33.8222 20.7978 32.9466 21.6125 32.3578C22.8729 31.4718 24.3377 30.9205 25.8695 30.7556C27.4324 30.533 29.019 30.533 30.582 30.7556C31.425 30.8001 32.2208 31.1588 32.8125 31.7609C33.2053 32.2636 33.0953 32.939 32.4198 33.803C32.3697 33.8559 32.3313 33.9187 32.307 33.9875C32.2828 34.0562 32.2734 34.1293 32.2793 34.2019C32.2852 34.2745 32.3064 34.3451 32.3414 34.409C32.3765 34.4729 32.4246 34.5287 32.4827 34.5727Z" fill="#38312c"/>
</g>
<defs>
<linearGradient id="paint0_linear_10375_10170" x1="28.0887" y1="14.8556" x2="44.8499" y2="14.8556" gradientUnits="userSpaceOnUse">
<stop offset="0.1833" stop-color="#5A8A5E"/>
<stop offset="1" stop-color="#9DC4A0"/>
</linearGradient>
<linearGradient id="paint1_linear_10375_10170" x1="25.4217" y1="30.2772" x2="28.0559" y2="38.3808" gradientUnits="userSpaceOnUse">
<stop stop-color="#5A8A5E"/>
<stop offset="1" stop-color="#9DC4A0"/>
</linearGradient>
<clipPath id="clip0_10375_10170">
<rect width="52" height="52" rx="12" fill="white"/>
</clipPath>
</defs>
</svg>
