<svg width="16" height="16" viewBox="0 0 16 16" fill="none" xmlns="http://www.w3.org/2000/svg">
<circle cx="8" cy="8.00006" r="3.73333" fill="white"/>
<path d="M7.99997 5.33167V8.53265H11.201" stroke="#779d7c" stroke-miterlimit="10" stroke-linecap="round" stroke-linejoin="round"/>
<path d="M3.18047 13.7981L2.79155 10.7054L5.82822 11.5516" stroke="#779d7c" stroke-miterlimit="10" stroke-linecap="round" stroke-linejoin="round"/>
<path d="M2.79151 10.7055C3.45262 11.9791 4.55743 12.9663 5.89708 13.4805C7.23672 13.9947 8.71833 14.0003 10.0618 13.4961C11.4053 12.992 12.5175 12.0131 13.1881 10.7445C13.8588 9.47597 14.0414 8.00564 13.7015 6.61155C13.3615 5.21745 12.5226 3.99622 11.3433 3.17874C10.164 2.36127 8.726 2.0042 7.30127 2.17507C5.87654 2.34593 4.56378 3.03287 3.6112 4.10602C2.65862 5.17916 2.13224 6.56413 2.13158 7.99907" stroke="#779d7c" stroke-miterlimit="10" stroke-linecap="round" stroke-linejoin="round"/>
</svg>
