<svg xmlns="http://www.w3.org/2000/svg" xmlns:xlink="http://www.w3.org/1999/xlink" width="160" zoomAndPan="magnify" viewBox="0 0 120 30.000001" height="40" preserveAspectRatio="xMidYMid meet" version="1.0"><defs><g/></defs><g fill="#0a4b4d" fill-opacity="1"><g transform="translate(1.992343, 19.233873)"><g><path d="M 9.671875 -2.015625 L 9.671875 0 L 1.28125 0 L 1.28125 -10.84375 L 9.46875 -10.84375 L 9.46875 -8.828125 L 3.78125 -8.828125 L 3.78125 -6.46875 L 8.8125 -6.46875 L 8.8125 -4.515625 L 3.78125 -4.515625 L 3.78125 -2.015625 Z M 9.671875 -2.015625 "/></g></g></g><g fill="#0a4b4d" fill-opacity="1"><g transform="translate(11.295669, 19.233873)"><g><path d="M 11.78125 -8.453125 C 12.820312 -8.453125 13.648438 -8.144531 14.265625 -7.53125 C 14.878906 -6.914062 15.1875 -5.992188 15.1875 -4.765625 L 15.1875 0 L 12.78125 0 L 12.78125 -4.390625 C 12.78125 -5.054688 12.640625 -5.550781 12.359375 -5.875 C 12.085938 -6.195312 11.695312 -6.359375 11.1875 -6.359375 C 10.625 -6.359375 10.175781 -6.175781 9.84375 -5.8125 C 9.519531 -5.445312 9.359375 -4.90625 9.359375 -4.1875 L 9.359375 0 L 6.9375 0 L 6.9375 -4.390625 C 6.9375 -5.703125 6.410156 -6.359375 5.359375 -6.359375 C 4.796875 -6.359375 4.347656 -6.175781 4.015625 -5.8125 C 3.691406 -5.445312 3.53125 -4.90625 3.53125 -4.1875 L 3.53125 0 L 1.109375 0 L 1.109375 -8.328125 L 3.421875 -8.328125 L 3.421875 -7.375 C 3.734375 -7.71875 4.113281 -7.984375 4.5625 -8.171875 C 5.007812 -8.359375 5.5 -8.453125 6.03125 -8.453125 C 6.625 -8.453125 7.15625 -8.332031 7.625 -8.09375 C 8.101562 -7.863281 8.488281 -7.53125 8.78125 -7.09375 C 9.125 -7.519531 9.554688 -7.851562 10.078125 -8.09375 C 10.597656 -8.332031 11.164062 -8.453125 11.78125 -8.453125 Z M 11.78125 -8.453125 "/></g></g></g><g fill="#0a4b4d" fill-opacity="1"><g transform="translate(26.450489, 19.233873)"><g><path d="M 4.46875 -8.453125 C 5.757812 -8.453125 6.75 -8.144531 7.4375 -7.53125 C 8.132812 -6.914062 8.484375 -5.988281 8.484375 -4.75 L 8.484375 0 L 6.21875 0 L 6.21875 -1.03125 C 5.769531 -0.257812 4.925781 0.125 3.6875 0.125 C 3.039062 0.125 2.484375 0.015625 2.015625 -0.203125 C 1.546875 -0.421875 1.1875 -0.71875 0.9375 -1.09375 C 0.695312 -1.476562 0.578125 -1.914062 0.578125 -2.40625 C 0.578125 -3.175781 0.867188 -3.78125 1.453125 -4.21875 C 2.035156 -4.664062 2.9375 -4.890625 4.15625 -4.890625 L 6.0625 -4.890625 C 6.0625 -5.421875 5.898438 -5.828125 5.578125 -6.109375 C 5.265625 -6.390625 4.789062 -6.53125 4.15625 -6.53125 C 3.707031 -6.53125 3.269531 -6.457031 2.84375 -6.3125 C 2.414062 -6.175781 2.050781 -5.992188 1.75 -5.765625 L 0.875 -7.453125 C 1.332031 -7.765625 1.878906 -8.007812 2.515625 -8.1875 C 3.148438 -8.363281 3.800781 -8.453125 4.46875 -8.453125 Z M 4.296875 -1.5 C 4.703125 -1.5 5.066406 -1.59375 5.390625 -1.78125 C 5.710938 -1.976562 5.9375 -2.257812 6.0625 -2.625 L 6.0625 -3.484375 L 4.40625 -3.484375 C 3.414062 -3.484375 2.921875 -3.160156 2.921875 -2.515625 C 2.921875 -2.203125 3.039062 -1.953125 3.28125 -1.765625 C 3.53125 -1.585938 3.867188 -1.5 4.296875 -1.5 Z M 4.296875 -1.5 "/></g></g></g><g fill="#0a4b4d" fill-opacity="1"><g transform="translate(35.010766, 19.233873)"><g><path d="M 9.703125 -8.328125 L 9.703125 -1.390625 C 9.703125 0.128906 9.304688 1.257812 8.515625 2 C 7.722656 2.75 6.5625 3.125 5.03125 3.125 C 4.226562 3.125 3.460938 3.023438 2.734375 2.828125 C 2.015625 2.640625 1.414062 2.359375 0.9375 1.984375 L 1.90625 0.25 C 2.257812 0.539062 2.703125 0.769531 3.234375 0.9375 C 3.773438 1.101562 4.3125 1.1875 4.84375 1.1875 C 5.675781 1.1875 6.289062 1 6.6875 0.625 C 7.09375 0.25 7.296875 -0.316406 7.296875 -1.078125 L 7.296875 -1.4375 C 6.660156 -0.75 5.78125 -0.40625 4.65625 -0.40625 C 3.894531 -0.40625 3.195312 -0.570312 2.5625 -0.90625 C 1.925781 -1.238281 1.421875 -1.707031 1.046875 -2.3125 C 0.679688 -2.925781 0.5 -3.628906 0.5 -4.421875 C 0.5 -5.222656 0.679688 -5.925781 1.046875 -6.53125 C 1.421875 -7.144531 1.925781 -7.617188 2.5625 -7.953125 C 3.195312 -8.285156 3.894531 -8.453125 4.65625 -8.453125 C 5.863281 -8.453125 6.785156 -8.054688 7.421875 -7.265625 L 7.421875 -8.328125 Z M 5.140625 -2.390625 C 5.773438 -2.390625 6.296875 -2.578125 6.703125 -2.953125 C 7.117188 -3.328125 7.328125 -3.816406 7.328125 -4.421875 C 7.328125 -5.035156 7.117188 -5.53125 6.703125 -5.90625 C 6.296875 -6.28125 5.773438 -6.46875 5.140625 -6.46875 C 4.503906 -6.46875 3.976562 -6.28125 3.5625 -5.90625 C 3.144531 -5.53125 2.9375 -5.035156 2.9375 -4.421875 C 2.9375 -3.816406 3.144531 -3.328125 3.5625 -2.953125 C 3.976562 -2.578125 4.503906 -2.390625 5.140625 -2.390625 Z M 5.140625 -2.390625 "/></g></g></g><g fill="#0a4b4d" fill-opacity="1"><g transform="translate(44.763015, 19.233873)"><g><path d="M 3.421875 -7.234375 C 3.710938 -7.628906 4.101562 -7.929688 4.59375 -8.140625 C 5.082031 -8.347656 5.644531 -8.453125 6.28125 -8.453125 L 6.28125 -6.21875 C 6.019531 -6.238281 5.84375 -6.25 5.75 -6.25 C 5.050781 -6.25 4.503906 -6.054688 4.109375 -5.671875 C 3.722656 -5.285156 3.53125 -4.707031 3.53125 -3.9375 L 3.53125 0 L 1.109375 0 L 1.109375 -8.328125 L 3.421875 -8.328125 Z M 3.421875 -7.234375 "/></g></g></g><g fill="#0a4b4d" fill-opacity="1"><g transform="translate(50.211768, 19.233873)"><g><path d="M 9.28125 -4.140625 C 9.28125 -4.109375 9.265625 -3.890625 9.234375 -3.484375 L 2.921875 -3.484375 C 3.035156 -2.960938 3.300781 -2.550781 3.71875 -2.25 C 4.144531 -1.957031 4.675781 -1.8125 5.3125 -1.8125 C 5.75 -1.8125 6.132812 -1.875 6.46875 -2 C 6.800781 -2.132812 7.113281 -2.335938 7.40625 -2.609375 L 8.6875 -1.21875 C 7.90625 -0.320312 6.757812 0.125 5.25 0.125 C 4.3125 0.125 3.476562 -0.0546875 2.75 -0.421875 C 2.03125 -0.785156 1.472656 -1.289062 1.078125 -1.9375 C 0.691406 -2.59375 0.5 -3.335938 0.5 -4.171875 C 0.5 -4.984375 0.691406 -5.71875 1.078125 -6.375 C 1.460938 -7.03125 1.992188 -7.539062 2.671875 -7.90625 C 3.347656 -8.269531 4.101562 -8.453125 4.9375 -8.453125 C 5.75 -8.453125 6.484375 -8.273438 7.140625 -7.921875 C 7.804688 -7.578125 8.328125 -7.078125 8.703125 -6.421875 C 9.085938 -5.765625 9.28125 -5.003906 9.28125 -4.140625 Z M 4.953125 -6.625 C 4.410156 -6.625 3.953125 -6.46875 3.578125 -6.15625 C 3.203125 -5.851562 2.972656 -5.429688 2.890625 -4.890625 L 7 -4.890625 C 6.914062 -5.421875 6.6875 -5.84375 6.3125 -6.15625 C 5.945312 -6.46875 5.492188 -6.625 4.953125 -6.625 Z M 4.953125 -6.625 "/></g></g></g><g fill="#0a4b4d" fill-opacity="1"><g transform="translate(58.900104, 19.233873)"><g><path d="M 6.46875 0.09375 C 5.394531 0.09375 4.425781 -0.140625 3.5625 -0.609375 C 2.707031 -1.085938 2.035156 -1.75 1.546875 -2.59375 C 1.054688 -3.4375 0.8125 -4.378906 0.8125 -5.421875 C 0.8125 -6.460938 1.054688 -7.398438 1.546875 -8.234375 C 2.035156 -9.078125 2.710938 -9.738281 3.578125 -10.21875 C 4.441406 -10.695312 5.410156 -10.9375 6.484375 -10.9375 C 7.296875 -10.9375 8.039062 -10.800781 8.71875 -10.53125 C 9.394531 -10.257812 9.972656 -9.867188 10.453125 -9.359375 L 9.71875 -8.625 C 8.875 -9.476562 7.804688 -9.90625 6.515625 -9.90625 C 5.660156 -9.90625 4.878906 -9.707031 4.171875 -9.3125 C 3.472656 -8.925781 2.925781 -8.390625 2.53125 -7.703125 C 2.132812 -7.023438 1.9375 -6.265625 1.9375 -5.421875 C 1.9375 -4.578125 2.132812 -3.8125 2.53125 -3.125 C 2.925781 -2.445312 3.472656 -1.910156 4.171875 -1.515625 C 4.878906 -1.117188 5.660156 -0.921875 6.515625 -0.921875 C 7.816406 -0.921875 8.882812 -1.359375 9.71875 -2.234375 L 10.453125 -1.5 C 9.972656 -0.988281 9.390625 -0.59375 8.703125 -0.3125 C 8.023438 -0.0390625 7.28125 0.09375 6.46875 0.09375 Z M 6.46875 0.09375 "/></g></g></g><g fill="#0a4b4d" fill-opacity="1"><g transform="translate(68.94647, 19.233873)"><g><path d="M 9.4375 -0.984375 L 9.4375 0 L 1.765625 0 L 1.765625 -10.84375 L 9.203125 -10.84375 L 9.203125 -9.84375 L 2.90625 -9.84375 L 2.90625 -6 L 8.515625 -6 L 8.515625 -5.015625 L 2.90625 -5.015625 L 2.90625 -0.984375 Z M 9.4375 -0.984375 "/></g></g></g><g fill="#0a4b4d" fill-opacity="1"><g transform="translate(78.218831, 19.233873)"><g><path d="M 10.828125 -10.84375 L 10.828125 0 L 9.875 0 L 2.90625 -8.796875 L 2.90625 0 L 1.765625 0 L 1.765625 -10.84375 L 2.703125 -10.84375 L 9.6875 -2.046875 L 9.6875 -10.84375 Z M 10.828125 -10.84375 "/></g></g></g><g fill="#0a4b4d" fill-opacity="1"><g transform="translate(89.720332, 19.233873)"><g><path d="M 3.875 -9.84375 L 0.0625 -9.84375 L 0.0625 -10.84375 L 8.828125 -10.84375 L 8.828125 -9.84375 L 5.015625 -9.84375 L 5.015625 0 L 3.875 0 Z M 3.875 -9.84375 "/></g></g></g><g fill="#0a4b4d" fill-opacity="1"><g transform="translate(97.522075, 19.233873)"><g><path d="M 9.4375 -0.984375 L 9.4375 0 L 1.765625 0 L 1.765625 -10.84375 L 9.203125 -10.84375 L 9.203125 -9.84375 L 2.90625 -9.84375 L 2.90625 -6 L 8.515625 -6 L 8.515625 -5.015625 L 2.90625 -5.015625 L 2.90625 -0.984375 Z M 9.4375 -0.984375 "/></g></g></g><g fill="#0a4b4d" fill-opacity="1"><g transform="translate(106.794437, 19.233873)"><g><path d="M 9.171875 0 L 6.6875 -3.484375 C 6.40625 -3.453125 6.117188 -3.4375 5.828125 -3.4375 L 2.90625 -3.4375 L 2.90625 0 L 1.765625 0 L 1.765625 -10.84375 L 5.828125 -10.84375 C 7.203125 -10.84375 8.28125 -10.507812 9.0625 -9.84375 C 9.851562 -9.1875 10.25 -8.28125 10.25 -7.125 C 10.25 -6.28125 10.035156 -5.566406 9.609375 -4.984375 C 9.179688 -4.398438 8.566406 -3.976562 7.765625 -3.71875 L 10.421875 0 Z M 5.796875 -4.40625 C 6.867188 -4.40625 7.6875 -4.644531 8.25 -5.125 C 8.820312 -5.601562 9.109375 -6.269531 9.109375 -7.125 C 9.109375 -8 8.820312 -8.671875 8.25 -9.140625 C 7.6875 -9.609375 6.867188 -9.84375 5.796875 -9.84375 L 2.90625 -9.84375 L 2.90625 -4.40625 Z M 5.796875 -4.40625 "/></g></g></g></svg>