<svg width="16" height="16" viewBox="0 0 16 16" fill="none" xmlns="http://www.w3.org/2000/svg">
<path d="M15.0554 9.23193C15.2343 9.53649 15.3302 9.8827 15.3334 10.2359C15.3334 12.2606 12.05 13.9026 8.00002 13.9026C3.95002 13.9026 0.666687 12.2606 0.666687 10.2359C0.667737 9.97605 0.720778 9.71901 0.822687 9.47993" stroke="#38312c" stroke-linecap="round" stroke-linejoin="round"/>
<path d="M3.99997 6.37207C3.63166 6.42471 3.28261 6.56951 2.98519 6.79304C2.68777 7.01657 2.45162 7.31159 2.29864 7.65074C2.12966 7.98224 2.04717 8.35106 2.05882 8.72296C2.07048 9.09487 2.1759 9.4578 2.36531 9.77807C2.95418 10.4911 3.7985 10.9457 4.71797 11.0447C5.00293 11.0721 5.28961 11.0768 5.57531 11.0587C6.14246 11.0941 6.71158 11.0816 7.27664 11.0214C7.44479 10.9889 7.60299 10.9174 7.7386 10.8128C7.87421 10.7082 7.98347 10.5733 8.05764 10.4189C8.13182 10.2646 8.16885 10.095 8.16578 9.92375C8.16271 9.7525 8.11963 9.58435 8.03997 9.43274C7.68975 8.98829 7.34508 8.53785 7.00597 8.0814C6.84109 7.8472 6.65809 7.6263 6.45864 7.42074C5.80745 6.76355 4.92502 6.38718 3.99997 6.37207Z" stroke="#38312c"/>
<path d="M8.08069 10.3501L9.68202 11.1928" stroke="#38312c" stroke-linecap="round" stroke-linejoin="round"/>
<path d="M9.53198 11.6639L9.84932 10.6672" stroke="#38312c" stroke-linecap="round" stroke-linejoin="round"/>
<path d="M11.0613 4.47723C11.2691 4.37575 11.46 4.24285 11.6273 4.08323C11.9615 3.54331 12.1765 2.93827 12.258 2.30857C12.265 2.28 12.2646 2.25012 12.2567 2.22179C12.2488 2.19346 12.2337 2.16764 12.213 2.14681C12.1922 2.12599 12.1664 2.11085 12.1381 2.10287C12.1098 2.09489 12.0799 2.09432 12.0513 2.10123C11.4217 2.18293 10.8167 2.39793 10.2767 2.7319C10.063 2.94905 9.90473 3.21451 9.81537 3.50579C9.72601 3.79707 9.70817 4.10559 9.76335 4.40523" stroke="#38312c"/>
<path d="M6.43665 5.18588C7.02198 4.75584 7.72965 4.52455 8.45598 4.52588H10.288C10.7367 4.5258 11.1811 4.61411 11.5957 4.78577C12.0103 4.95744 12.387 5.20909 12.7044 5.52637C13.0217 5.84364 13.2734 6.22032 13.4452 6.6349C13.6169 7.04947 13.7053 7.49381 13.7053 7.94255C13.7023 8.33285 13.5741 8.71188 13.3396 9.02389C13.1051 9.33591 12.7767 9.56444 12.4026 9.67588C12.2826 9.71277 12.1624 9.74722 12.042 9.77922" stroke="#38312c" stroke-linecap="round" stroke-linejoin="round"/>
</svg>
