<svg width="16" height="16" viewBox="0 0 16 16" fill="none" xmlns="http://www.w3.org/2000/svg">
<circle cx="7.5" cy="7.5" r="3.5" fill="white" fill-opacity="0.01"/>
<path d="M11.1247 3.00549C9.93607 2.26989 8.52263 1.98605 7.14216 2.20573C5.76169 2.4254 4.50617 3.13396 3.60457 4.20217C2.70298 5.27038 2.21538 6.62708 2.2307 8.02484C2.24602 9.42259 2.76324 10.7683 3.68804 11.8165C4.61283 12.8647 5.88358 13.5455 7.26854 13.7349C8.65349 13.9243 10.0604 13.6095 11.2326 12.848C12.4048 12.0866 13.2643 10.9291 13.6543 9.58676C13.9108 8.70378 13.9529 7.77949 13.7861 6.88853C13.6994 6.42503 13.6543 6.37165 13.6543 6.37165" fill="white" fill-opacity="0.01"/>
<path d="M11.1247 3.00549C9.93607 2.26989 8.52263 1.98605 7.14216 2.20573C5.76169 2.4254 4.50617 3.13396 3.60457 4.20217C2.70298 5.27038 2.21538 6.62708 2.2307 8.02484C2.24602 9.42259 2.76324 10.7683 3.68804 11.8165C4.61283 12.8647 5.88358 13.5455 7.26854 13.7349C8.65349 13.9243 10.0604 13.6095 11.2326 12.848C12.4048 12.0866 13.2643 10.9291 13.6543 9.58676C13.9108 8.70378 13.9529 7.77949 13.7861 6.88853M13.7861 6.88853C13.6994 6.42503 13.6543 6.37165 13.6543 6.37165L13.7861 6.88853Z" stroke="#779d7c" stroke-linecap="round" stroke-linejoin="round"/>
<path d="M5.68823 7.83887L7.55252 9.77174L12.9124 4.21472" stroke="#779d7c" stroke-linecap="round" stroke-linejoin="round"/>
</svg>
