<svg width="10" height="14" viewBox="0 0 10 14" fill="none" xmlns="http://www.w3.org/2000/svg">
<path d="M5 0.5C6.20978 0.5 7.11555 0.557759 7.75098 0.623047C8.70492 0.7211 9.345 1.53204 9.39551 2.45605C9.44645 3.38703 9.5 4.87366 9.5 7C9.5 9.12634 9.44645 10.613 9.39551 11.5439C9.345 12.4681 8.70507 13.2792 7.75098 13.377C7.11579 13.4422 6.20977 13.5 5 13.5C3.79022 13.5 2.88445 13.4422 2.24902 13.377C1.29542 13.2789 0.65501 12.4681 0.604492 11.5439C0.553554 10.613 0.5 9.12634 0.5 7C0.5 4.87366 0.553554 3.38703 0.604492 2.45605C0.655 1.53184 1.29527 0.720811 2.24902 0.623047C2.88421 0.557756 3.79023 0.5 5 0.5Z" stroke="#779d7c" stroke-linecap="round" stroke-linejoin="round"/>
<path d="M6 10.6996L6.08105 10.7084C6.26309 10.7459 6.40039 10.9068 6.40039 11.1C6.40039 11.2931 6.26309 11.4541 6.08105 11.4916L6 11.5004H4C3.77909 11.5004 3.59961 11.3209 3.59961 11.1C3.59961 10.8791 3.77909 10.6996 4 10.6996H6Z" stroke="#779d7c" stroke-width="0.8" stroke-linecap="round" stroke-linejoin="round"/>
</svg>
