<svg width="24" height="24" viewBox="0 0 24 24" fill="none" xmlns="http://www.w3.org/2000/svg">
<path d="M22 12.0019C21.9996 14.4086 21.1312 16.7344 19.5541 18.5525C17.9771 20.3706 15.7973 21.5589 13.4148 21.8994C11.0323 22.2399 8.60691 21.7097 6.58376 20.4062C4.56062 19.1027 3.07546 17.1132 2.40087 14.803C1.72627 12.4927 1.9075 10.0167 2.91129 7.82925C3.91507 5.64185 5.67408 3.88983 7.86546 2.89476C10.0568 1.89969 12.5336 1.72832 14.8411 2.4121C17.1487 3.09588 19.1322 4.58894 20.4277 6.61725" stroke="#38312c" stroke-width="1.5" stroke-linecap="round" stroke-linejoin="round"/>
<path d="M20.8235 3.17648V6.7059H17.2941" stroke="#38312c" stroke-width="1.5" stroke-linecap="round" stroke-linejoin="round"/>
<path d="M7.5556 9.30032L12.0525 11.8947L16.5494 9.30032" stroke="#38312c" stroke-width="1.5" stroke-linecap="round" stroke-linejoin="round"/>
<path d="M12.0524 11.8947V17.0835" stroke="#38312c" stroke-width="1.5" stroke-linecap="round" stroke-linejoin="round"/>
<path d="M16.5494 14.4891V9.30034L12.0525 6.70596L7.55557 9.30034V14.4891L12.0525 17.0835L16.5494 14.4891Z" stroke="#38312c" stroke-width="1.5" stroke-linecap="round" stroke-linejoin="round"/>
</svg>
