<svg xmlns="http://www.w3.org/2000/svg" width="24" height="24" fill="none"><path fill="#779d7c" d="m3 21.08 1.27-4.65A8.97 8.97 0 1 1 21 11.96a8.96 8.96 0 0 1-13.25 7.87L3 21.08Zm4.97-2.87.27.16a7.46 7.46 0 1 0 3.8-13.86 7.46 7.46 0 0 0-6.31 11.4l.17.29-.75 2.75 2.82-.74Z"/><path fill="#779d7c" fill-rule="evenodd" d="M9.8 8.2c-.18-.43-.37-.37-.5-.38h-.44c-.14 0-.39.05-.6.28-.2.22-.78.76-.78 1.86s.8 2.17.92 2.32c.11.15 1.58 2.41 3.82 3.38.54.23.96.37 1.28.47.54.17 1.03.15 1.41.1.43-.07 1.33-.55 1.51-1.07.19-.53.19-.97.13-1.07-.05-.1-.2-.15-.43-.26-.22-.11-1.32-.65-1.53-.73-.2-.07-.35-.11-.5.11-.15.23-.58.73-.7.88-.14.15-.27.17-.5.06-.22-.11-.94-.35-1.8-1.11a6.75 6.75 0 0 1-1.24-1.55c-.13-.23-.01-.35.1-.46.1-.1.22-.26.33-.4.12-.12.15-.22.23-.37.07-.15.03-.28-.02-.39-.06-.11-.5-1.21-.7-1.66Z" clip-rule="evenodd"/></svg>
